<?xml version="1.0" encoding="utf-8"?>
<!-- Generator: Adobe Illustrator 18.1.1, SVG Export Plug-In . SVG Version: 6.00 Build 0)  -->
<svg version="1.1" id="Layer_1" xmlns="http://www.w3.org/2000/svg" xmlns:xlink="http://www.w3.org/1999/xlink" x="0px" y="0px"
	 viewBox="0 0 139.5 102" enable-background="new 0 0 139.5 102" xml:space="preserve">
<polyline fill="none" stroke="#FFFFFF" stroke-width="2" stroke-miterlimit="10" points="51.8,7.4 6.4,52.8 51,97.4 "/>
<g>
	<path fill="#FFFFFF" d="M81.3,73.1c0,1.3-0.2,2.4-0.7,3.1c-0.5,0.7-1.1,1.2-1.9,1.6s-1.7,0.5-2.7,0.6c-1,0.1-2.1,0.1-3.1,0.1h-4.2
		V21h4.2c1.3,0,2.5,0,3.6,0.1c1.1,0.1,1.9,0.2,2.7,0.6s1.3,0.9,1.7,1.6c0.4,0.7,0.6,1.7,0.6,3.1v18.1c0,1.1-0.3,1.9-0.8,2.5
		c-0.5,0.6-1.3,1-2.4,1.3c1.1,0.2,1.9,0.7,2.4,1.2c0.5,0.6,0.8,1.4,0.8,2.5V73.1z M72.8,46.5H76c0.3,0,0.5-0.1,0.6-0.2
		c0.1-0.1,0.2-0.3,0.3-0.5s0.1-0.4,0.1-0.7c0-0.3,0-0.5,0-0.8V26.3c0-0.5-0.1-0.9-0.2-1.2c-0.1-0.3-0.4-0.5-0.7-0.6
		s-0.8-0.2-1.3-0.2c-0.5,0-1.2,0-2,0V46.5z M77,51.8c0-0.3,0-0.5,0-0.8c0-0.3,0-0.5-0.1-0.7s-0.2-0.4-0.3-0.5
		c-0.1-0.1-0.3-0.2-0.6-0.2h-3.2v25.5c0.8,0,1.5,0,2,0c0.5,0,1-0.1,1.3-0.2s0.6-0.3,0.7-0.6C77,74,77,73.6,77,73.1V51.8z"/>
	<path fill="#FFFFFF" d="M97.2,78.4H93l-0.5-13.8h-3.2l-0.6,13.8h-4.2L87.7,21H94L97.2,78.4z M91.9,48.7l-1.1-25.5l-1.1,25.5
		l-0.5,12.8h3.2L91.9,48.7z"/>
	<path fill="#FFFFFF" d="M113.2,44.4h-4.2V26.3c0-0.5-0.1-1-0.2-1.3c-0.1-0.3-0.3-0.6-0.5-0.8c-0.2-0.2-0.4-0.3-0.7-0.4
		c-0.3-0.1-0.5-0.1-0.8-0.1s-0.5,0-0.8,0.1c-0.3,0.1-0.5,0.2-0.7,0.4c-0.2,0.2-0.4,0.5-0.5,0.8c-0.1,0.3-0.2,0.8-0.2,1.3v46.8
		c0,0.3,0,0.6,0,0.9c0,0.4,0.1,0.7,0.2,1s0.3,0.6,0.6,0.8c0.3,0.2,0.7,0.3,1.2,0.3s0.9-0.1,1.2-0.3c0.3-0.2,0.5-0.5,0.6-0.8
		s0.2-0.7,0.2-1c0-0.4,0-0.7,0-0.9V50.8h4.2v22.3c0,0.3,0,0.7-0.1,1.4s-0.3,1.4-0.7,2.1s-1,1.4-1.9,1.9s-2.1,0.8-3.7,0.8
		s-2.8-0.3-3.7-0.8s-1.5-1.2-1.9-1.9s-0.6-1.4-0.7-2.1s-0.1-1.2-0.1-1.4V26.3c0-1,0.2-1.9,0.6-2.6c0.4-0.7,0.9-1.3,1.5-1.8
		c0.6-0.5,1.3-0.8,2-1c0.8-0.2,1.5-0.3,2.3-0.3c0.8,0,1.6,0.1,2.4,0.4c0.8,0.2,1.4,0.6,2,1.1c0.6,0.5,1.1,1.1,1.4,1.8
		c0.4,0.7,0.5,1.6,0.5,2.5V44.4z"/>
	<path fill="#FFFFFF" d="M129.8,78.4h-3.9l-4.2-28.7v28.7h-4.2V21h4.2v26.6l4.3-26.6h4.2l-4.2,24.4l-0.7,3.2l0.5,3.2L129.8,78.4z"/>
</g>
</svg>
