<?xml version="1.0" encoding="utf-8"?>
<!-- Generator: Adobe Illustrator 18.1.1, SVG Export Plug-In . SVG Version: 6.00 Build 0)  -->
<svg version="1.1" id="Layer_1" xmlns="http://www.w3.org/2000/svg" xmlns:xlink="http://www.w3.org/1999/xlink" x="0px" y="0px"
	 viewBox="0 0 800 800" enable-background="new 0 0 800 800" xml:space="preserve">
<g>
	<rect x="-9.4" y="6.2" fill="none" width="542" height="290.2"/>
	<text transform="matrix(1 0 0 1 -9.3607 239.2008)" fill="#D4145A" font-family="'DINCondensed-Bold'" font-size="327.2076">FIND</text>
	<g>
		<rect x="481.9" y="6.8" fill="none" width="110.3" height="197.6"/>
		<text transform="matrix(1 0 0 1 481.8912 187.0597)" fill="#9E005D" font-family="'DINCondensed-Bold'" font-size="253.1229">A</text>
	</g>
	<rect x="-11" y="265.1" fill="none" width="873.6" height="230.5"/>
	<text transform="matrix(1 0 0 1 -10.9901 488.6003)" fill="#932761" font-family="'DINCondensed-Bold'" font-size="313.8549">GREAT</text>
	<rect x="177.1" y="515.5" fill="none" width="427.8" height="245.5"/>
	<text transform="matrix(1 0 0 1 177.0583 694.5973)" fill="#D4145A" font-family="'DINCondensed-Bold'" font-size="251.5426">MEET</text>
	<g>
		<rect x="617.2" y="1" fill="none" width="189" height="497.2"/>
		<text transform="matrix(0 -1 1 0 797.2595 498.1949)" fill="#9E005D" font-family="'DINCondensed-Bold'" font-size="252.8353">PLACE</text>
	</g>
	<rect x="474.1" y="216" fill="#9E005D" width="115.8" height="23.2"/>
	<g>
		<rect x="5.6" y="515.4" fill="none" width="378.9" height="234.5"/>
		<text transform="matrix(1 0 0 1 5.6452 650.0338)" fill="#9E005D" font-family="'DINCondensed-Bold'" font-size="189.1625">TO</text>
	</g>
	<rect x="15.1" y="669.3" fill="#9E005D" width="130.2" height="23.2"/>
	<path opacity="0.9" fill="#582653" d="M609.3,512.5v181.4h181.4V512.5H609.3z M694.8,556.3c-2.9-9.2-6-12-22-12h-12.4
		c-3.7,0-4.6,0.8-4.6,4.2v25.9h6.1c12.8,0,15.5-2.3,17.1-10.8h3.1v28.9h-3.1c-1.7-9.6-6.5-12-17.1-12h-6.1v26.7
		c0,8.6,2.3,9.5,12,9.9v3.1H629V617c8.1-0.4,10.4-1.3,10.4-9.9v-55.9c0-8.6-2.3-9.5-10.1-9.9v-3.1h68.4l0.5,18.1H694.8z
		 M772.7,556.3c-2.6-8.9-6.5-12-15.1-12h-10.1v62.9c0,8.6,2.3,9.5,11.6,9.9v3.1h-39.5V617c9.3-0.4,11.6-1.3,11.6-9.9v-62.9h-10.1
		c-8.6,0-12.5,3.2-15.1,12h-4.1l1.7-18.1h71.8l1.7,18.1H772.7z"/>
</g>
</svg>
