<?xml version="1.0" encoding="utf-8"?>
<!-- Generator: Adobe Illustrator 18.1.1, SVG Export Plug-In . SVG Version: 6.00 Build 0)  -->
<svg version="1.1" id="Layer_1" xmlns="http://www.w3.org/2000/svg" xmlns:xlink="http://www.w3.org/1999/xlink" x="0px" y="0px"
	 viewBox="0 0 800 800" enable-background="new 0 0 800 800" xml:space="preserve">
<rect x="-10.3" y="21.4" fill="none" width="543.9" height="291.2"/>
<g enable-background="new    ">
	<path fill="#D4145A" d="M5.5,21.4h99.8v31.5H39v70.9h57.8v31.5H39v99.8H5.5V21.4z"/>
	<path fill="#D4145A" d="M128,21.4h33.5v233.8H128V21.4z"/>
	<path fill="#D4145A" d="M192.6,21.4h32.2l50.6,140.9h0.7V21.4h33.5v233.8H278l-51.2-140.5h-0.7v140.5h-33.5V21.4z"/>
	<path fill="#D4145A" d="M339.7,21.4h49.6c19,0,33.6,5.3,43.7,15.9c10.1,10.6,15.1,25.4,15.1,44.5v109.3c0,21.9-5.3,38-15.9,48.4
		c-10.6,10.4-25.9,15.6-45.8,15.6h-46.6V21.4z M373.2,223.6h15.4c9.4,0,16.1-2.3,20-7.1c3.9-4.7,5.9-12.1,5.9-22.2V81.8
		c0-9.2-1.9-16.3-5.6-21.3c-3.7-5-10.5-7.6-20.4-7.6h-15.4V223.6z"/>
</g>
<g>
	<rect x="482.7" y="22" fill="none" width="110.6" height="198.3"/>
	<g enable-background="new    ">
		<path fill="#9E005D" d="M523.6,22h21.6l40.4,180.8h-25.9L552,164h-35.3l-7.6,38.9h-25.9L523.6,22z M534.5,74.1H534l-12.7,65.5
			h25.9L534.5,74.1z"/>
	</g>
</g>
<rect x="-11.9" y="281.1" fill="none" width="876.6" height="231.3"/>
<g enable-background="new    ">
	<path fill="#93278F" d="M1.3,334.1c0-9,1.6-17,4.7-23.9s7.3-12.6,12.4-17.2c5.1-4.5,10.9-7.9,17.3-10.2c6.4-2.3,12.9-3.5,19.4-3.5
		c6.5,0,13,1.2,19.4,3.5c6.4,2.3,12.2,5.7,17.3,10.2c5.1,4.5,9.3,10.2,12.4,17.2s4.7,14.9,4.7,23.9v11.3H76.9v-11.3
		c0-7.8-2.2-13.5-6.5-17.2c-4.3-3.7-9.4-5.5-15.3-5.5c-5.9,0-11,1.8-15.3,5.5c-4.3,3.7-6.5,9.4-6.5,17.2v118.4
		c0,7.8,2.2,13.5,6.5,17.2c4.3,3.7,9.4,5.5,15.3,5.5c5.9,0,11-1.8,15.3-5.5c4.3-3.7,6.5-9.4,6.5-17.2v-42.2H51.4V382H109v70.5
		c0,9.2-1.6,17.3-4.7,24.1c-3.1,6.8-7.3,12.5-12.4,17c-5.1,4.5-10.9,7.9-17.3,10.2c-6.4,2.3-12.9,3.5-19.4,3.5
		c-6.5,0-13-1.2-19.4-3.5c-6.4-2.3-12.2-5.7-17.3-10.2c-5.1-4.5-9.3-10.2-12.4-17c-3.1-6.8-4.7-14.9-4.7-24.1V334.1z"/>
	<path fill="#93278F" d="M137.4,281.2H189c37.8,0,56.7,21.9,56.7,65.8c0,13-2,24.2-6.1,33.5c-4.1,9.3-11.3,16.8-21.6,22.5
		l34.6,102.4h-34l-29.9-95.7h-19.2v95.7h-32.1V281.2z M169.5,381.3h18.3c5.7,0,10.2-0.8,13.5-2.4c3.4-1.6,5.9-3.8,7.7-6.8
		c1.8-2.9,3-6.6,3.6-10.9c0.6-4.3,0.9-9.3,0.9-15c0-5.7-0.3-10.7-0.9-15c-0.6-4.3-1.9-8-3.9-11c-2-3-4.8-5.3-8.3-6.8
		c-3.6-1.5-8.3-2.2-14.2-2.2h-16.7V381.3z"/>
	<path fill="#93278F" d="M271.5,281.2h95.7v30.2h-63.6v65.8h55.4v30.2h-55.4v65.8h63.6v32.1h-95.7V281.2z"/>
	<path fill="#93278F" d="M423.6,281.2h26.8l50.1,224.2h-32.1l-9.4-48.2h-43.8l-9.4,48.2h-32.1L423.6,281.2z M437.2,345.7h-0.6
		L420.8,427h32.1L437.2,345.7z"/>
	<path fill="#93278F" d="M520,311.4h-37.2v-30.2h106.4v30.2h-37.2v194H520V311.4z"/>
</g>
<rect x="232.6" y="531.2" fill="none" width="1002.1" height="312.2"/>
<g enable-background="new    ">
	<path fill="#D4145A" d="M249.2,531.3h33.9l45.4,130.5h0.7l45-130.5h34.3v246.5h-35.3V627.9h-0.7l-35,105.9h-17.7l-34.6-105.9h-0.7
		v149.9h-35.3V531.3z"/>
	<path fill="#D4145A" d="M441.7,531.3H547v33.2H477v72.4H538v33.2H477v72.4H547v35.3H441.7V531.3z"/>
	<path fill="#D4145A" d="M569.8,531.3h105.2v33.2h-69.9v72.4h60.9v33.2h-60.9v72.4h69.9v35.3H569.8V531.3z"/>
	<path fill="#D4145A" d="M721.1,564.5h-40.9v-33.2h117v33.2h-40.9v213.3h-35.3V564.5z"/>
</g>
<g>
	<rect x="616.2" y="16.2" fill="none" width="189.7" height="498.9"/>
	<g enable-background="new    ">
		<path fill="#9E005D" d="M616.2,502.9V464c0-7.1,0.9-13.4,2.8-18.8c1.9-5.4,5.2-10.3,9.9-14.7c4.7-4.4,10.3-7.4,16.6-9.1
			c6.3-1.7,14.9-2.5,25.8-2.5c8,0,14.8,0.5,20.4,1.4c5.7,0.9,11,2.9,15.9,6c5.9,3.6,10.5,8.3,13.8,14.2c3.3,5.9,4.9,13.7,4.9,23.3
			V477h70.5v25.9H616.2z M702,477v-12.4c0-5.2-0.8-9.3-2.3-12.2c-1.5-2.9-3.6-5-6.2-6.3c-2.6-1.4-5.8-2.2-9.5-2.4
			c-3.7-0.3-7.9-0.4-12.4-0.4c-4.2,0-8.2,0.1-12.1,0.4c-3.8,0.3-7.1,1-9.9,2.3s-5,3.3-6.6,6c-1.6,2.7-2.4,6.6-2.4,11.7V477H702z"/>
		<path fill="#9E005D" d="M616.2,399.6v-25.9H771v-51.2h25.9v77.1H616.2z"/>
		<path fill="#9E005D" d="M616.2,277.1v-21.6l180.6-40.3V241l-38.8,7.6v35.3l38.8,7.6v25.9L616.2,277.1z M668.3,266.2v0.5l65.5,12.7
			v-25.9L668.3,266.2z"/>
		<path fill="#9E005D" d="M756.5,120.3c5.6,0,10.9,1.1,16,3.2c5.1,2.1,9.5,5,13.3,8.8c3.8,3.7,6.8,8.1,9.1,13.1
			c2.3,5,3.4,10.4,3.4,16.1c0,4.9-0.7,9.9-2,15c-1.4,5.1-3.7,9.6-7,13.7c-3.3,4.1-7.7,7.4-13.1,10c-5.4,2.6-12.3,3.9-20.5,3.9h-99.5
			c-5.9,0-11.4-1-16.5-3c-5.1-2-9.5-4.9-13.2-8.6c-3.7-3.7-6.6-8.2-8.8-13.3c-2.1-5.2-3.2-10.9-3.2-17.1c0-5.9,1.1-11.4,3.2-16.5
			c2.1-5.1,5.1-9.5,8.9-13.2c3.8-3.7,8.4-6.6,13.7-8.8c5.3-2.1,11.1-3.2,17.4-3.2H668v25.9h-8.6c-5.1,0-9.5,1.4-13.2,4.3
			c-3.7,2.9-5.6,6.8-5.6,11.7c0,6.4,2,10.7,6,12.8c4,2.1,9,3.2,15.1,3.2H754c5.2,0,9.6-1.1,13.2-3.4c3.6-2.3,5.3-6.4,5.3-12.3
			c0-1.7-0.3-3.5-0.9-5.5c-0.6-1.9-1.6-3.7-2.9-5.3c-1.4-1.6-3.2-2.9-5.6-3.9c-2.4-1-5.3-1.5-8.9-1.5h-8.9v-25.9H756.5z"/>
		<path fill="#9E005D" d="M616.2,99.2V22.1h24.4v51.2h53V28.7H718v44.7h53V22.1h25.9v77.1H616.2z"/>
	</g>
</g>
<rect x="474.9" y="231.8" fill="#9E005D" width="116.1" height="23.2"/>
<g>
	<rect x="8.2" y="532.3" fill="none" width="380.2" height="235.4"/>
	<g enable-background="new    ">
		<path fill="#9E005D" d="M39.7,558.6H7.3v-26.3H100v26.3H67.6v168.8h-28V558.6z"/>
		<path fill="#9E005D" d="M107.4,578.3c0-7.9,1.4-14.8,4.1-20.8c2.7-6,6.3-11,10.8-14.9c4.5-3.9,9.5-6.9,15.1-8.9
			c5.6-2,11.2-3,16.9-3c5.7,0,11.3,1,16.9,3c5.6,2,10.6,5,15.1,8.9c4.5,3.9,8.1,8.9,10.8,14.9c2.7,6,4.1,13,4.1,20.8v103.1
			c0,8-1.4,15-4.1,21c-2.7,5.9-6.4,10.9-10.8,14.8c-4.5,3.9-9.5,6.9-15.1,8.9c-5.6,2-11.2,3-16.9,3c-5.7,0-11.3-1-16.9-3
			c-5.6-2-10.6-5-15.1-8.9c-4.5-3.9-8.1-8.9-10.8-14.8c-2.7-5.9-4.1-12.9-4.1-21V578.3z M135.3,681.4c0,6.8,1.9,11.7,5.6,14.9
			c3.7,3.2,8.2,4.8,13.3,4.8c5.1,0,9.5-1.6,13.3-4.8c3.7-3.2,5.6-8.2,5.6-14.9V578.3c0-6.8-1.9-11.7-5.6-14.9
			c-3.7-3.2-8.2-4.8-13.3-4.8c-5.1,0-9.6,1.6-13.3,4.8c-3.7,3.2-5.6,8.2-5.6,14.9V681.4z"/>
	</g>
</g>
<rect x="3.1" y="754.9" fill="#9E005D" width="207.8" height="23.2"/>
</svg>
