<?xml version="1.0" encoding="utf-8"?>
<!-- Generator: Adobe Illustrator 18.1.1, SVG Export Plug-In . SVG Version: 6.00 Build 0)  -->
<svg version="1.1" id="Layer_1" xmlns="http://www.w3.org/2000/svg" xmlns:xlink="http://www.w3.org/1999/xlink" x="0px" y="0px"
	 viewBox="0 0 1530.6 1530.6" enable-background="new 0 0 1530.6 1530.6" xml:space="preserve">
<g opacity="0.8">
	
		<linearGradient id="SVGID_1_" gradientUnits="userSpaceOnUse" x1="77.168" y1="2371.0242" x2="1472.635" y2="4051.2803" gradientTransform="matrix(0.5586 0.5586 -0.7071 0.7071 2872.2085 -1820.4064)">
		<stop  offset="0" style="stop-color:#FFF1E0"/>
		<stop  offset="0.7421" style="stop-color:#C7B299"/>
	</linearGradient>
	<polygon opacity="0.9" fill="url(#SVGID_1_)" points="1481.7,789.5 741.1,48.9 790,0 1530.6,740.6 	"/>
	
		<linearGradient id="SVGID_2_" gradientUnits="userSpaceOnUse" x1="12.7801" y1="2424.4988" x2="1408.2471" y2="4104.7549" gradientTransform="matrix(0.5586 0.5586 -0.7071 0.7071 2872.2085 -1820.4064)">
		<stop  offset="0" style="stop-color:#FFF1E0"/>
		<stop  offset="0.7421" style="stop-color:#C7B299"/>
	</linearGradient>
	<polygon opacity="0.9" fill="url(#SVGID_2_)" points="1389,882.2 648.4,141.6 697.4,92.6 1438,833.2 	"/>
	
		<linearGradient id="SVGID_3_" gradientUnits="userSpaceOnUse" x1="-51.6079" y1="2477.9734" x2="1343.8591" y2="4158.2295" gradientTransform="matrix(0.5586 0.5586 -0.7071 0.7071 2872.2085 -1820.4064)">
		<stop  offset="0" style="stop-color:#FFF1E0"/>
		<stop  offset="0.7421" style="stop-color:#C7B299"/>
	</linearGradient>
	<polygon opacity="0.9" fill="url(#SVGID_3_)" points="1296.4,974.8 555.8,234.2 604.7,185.3 1345.3,925.9 	"/>
	
		<linearGradient id="SVGID_4_" gradientUnits="userSpaceOnUse" x1="-115.9958" y1="2531.4482" x2="1279.4713" y2="4211.7046" gradientTransform="matrix(0.5586 0.5586 -0.7071 0.7071 2872.2085 -1820.4064)">
		<stop  offset="0" style="stop-color:#FFF1E0"/>
		<stop  offset="0.7421" style="stop-color:#C7B299"/>
	</linearGradient>
	<polygon opacity="0.9" fill="url(#SVGID_4_)" points="1203.8,1067.4 463.2,326.8 512.1,277.9 1252.7,1018.5 	"/>
	
		<linearGradient id="SVGID_5_" gradientUnits="userSpaceOnUse" x1="-180.3837" y1="2584.9229" x2="1215.0834" y2="4265.1792" gradientTransform="matrix(0.5586 0.5586 -0.7071 0.7071 2872.2085 -1820.4064)">
		<stop  offset="0" style="stop-color:#FFF1E0"/>
		<stop  offset="0.7421" style="stop-color:#C7B299"/>
	</linearGradient>
	<polygon opacity="0.9" fill="url(#SVGID_5_)" points="1111.1,1160.1 370.5,419.5 419.5,370.5 1160.1,1111.1 	"/>
	
		<linearGradient id="SVGID_6_" gradientUnits="userSpaceOnUse" x1="-244.7716" y1="2638.3977" x2="1150.6954" y2="4318.6538" gradientTransform="matrix(0.5586 0.5586 -0.7071 0.7071 2872.2085 -1820.4064)">
		<stop  offset="0" style="stop-color:#FFF1E0"/>
		<stop  offset="0.7421" style="stop-color:#C7B299"/>
	</linearGradient>
	<polygon opacity="0.9" fill="url(#SVGID_6_)" points="1018.5,1252.7 277.9,512.1 326.8,463.2 1067.4,1203.8 	"/>
	
		<linearGradient id="SVGID_7_" gradientUnits="userSpaceOnUse" x1="-309.1595" y1="2691.8723" x2="1086.3075" y2="4372.1284" gradientTransform="matrix(0.5586 0.5586 -0.7071 0.7071 2872.2085 -1820.4064)">
		<stop  offset="0" style="stop-color:#FFF1E0"/>
		<stop  offset="0.7421" style="stop-color:#C7B299"/>
	</linearGradient>
	<polygon opacity="0.9" fill="url(#SVGID_7_)" points="925.9,1345.3 185.3,604.7 234.2,555.8 974.8,1296.4 	"/>
	
		<linearGradient id="SVGID_8_" gradientUnits="userSpaceOnUse" x1="-373.5475" y1="2745.3472" x2="1021.9196" y2="4425.6035" gradientTransform="matrix(0.5586 0.5586 -0.7071 0.7071 2872.2085 -1820.4064)">
		<stop  offset="0" style="stop-color:#FFF1E0"/>
		<stop  offset="0.7421" style="stop-color:#C7B299"/>
	</linearGradient>
	<polygon opacity="0.9" fill="url(#SVGID_8_)" points="833.2,1438 92.6,697.4 141.6,648.4 882.2,1389 	"/>
	
		<linearGradient id="SVGID_9_" gradientUnits="userSpaceOnUse" x1="-437.9354" y1="2798.8218" x2="957.5317" y2="4479.0781" gradientTransform="matrix(0.5586 0.5586 -0.7071 0.7071 2872.2085 -1820.4064)">
		<stop  offset="0" style="stop-color:#FFF1E0"/>
		<stop  offset="0.7421" style="stop-color:#C7B299"/>
	</linearGradient>
	<polygon opacity="0.9" fill="url(#SVGID_9_)" points="740.6,1530.6 0,790 48.9,741.1 789.5,1481.7 	"/>
</g>
</svg>
