<?xml version="1.0" encoding="utf-8"?>
<!-- Generator: Adobe Illustrator 18.1.1, SVG Export Plug-In . SVG Version: 6.00 Build 0)  -->
<svg version="1.1" id="Layer_1" xmlns="http://www.w3.org/2000/svg" xmlns:xlink="http://www.w3.org/1999/xlink" x="0px" y="0px"
	 viewBox="0 0 509.9 711.4" enable-background="new 0 0 509.9 711.4" xml:space="preserve">
<g>
	<path fill="#E6E6E6" d="M386.4,535.1c11.2,1,20.5,1.9,29.8,2.7c-0.1,0.8-0.1,1.5-0.2,2.3c-9.6,0-19.3,0-28.9,0
		c0,0.6-0.1,1.2-0.1,1.8c21.9,2.1,43.9,4.3,65.8,6.4c-0.1,1-0.1,2-0.2,3c-22.4-1.5-44.9-3-67.3-4.5c-0.1,1.4-0.2,2.7-0.2,4.1
		c35.8,3,71.6,6.1,107.4,9.1c0.1,0.8,0.1,1.5,0.2,2.3c-4.5,0.3-9.1,1.2-13.6,0.9c-28.3-2-56.6-4.3-84.9-6.3
		c-4.2-0.3-8.5,1.1-12.7,1.7c0.1,1.1,0.2,2.2,0.3,3.3c38.6,4.1,77.2,8.2,115.8,12.3c0,0.9,0,1.9,0,2.8c-3.2,0-6.4,0.2-9.5,0
		c-33.6-3-67.1-6.3-100.7-9.1c-3.9-0.3-8,2.4-12,3.7c0.2,1.1,0.5,2.3,0.7,3.4c40.1,4.9,80.1,9.7,120.2,14.6
		c-0.2,1.5-0.4,2.9-0.5,4.4c-7.3-1.1-14.6-2.3-22-3.1c-31.4-3.5-62.7-7.1-94.2-10.2c-3.9-0.4-8,1.8-12,2.7c0.3,1.2,0.5,2.5,0.8,3.7
		c47.2,5.7,94.4,11.4,141.6,17.1c-0.1,0.9-0.1,1.8-0.2,2.7c-8.5-0.5-17.1-0.8-25.6-1.7c-36-4-72-8.3-108-12.1
		c-8.5-0.9-8.6-0.3-10.6,7.4c46,5.1,91.9,10.1,137.9,15.2c-0.2,1.4-0.3,2.8-0.5,4.2c-10.7-1.5-21.5-3.2-32.2-4.3
		c-33.6-3.4-67.2-6.4-100.7-9.7c-6.1-0.6-9.7,0.9-9.6,7c41.2,5.4,82.2,10.7,123.2,16c0,1,0,1.9-0.1,2.8c-2,0.1-4,0.6-5.9,0.4
		c-29.2-3.9-58.4-7.9-87.6-11.7c-8.8-1.1-17.7-1.8-26.6-1.7c-3.2,0-6.5,2.6-9.3,5.3c34.2,7.9,69.3,4.1,102.5,14.9
		c-36.1-4.7-72.2-6.7-108.3-6.9c-0.2,1.4-0.3,2.9-0.5,4.3c32.7,5.4,65.5,10.7,98.2,16.1c-0.1,1-0.2,2-0.2,2.9
		c-4.8-0.4-9.6-0.5-14.4-1.2c-26.7-3.9-53.3-8-80-11.8c-3.2-0.5-6.6,0.8-10,1.3c0,1.2,0,2.4,0,3.6c25.3,3.3,50.6,6.5,75.9,9.8
		c-0.1,1.1-0.2,2.2-0.3,3.3c-27.1-2.9-54.3-5.8-81.4-8.7c-0.2,1.5-0.3,3.1-0.5,4.6c22.7,2.4,45.4,4.8,68.1,7.1
		c-27.2,5.1-54.3-5.6-81.4-0.8c0,1-0.1,2.1-0.1,3.1c22.3,2.2,44.6,4.3,66.9,6.5c-0.1,0.9-0.1,1.8-0.2,2.7
		c-27.2,1.5-54.4-7.5-81.5-2.4c-0.1,0.9-0.1,1.9-0.2,2.8c19.1,2,38.2,4,57.3,6c0,0.9-0.1,1.8-0.1,2.7c-25.5-1.5-51.1-2.9-76.6-4.4
		c-0.1,1.1-0.1,2.2-0.2,3.3c18.1,1.3,36.2,2.6,54.3,3.9c-0.1,1.2-0.1,2.3-0.2,3.5c-31.3-1.5-62.6-2.9-93.9-4.4
		c0,0.7-0.1,1.5-0.1,2.2c24.4,3.7,48.8,7.4,73.2,11.2c-0.2,1.3-0.4,2.6-0.6,4c-60.7-8.4-121.5-16.8-184-25.5
		c2.7-3.4,3.9-4.8,4.7-5.9c-9.7-6.9-20-13-28.7-20.9c-5.5-5-9.2-12.5-12.3-19.5c-9.9-22.6-20.2-45.2-28.4-68.5
		c-5.7-16.3-8.4-33.6-12.4-50.5C43.3,445.9,27.4,378.9,11.8,312C7.8,294.4,6.7,277,17,260.5c2-3.2,0.6-8.7,0.2-13
		c-1.3-15.5-2.8-30.9-4.4-46.4c-0.3-2.7-1.3-5.4-2.6-7.8c-18.3-33.6-12-61.9,18.6-84.4c2.6-1.9,4.6-5.4,5.7-8.5
		C47.7,63.1,73.8,39.2,111,27.8c21-6.4,42.5-11.5,64.1-15.4c27.9-5,56.1-8.8,84.2-11.8c38.2-4.1,71.5,12.3,104.2,28.5
		c22.9,11.4,43,27.5,57.4,49.4c8.7,13.2,17.5,26.4,25.1,40.2c8.7,15.8,7.8,32.5,2.7,49.6c-3.5,11.6-5.2,23.8-7.9,35.8
		c-2.2,9.7-5.2,19.2-6.8,29c-2.4,15.1-8.6,28.9-1.1,46c5,11.4,0.4,27.9-2.4,41.7c-11.1,56-23.2,111.8-34.8,167.7
		C392.6,503.7,389.7,518.9,386.4,535.1z M394.2,248.6c0.1-1.5-0.3-3.9,0.5-4.4c11.6-7.6,17.3-18.1,16.6-34.6
		c-4.2,7.9-7.4,13.9-10.6,19.9c-0.8-0.4-1.5-0.9-2.3-1.3c1.1-3,2.3-6.1,3.5-9.3c-13.6,0.2-2.6,12.8-9.1,16.6
		c-1.5-3.3-2.9-6.2-5.4-11.8c-1.3,7.5-2,11.9-2.8,16.3c-0.7,0-1.4-0.1-2-0.1c-1-3.2-2-6.3-3-9.5c-0.6,0.1-1.2,0.1-1.8,0.2
		c-0.7,4.6-1.4,9.1-2.1,13.7c-0.8-0.1-1.5-0.2-2.3-0.3c-0.7-3.1-1.4-6.3-2.1-9.4c-0.6,0-1.2,0-1.8-0.1c-1,4.4-1.9,8.8-2.9,13.2
		c-0.6-0.1-1.2-0.2-1.9-0.4c-0.7-3.2-1.3-6.4-2-9.6c-1.1-0.2-2.3-0.4-3.4-0.5c-1.7,5.5-3.4,10.9-5,16.4c-0.5,0-1.1-0.1-1.6-0.1
		c-0.5-3.8-1-7.6-1.5-11.4c-0.8-0.1-1.6-0.2-2.4-0.3c-0.8,5.2-1.6,10.4-2.3,15.6c-0.6,0-1.2,0-1.8-0.1c-0.7-3.8-1.4-7.6-2.7-14.4
		c-1.6,6.4-2.4,10-3.9,16.2c-2-5.8-3-8.5-3.9-11.3c-0.9,0-1.8-0.1-2.7-0.1c-1,4.5-1.9,9-2.9,13.5c-0.5,0-1.1,0-1.6,0
		c-0.9-3.3-1.9-6.6-3.7-13.1c-2.5,7.8-4,12.6-5.5,17.4c-0.6-0.2-1.3-0.3-1.9-0.5c0-3.5,0-7,0-10.5c-0.8-0.4-1.7-0.8-2.5-1.2
		c-2.3,3.9-4.6,7.9-8.1,13.8c-0.6-5.1-1-7.8-1.3-10.4c-0.6,0-1.2-0.1-1.7-0.1c-1.5,4-3,8-4.5,12c-0.6-0.2-1.2-0.4-1.8-0.5
		c-0.3-2.7-0.6-5.4-1-9.6c-2,4.5-3.2,7.4-5.4,12.3c-1.5-5.1-2.3-7.7-3.9-13.1c-2.1,6.2-3.3,9.7-5.2,15.2c-1.6-4.9-2.6-7.7-4.4-13.1
		c-2.2,6.8-3.4,10.8-5.6,17.6c-1.2-6.3-1.8-9.5-3-15.6c-2.7,6.6-4.4,10.5-6,14.5c-0.7-0.2-1.3-0.3-2-0.5c0-3,0-5.9,0-8.9
		c-0.5-0.1-1-0.2-1.5-0.3c-1.4,2.9-2.7,5.8-4.4,9.4c-1-1.6-1.6-2.3-2.1-3.2c-1-1.9-1.9-3.8-2.8-5.7c-1.2,2-2.6,3.9-3.5,6
		c-1.1,2.6-1.8,5.3-2.7,8c-0.7-0.2-1.4-0.3-2.1-0.5c0.2-4,0.4-7.9,0.6-11.9c-1-0.5-2-1.1-3-1.6c-2.8,3.7-5.6,7.4-8.4,11.2
		c-0.9-2.5-2.1-5.8-3.9-10.9c-2.1,5.3-3.5,8.8-5.8,14.5c-0.8-4.7-1.1-6.9-1.6-10.1c-1.7,3.5-3.1,6-5.8,11.4
		c-0.4-6.3-0.6-9.3-0.8-12.4c-0.8-0.3-1.5-0.6-2.3-0.9c-1.8,2.9-3.6,5.7-5.7,9.1c-1.3-3.3-2.2-5.6-4.2-10.7c-3,5.9-4.8,9.5-7.3,14.6
		c-0.8-5-1.2-8.3-2.1-14c-3.2,5-4.9,7.9-7.1,11.3c-1.4-3.2-2.4-5.4-4-9c-1.9,3.8-3,6-4.9,9.9c-1.4-4.2-2.2-6.5-3.4-10.2
		c-2.4,3.3-4,5.6-5.9,8.3c-1.1-3.4-1.9-5.8-3.1-9.3c-2.2,3.2-3.7,5.3-5.7,8.2c-1.1-3.3-1.7-5.4-2.7-8.4c-1.9,3-3.2,5.1-5,8
		c-1.4-3.9-2.3-6.5-3.8-10.9c-1.9,4.1-2.9,6.4-4.5,9.8c-1.7-4.2-2.8-6.9-3.8-9.7c-2.3,1.4-4.6,2.9-6.9,4.3c-1.2-2.6-2.4-5.3-4-8.9
		c-2,4.1-3.4,6.8-5.3,10.8c-1-4.8-1.6-7.8-2.7-12.8c-2.3,4.6-3.4,6.9-5,10.2c-1.7-5-3-8.4-5.3-14.9c-2.3,5.9-3.4,8.4-5.2,13
		c-1.4-5.2-2.3-8.3-3.3-12c-1.9,2.6-3.2,4.3-4.8,6.4c-1.4-3.9-2.5-6.8-4.4-11.9c-2,4.6-2.9,6.7-4.7,10.9c-1.5-6-2.5-9.8-3.9-15.4
		c-2.4,4.2-3.5,6.3-5.8,10.4c-0.5-4.2-0.6-5.9-1-7.6c-0.4-1.5-1.2-3-2-4.8c-1.8,2-3,3.5-4.7,5.5c-2.9-12.3-3.3-12.5-11-7
		c-0.6-2.8-1.2-5.3-1.8-8.1c-2,1.4-3.6,2.6-5.8,4.2c-0.7-4.5-1.2-7.6-1.9-12.1c-2.5,2.7-3.9,4.3-6.3,6.9c-0.5-4.3-0.8-7.2-1.1-9.6
		c-2,1-5.2,2.9-5.4,2.6c-3-4-5.5-8.3-8.3-12.7c-0.4,1.5-1.1,4.1-1.8,6.6c-2.2-2.7-2.1-5.3-2.3-7.8c-0.2-2.4-0.8-4.9-1.2-7.3
		c-2.5,2.3-3,4.4-2.6,6.3c2.9,17.1,8,34.1,8.4,51.3C26,282,37,290.3,49.6,299.3c25.5,18.3,55.1,27.4,84.5,36.2
		c29,8.7,59.3,8.9,89.4,8.8c13.4,0,27.1-0.7,40.3-2.9c23.3-4,46.8-7.7,69.3-14.6c25.3-7.7,49.6-18.6,74.1-28.5c3-1.2,5.2-4.6,7.8-7
		c-23.7,14-30,16.7-35,14.3c12.8-8.4,26.2-17.2,39.6-26c-0.7-1.2-1.4-2.3-2.1-3.5c-10.9,8.3-21.8,16.7-35.9,18.4
		c14.7-9.2,31.6-15.1,40.2-33.2c-11.9,7.6-22.8,14.6-33.7,21.5c-0.6-0.9-1.2-1.8-1.7-2.7c12.9-11.8,33.1-16,40.2-36.2
		c-11.8,9.5-22.4,18-32.9,26.5c-1-1.1-2.1-2.3-3.1-3.4c16.6-11.4,32.4-23.5,37.5-36c-7.4,6.5-19.3,17.2-33.2,29.6
		C394.4,254,394.2,251.2,394.2,248.6C405,247.5,419,233.9,423,220c-4.5,5.4-8.3,10.8-12.9,15.4C405.2,240.2,399.5,244.2,394.2,248.6
		z M391.5,367.5l-0.3-0.3c-1.3,5.8-1.5,12.1-4.1,17.3c-15.8,31.3-31.2,62.8-48.6,93.2c-26.8,47-57.1,91.5-99,126.9
		c-9.1,7.7-18,15.7-27,23.6c0.4,0.8,0.9,1.7,1.3,2.5c4-1.8,9.1-2.6,12-5.6c29.4-29.7,60.2-58.3,87.1-90.1
		c25.6-30.3,43.6-66.2,61-102c19.3-39.6,39.7-78.5,45.3-123c0.2-1.4,0.5-2.8,0.8-4.2c1.7,1.2,3.4,2.3,5.1,3.5
		c-16.2,80.6-58.4,149.8-99.1,219.9c5.8-6.1,10.8-12.6,15.5-19.4c28.7-41.3,52.9-85.1,68.4-132.9c8.9-27.5,13.6-56.4,19.5-84.8
		c1.1-5.4-1.1-11.5-1.7-17.1c-4,8.5-6.6,16.4-11.2,22.8c-2.8,4-8.5,6.2-13.2,8.6c-27.9,14.3-58,22-88.4,28.2
		c-12.1,2.5-24.6,3.4-36.3,6.8c-28.7,8.4-58,7.4-87.3,6.1c-31.3-1.4-61.1-9.9-91-19.3c-22.1-6.9-42-16.8-60.5-30.2
		c-10.2-7.4-20.1-15.3-21.9-29.8c-2.2,11.5-4.8,23.4-2.6,34.3c5.8,29.2,13.9,57.9,20.6,87c10.7,46.3,20.8,92.7,31.4,138.9
		c3.5,15.4,5.5,31.1,16,44.5c16,20.5,37.2,32.2,60.5,41.8c11.7,4.9,21.9,3.8,32-3c39.1-26,74.3-56.6,101.9-94.4
		c26.9-36.8,50.9-75.9,75-114.8c8.8-14.3,14.3-30.6,20.8-46.2c3-7.1,5-14.6,7.4-21.9c1.3,0.6,2.6,1.2,3.9,1.8
		c-18.2,58.3-50.6,109.2-84.9,159.1c-34.8,50.7-78.4,92.7-130.7,126.2c9.6,4.7,16.7,2.4,23.9-2.7c31.6-22.3,58.6-49.4,82.9-79.1
		c25.4-31,47.8-64.2,67.6-99.2C363.8,405,383,369.3,392,329.1c0.3-1.5,2.2-2.7,3.3-4.1c0.9,0.5,1.7,1,2.6,1.5
		c-14.9,60.4-46.3,113.2-80,164.5c-34,51.9-74.5,98.4-126.9,135.3c14.1,4.4,20.8-4.3,28.2-10.4c35.1-28.7,66.6-60.9,90.1-100
		c21.5-35.8,42-72.3,62.5-108.7C378.9,394.3,384.9,380.7,391.5,367.5z M415.9,203.3c9.6-9.1,14.2-19.9,16.1-31.9
		c1.8-11.6,2.9-23.4,4.4-35.1c1.1,0.1,2.3,0.2,3.4,0.3c-0.8,7.3-1.4,14.6-2.3,21.9c-1,7.9-2.2,15.7-3.4,24.7c14-16,12.9-61-1.2-69.9
		c0.7,23.3-14.1,37.3-31.3,47.4c-17.5,10.3-36.7,18.3-56,24.7c-50.2,16.8-102.4,18-154.7,17.9c-42.5-0.1-83.5-7.7-121-28.2
		c-22.1-12.1-44.3-26.1-44-56.7C9.4,130.8-0.2,160.9,8.7,177.6c6.2,11.7,14.1,23.2,23.6,32.4c39.5,38,88.9,54.7,142.2,56.6
		c57.8,2.1,114.6-7.5,169.4-27.1c7.8-2.8,17-5.4,22.2-11.1c9.6-10.7,17.1-23.3,24.7-35.7c4-6.7,6.2-14.4,9.3-21.7
		c1.2,0.4,2.3,0.9,3.5,1.3c-3.8,9-7,18.4-11.5,27c-4.8,9-10.9,17.3-16.5,25.9c1,0.6,2,1.2,3.1,1.8c19-18.6,29.5-42,35.6-68
		c2,21-11.4,37.1-17,55.6c18.8-18.1,25.5-41.4,28.2-66.7c1.4,1.3,2.4,2.6,2.1,3.7C423.8,168.3,420,185.1,415.9,203.3z M223.6,152.2
		c16.8-1.4,47.1-2.7,77-6.6c21.6-2.8,44-6.2,64-14.4c41-16.7,50.7-48.6,17.5-84.5c-5.1-5.5-12.1-10-19.1-13.1
		C327.7,18.2,293.2-1,252.5,5.1c-36.5,5.4-73.1,10.4-109.3,17.4c-26.9,5.2-52.3,14.7-74.1,32.9c-22,18.4-23.2,42.3-0.6,60
		c7.7,6.1,16.5,11,25.4,15.2C130.7,147.9,170.1,152.1,223.6,152.2z M45.1,90.4c-3.7,9-7.3,18.1-11.3,26.9
		c-4.3,9.6-2.8,18.7,4.4,25.5c10.7,10.1,21.5,21,34.3,28c35.5,19.5,74.4,27.3,114.7,27.7c47.3,0.5,94.3-2.1,140.8-11.9
		c16.8-3.5,26.6-12.1,31.2-27.7c2-6.8,3.5-13.8,5.2-20.6c-1.1-0.5-2.3-0.9-3.4-1.4c-7,14.4-14.1,28.7-21.1,43.1c-1-0.5-2-1-2.9-1.5
		c5.7-11.7,11.3-23.4,17.1-35.4c-2.4-0.8-3.1-1.2-3.7-1.1c-62.3,12.8-125.1,17.8-188.4,11.7c-28.1-2.7-55.1-10.3-80.1-23.9
		C65.8,121.1,50.8,110.7,45.1,90.4z M260.2,642.5c-0.9-4.2-1.5-6.8-2.4-10.9c-3.3,3.8-5.4,6.2-7.7,8.9c-7.5-12.4-8.7-0.7-12.4,4.2
		c-1.4-4-2.4-6.5-4.1-11.4c-2.7,4.5-4.2,7-6.4,10.6c-2.6-9.6-6-12.2-10.7,0.3c-2.6-10.3-6.1-13.7-11.4-4.1c-2.1-2.5-4.1-5-6.5-8
		c-2.4,3.2-4.1,5.4-6.5,8.4c-1.4-4.8-0.2-13.9-7.8-3.9c-2.4-4.8-4.7-11.5-10.4-2.1c-2.4-5.4-5.1-9.5-9.5-2.6
		c-2.3-3.1-4.2-5.4-6.5-8.4c-2,2.4-3.4,4.1-3.3,3.9c-13.4-6.2-25.7-12-38.1-17.8c-0.6,1-1.5,2.5-2.8,4.6c-2.2-4.8-4-8.7-6.8-14.7
		c-1.1,4.9-1.5,7.1-1.9,9c-3.2-5.7-6.5-11.3-9.7-16.9c-1,0.5-2,1-2.9,1.5c3.2,9.3,7.2,18.4,9.3,27.9c3.8,18.2,15,30,30.2,39.1
		c19,11.3,39.8,16.4,61.4,19.7c34.5,5.3,68.7,5,101.8-7.4c9.6-3.6,18.3-9.7,27.4-14.6c-0.4-0.9-0.9-1.7-1.3-2.6
		c-6.9,2.9-13.8,5.8-20.6,8.7c-0.4-1-0.9-1.9-1.3-2.9c10.6-6,21.2-12.1,31.8-18.1c-0.6-0.9-1.1-1.8-1.7-2.7
		c-5.1,2.9-10.2,5.9-15.2,8.8c-0.9-1.2-1.8-2.3-2.8-3.5c19-9.4,35.1-21.7,44.2-40.6c-11.5,10.7-23,21.5-34.5,32.2
		c-0.9-0.8-1.7-1.7-2.6-2.5c11.2-11.2,22.5-22.5,33.7-33.7c-1.5-1.4-3.1-2.8-4.6-4.3c-9.9,11.2-19.7,22.3-29.6,33.5
		c-0.9-0.7-1.7-1.4-2.6-2.1c4.6-5.6,9.2-11.2,13.8-16.7c-1.2-0.9-2.3-1.8-3.5-2.7c-6,7.3-12,14.6-18,22c-0.6-0.5-1.2-0.9-1.8-1.4
		c1.5-3.2,3.1-6.4,4.6-9.6c-0.8-0.7-1.7-1.4-2.5-2.1c-4.6,5.5-9.2,11-13.9,16.4c-0.7-0.4-1.3-0.8-2-1.2c1.4-3.1,2.8-6.1,4.2-9.2
		c-1-0.7-2-1.3-2.9-2c-3.7,4.8-7.4,9.6-12.5,16.2c0.7-5,1.1-7.6,1.5-10.1c-0.8-0.5-1.6-1.1-2.5-1.6c-3.1,3.6-6.3,7.2-9.6,11
		c-0.8-2.3-1.5-4.4-2.9-8.3C264.9,634,262.9,637.5,260.2,642.5z M406.1,406.5c-14.4,26.2-27.9,54-44.3,79.9
		c-16.3,25.7-34.8,50.1-53.9,73.8c-19.1,23.7-40.2,45.7-61,69C285.5,624.2,402.5,454.9,406.1,406.5z M399.4,444.1
		c-33.4,66.5-75.8,126.8-128.4,180.3c4.6-1.3,9-2.9,11.9-5.9c22.7-23.9,46.7-46.8,67.4-72.4C374.3,516.3,394,483.6,399.4,444.1z
		 M291.9,618.1c26.8-6.2,91.9-88.9,96.5-123.9C364.7,543.9,327.6,580,291.9,618.1z M321.9,605.9c23.3-10.9,60.2-54.7,57.9-71.8
		C361.1,557.4,342,581.1,321.9,605.9z M231.7,629.1c10.3,1.3,54.3-42.4,65.1-63.9C276.6,585.2,254.1,607.2,231.7,629.1z M398,115.4
		c-1.3-0.3-2.6-0.6-3.8-0.9c-2.9,16.3-5.9,32.5-8.9,49.3C396.3,159.2,403,132.4,398,115.4z M375.3,134.2c-1.4-0.6-2.7-1.2-4.1-1.8
		c-2.2,6.9-4.4,13.9-6.7,20.8c-2.5,7.4-5,14.7-7.6,22.1c1,0.4,2.1,0.7,3.1,1.1C372.9,165.5,374.2,149.9,375.3,134.2z M370,171.4
		c12-6.3,18.5-27.9,14.6-45.7C376,139.1,378.9,155.9,370,171.4z M410.5,102.5c0,13,0,27.8,0,43.9C421.9,136,420.9,118.7,410.5,102.5
		z M410.1,87c4.8,13.8,9.6,27.6,14.5,41.8C434.4,109.7,418.6,99.6,410.1,87z M404.3,105.7c-1.1,16.5-2.2,32.7-3.3,49.2
		C407.9,146.2,409.5,120.1,404.3,105.7z"/>
	<path fill="#E6E6E6" d="M187.7,689.8c35.1,5.8,70.1,11.7,105.2,17.5c-0.2,1.3-0.4,2.7-0.6,4c-35-5.7-70-11.4-105-17.2
		C187.4,692.7,187.5,691.3,187.7,689.8z"/>
	<path fill="#E6E6E6" d="M394.2,248.6c5.3-4.4,11-8.4,15.9-13.3c4.6-4.5,8.4-9.9,12.9-15.4C419,233.9,405,247.5,394.2,248.6
		C394.1,248.5,394.2,248.6,394.2,248.6z"/>
	<path fill="#E6E6E6" d="M150.7,613.5C256.6,549.4,321.3,452.7,368.9,342c-11.6,42.2-33.6,79.4-56.6,116
		C271.3,523.2,219.4,577.2,150.7,613.5z"/>
	<path fill="#E6E6E6" d="M144.9,600.8c99.1-61.5,159.6-151.4,204.5-252C338.5,420.7,197.5,597.2,144.9,600.8z"/>
	<path fill="#E6E6E6" d="M143,586.5c87.9-59.7,147.6-138.6,188.8-235C326.6,411.1,192.5,578.9,143,586.5z"/>
	<path fill="#E6E6E6" d="M320.2,352.3c-14.7,43-39.4,80.9-65,118c-29.1,42.1-70.8,70.8-112.3,99.4c35.7-31,76.2-56.9,104.4-96
		C275,435.4,299.5,395,320.2,352.3z"/>
	<path fill="#E6E6E6" d="M133.5,556.4c36.4-28.6,73.2-52.9,100.7-87.8c27.1-34.4,50.6-71,68.5-112.7
		C307.6,396.8,180.4,548.4,133.5,556.4z"/>
	<path fill="#E6E6E6" d="M291.4,357.8C292.8,396,190,512,135.4,538C200.8,489.5,256.3,432.6,291.4,357.8z"/>
	<path fill="#E6E6E6" d="M125.8,506.8c32.8-16.1,57-42.3,82.2-67.3c24.9-24.7,51.4-48.5,60.5-85c1.5,0.8,3,1.6,4.5,2.4
		c-4.9,10.3-8.2,21.8-15,30.7c-14.3,18.7-29.6,37-46.2,53.7c-23.6,23.9-46.8,48.5-76.7,65.1c-2.3,1.3-4.6,2.5-6.9,3.7
		C127.5,509.1,126.6,507.9,125.8,506.8z"/>
	<path fill="#E6E6E6" d="M279.1,362.5c-1.1,3.9-2.1,7.9-3.5,11.8c-11.4,31.3-35,53.8-56.8,77.4c-23.6,25.7-49.8,48.5-80,66.4
		c-2.2,1.3-4.6,2.1-7.8,1.7c31-20,59-43.1,84-70.1c24.7-26.6,50-52.6,60.6-89.1C276.9,361.3,278,361.9,279.1,362.5z"/>
	<path fill="#E6E6E6" d="M257.7,359.7c-12.2,34.9-105.7,129.3-133.8,133.7C174.7,453.5,225.1,415.4,257.7,359.7z"/>
	<path fill="#E6E6E6" d="M239.7,360.6c-27.6,50.4-73.5,84.2-114.6,122.5c-0.9-0.7-1.8-1.5-2.7-2.2c1.4-1.9,2.4-4.1,4.1-5.7
		c28.5-26.4,57.6-52.3,85.4-79.4C222.6,385.4,230.6,372.4,239.7,360.6z"/>
	<path fill="#E6E6E6" d="M119.2,462.9c36.4-27.3,73.9-53.4,93.3-96.8c0.8,0.3,1.7,0.6,2.5,0.9c-0.6,2.5-0.4,5.5-1.8,7.4
		c-11.7,15.4-22.4,31.9-36,45.4c-16.9,16.9-36.3,31.2-54.7,46.7C121.4,465.2,120.3,464,119.2,462.9z"/>
	<path fill="#E6E6E6" d="M114,446.8c33.6-21.5,61.8-48.9,87.8-78.4C194.3,388.3,134,443.3,114,446.8z"/>
	<path fill="#E6E6E6" d="M190.6,363.8c-16.1,34-47,51.4-74.1,72.6c-0.8-0.9-1.6-1.7-2.3-2.6c13.5-10.5,27.7-20.2,40.3-31.7
		C167.2,390.5,178.2,377.1,190.6,363.8z"/>
	<path fill="#E6E6E6" d="M113.1,421.6c21.7-18.8,45.9-34.8,60.4-62.9C173.5,374.3,129.9,419,113.1,421.6z"/>
	<path fill="#E6E6E6" d="M391.5,367.5c4.9-15.9,9.8-31.9,14.6-47.8c4.7,8.7-3.9,36.1-14.9,47.5C391.2,367.2,391.5,367.5,391.5,367.5
		z"/>
	<path fill="#E6E6E6" d="M154.4,374.1c-13.1,12.2-26.2,24.4-39.3,36.6c-0.9-1-1.8-1.9-2.7-2.9c13.3-12,26.6-24,39.9-36
		C153,372.6,153.7,373.4,154.4,374.1z"/>
	<path fill="#E6E6E6" d="M109,391.3c14.2-10.2,28.3-20.4,40.6-29.2C147.2,369,124.3,387.5,109,391.3z"/>
	<path fill="#E6E6E6" d="M144.3,357.4c-10.7,7.4-21.5,14.8-32.2,22.2c-0.6-0.9-1.2-1.7-1.8-2.6c10.7-7.5,21.4-14.9,32.1-22.4
		C143,355.5,143.7,356.4,144.3,357.4z"/>
	<path fill="#E6E6E6" d="M393.8,179.3c-10.1,15.4-20.3,30.9-30.4,46.3c-1-0.7-2.1-1.3-3.1-2c10.2-15.4,20.5-30.9,30.7-46.3
		C391.9,178,392.9,178.6,393.8,179.3z"/>
	<path fill="#E6E6E6" d="M354.4,218.5c6.9-11.2,13.8-22.5,20.7-33.7C373.6,199.4,364.3,209.4,354.4,218.5z"/>
	<path fill="#E6E6E6" d="M216.4,123.8c-20.5,1-45.9-1.5-69.4-13c-12.3-6-23.8-13.8-34.8-22.1c-8-6-8.6-16.1-0.7-22
		c14.6-10.8,29.7-22.2,46.3-28.9c30.5-12.3,62.4-23.4,95.6-22c26.6,1.1,53.8,5.5,79.2,13.3c18.6,5.7,34.6,22.4,31.7,42.7
		c-2.8,19.3-15.9,29-32,34.6C296.7,118.9,259.6,124.4,216.4,123.8z M331.5,70.9c3.1-2.2,5.6-3.9,8.8-6.1c5.8,4.8,11.6,9.7,17.4,14.5
		c0.9-0.9,1.8-1.9,2.7-2.8c-6.4-5.7-12.8-11.4-19.2-17.1c0.4-0.6,0.8-1.3,1.2-1.9c5.5,2.9,10.9,5.9,16.4,8.8c0.7-1,1.3-2,2-3
		c-6.2-4.2-12.4-8.3-18.6-12.5c0.3-0.6,0.6-1.2,0.9-1.8c3,0.6,6.1,1.3,9.1,1.9c-7.8-5.2-16.8-8.2-21.2-17.5
		c-0.8-1.7-5.1-1.9-7.8-2.7c-4.4-1.2-8.9-2.5-13.4-3.4c-23-4.2-46.1-10.7-69.5-5.6c-28.3,6.2-56.8,12.5-84.1,21.9
		c-14.2,4.9-26.5,15.9-39,25.1c-7,5.1-6.8,12,0.2,17.9c21.8,18.4,47,28.4,75.3,31.4c8.4,0.9,13.3-2.3,17.1-9.2
		c2.1-3.9,4.8-7.5,7.2-11.2c0.7,0.5,1.5,1,2.2,1.5c-3.1,6-6.2,11.9-9.7,18.8c14.9,1.1,12.2-14,22.2-20.8c-3.4,9.1-5.7,15.3-8,21.5
		c0.9,0.4,1.8,0.8,2.7,1.2c2.1-4,4.4-7.9,6.3-12.1c1.9-4.3,3.3-8.8,4.9-13.1c0.9,0.3,1.8,0.6,2.7,0.9c-1.9,7.2-3.8,14.4-5.7,21.6
		c11.7-3.8,11-14.6,13-23.8c1,0.2,2.1,0.4,3.1,0.6c-1.2,7.9-2.4,15.9-3.7,23.8c1.3,0.4,2.5,0.8,3.8,1.2c3.3-9.3,6.7-18.6,10-27.9
		c0.6,0.1,1.1,0.2,1.7,0.3c-1.4,8.4-2.9,16.9-4.6,27.1c15.4-4.7,11-18.5,14.2-28c0.9,0.1,1.7,0.2,2.6,0.3c-0.4,8-0.9,16-1.4,25.8
		c16.3-7.2,7-21.2,12.7-31.2c0.6,9,1.1,18.1,1.7,27.3c9.7-0.4,6.5-7.6,6.4-12.5c-0.1-5.4-1.4-10.7-2.2-16.1c1.2-0.1,2.4-0.3,3.6-0.4
		c0.8,4.4,1.5,8.8,2.3,13.2c0.8,4.3,1.7,8.7,2.6,13c1.4-0.2,2.9-0.4,4.3-0.7c-0.8-9.1-1.5-18.2-2.3-27.3c0.8-0.2,1.7-0.4,2.5-0.6
		c1.9,8.5,3.8,16.9,5.7,25.6c10.1-0.1,8.8-6.1,7.1-12.2c-1.6-5.9-3.2-11.8-4.8-17.6c1-0.3,2-0.6,3-0.9c3,8.7,5.9,17.4,9.2,27.1
		c2.4-1,5-2.1,8.1-3.4c-4-9.5-7.6-18-11.1-26.6c0.9-0.5,1.8-0.9,2.7-1.4c4.3,8.7,8.6,17.4,13.2,26.7c2.7-1.5,5.4-2.9,8.6-4.7
		c-1.5-3-2.6-5.5-4.1-7.8C339.1,81.1,335.5,76.3,331.5,70.9z"/>
	<path fill="#E6E6E6" d="M119.9,127.9c-20.9-6.7-38.8-14.8-50.6-32c-1.6-2.3,0.1-8.9,2.4-11.4c3.9-4.2,8.8-5.5,14.8-0.7
		c11.7,9.4,24.5,17.6,36.7,26.5c3.1,2.3,5.4,5.6,8,8.5C127.3,121.9,123.5,125.1,119.9,127.9z M103.2,107.1
		c-22-22.6-22.6-22.9-28.6-18.4C83.9,94.7,93.5,100.9,103.2,107.1z"/>
	<path fill="#E6E6E6" d="M103.2,107.1c-9.6-6.2-19.2-12.4-28.6-18.4C80.6,84.2,81.1,84.5,103.2,107.1z"/>
</g>
</svg>
