<?xml version="1.0" encoding="utf-8"?>
<!-- Generator: Adobe Illustrator 18.1.1, SVG Export Plug-In . SVG Version: 6.00 Build 0)  -->
<svg version="1.1" id="Layer_1" xmlns="http://www.w3.org/2000/svg" xmlns:xlink="http://www.w3.org/1999/xlink" x="0px" y="0px"
	 viewBox="0 0 209.7 198.5" enable-background="new 0 0 209.7 198.5" xml:space="preserve">
<g>
	<g>
		<path fill="#FFFFFF" d="M1.1,0h26.2v8.3H9.9v18.6H25v8.3H9.9v26.2H1.1V0z"/>
		<path fill="#FFFFFF" d="M33.2,0H42v61.3h-8.8V0z"/>
		<path fill="#FFFFFF" d="M50.1,0h8.4l13.2,36.9H72V0h8.8v61.3h-8.3L59.1,24.4h-0.2v36.8h-8.8V0z"/>
		<path fill="#FFFFFF" d="M88.7,0h13c5,0,8.8,1.4,11.4,4.2c2.6,2.8,4,6.7,4,11.7v28.6c0,5.7-1.4,10-4.2,12.7
			c-2.8,2.7-6.8,4.1-12,4.1H88.7V0z M97.4,53h4c2.5,0,4.2-0.6,5.2-1.8c1-1.2,1.5-3.2,1.5-5.8V15.8c0-2.4-0.5-4.3-1.5-5.6
			c-1-1.3-2.8-2-5.3-2h-4V53z"/>
	</g>
	<g>
		<g>
			<path fill="#FFFFFF" d="M136.8,0.2h5.7l10.6,47.4h-6.8l-2-10.2H135l-2,10.2h-6.8L136.8,0.2z M139.7,13.8h-0.1L136.2,31h6.8
				L139.7,13.8z"/>
		</g>
	</g>
	<g>
		<path fill="#FFFFFF" d="M0,81.9c0-2.4,0.4-4.5,1.2-6.3c0.8-1.8,1.9-3.3,3.3-4.5C5.8,70,7.4,69.1,9,68.5c1.7-0.6,3.4-0.9,5.1-0.9
			c1.7,0,3.4,0.3,5.1,0.9c1.7,0.6,3.2,1.5,4.5,2.7c1.3,1.2,2.4,2.7,3.3,4.5c0.8,1.8,1.2,3.9,1.2,6.3v3h-8.4v-3c0-2-0.6-3.5-1.7-4.5
			c-1.1-1-2.5-1.4-4-1.4c-1.5,0-2.9,0.5-4,1.4c-1.1,1-1.7,2.5-1.7,4.5v31c0,2,0.6,3.5,1.7,4.5c1.1,1,2.5,1.4,4,1.4
			c1.5,0,2.9-0.5,4-1.4c1.1-1,1.7-2.5,1.7-4.5v-11.1h-6.7v-7.4h15.1V113c0,2.4-0.4,4.5-1.2,6.3c-0.8,1.8-1.9,3.3-3.3,4.5
			c-1.3,1.2-2.9,2.1-4.5,2.7c-1.7,0.6-3.4,0.9-5.1,0.9c-1.7,0-3.4-0.3-5.1-0.9c-1.7-0.6-3.2-1.5-4.5-2.7c-1.3-1.2-2.4-2.7-3.3-4.5
			C0.4,117.5,0,115.4,0,113V81.9z"/>
		<path fill="#FFFFFF" d="M35.6,68.1h13.5c9.9,0,14.9,5.7,14.9,17.2c0,3.4-0.5,6.3-1.6,8.8c-1.1,2.4-3,4.4-5.7,5.9l9.1,26.8h-8.9
			l-7.8-25.1h-5v25.1h-8.4V68.1z M44.1,94.3h4.8c1.5,0,2.7-0.2,3.5-0.6c0.9-0.4,1.6-1,2-1.8c0.5-0.8,0.8-1.7,0.9-2.8
			c0.2-1.1,0.2-2.4,0.2-3.9c0-1.5-0.1-2.8-0.2-3.9c-0.2-1.1-0.5-2.1-1-2.9c-0.5-0.8-1.3-1.4-2.2-1.8C51.2,76.2,50,76,48.4,76h-4.4
			V94.3z"/>
		<path fill="#FFFFFF" d="M70.8,68.1h25.1V76H79.2v17.2h14.5v7.9H79.2v17.2h16.7v8.4H70.8V68.1z"/>
		<path fill="#FFFFFF" d="M110.7,68.1h7l13.1,58.8h-8.4l-2.5-12.6h-11.5l-2.5,12.6h-8.4L110.7,68.1z M114.2,85H114l-4.1,21.3h8.4
			L114.2,85z"/>
		<path fill="#FFFFFF" d="M135.9,76h-9.7v-7.9h27.9V76h-9.7v50.8h-8.4V76z"/>
	</g>
	<g>
		<path fill="#FFFFFF" d="M66.1,133.9H75l11.9,34.2h0.2l11.8-34.2h9v64.6h-9.3v-39.3h-0.2L89.3,187h-4.6l-9.1-27.8h-0.2v39.3h-9.3
			V133.9z"/>
		<path fill="#FFFFFF" d="M116.6,133.9h27.6v8.7h-18.3v19h16v8.7h-16v19h18.3v9.3h-27.6V133.9z"/>
		<path fill="#FFFFFF" d="M150.1,133.9h27.6v8.7h-18.3v19h16v8.7h-16v19h18.3v9.3h-27.6V133.9z"/>
		<path fill="#FFFFFF" d="M189.8,142.6h-10.7v-8.7h30.7v8.7H199v55.9h-9.3V142.6z"/>
	</g>
	<g>
		<g>
			<path fill="#FFFFFF" d="M161.7,126.2V116c0-1.9,0.2-3.5,0.7-4.9c0.5-1.4,1.4-2.7,2.6-3.9c1.2-1.2,2.7-1.9,4.4-2.4
				c1.7-0.4,3.9-0.7,6.7-0.7c2.1,0,3.9,0.1,5.4,0.4c1.5,0.2,2.9,0.8,4.2,1.6c1.6,0.9,2.8,2.2,3.6,3.7c0.9,1.6,1.3,3.6,1.3,6.1v3.5
				h18.5v6.8H161.7z M184.2,119.4v-3.3c0-1.4-0.2-2.4-0.6-3.2c-0.4-0.8-0.9-1.3-1.6-1.7c-0.7-0.4-1.5-0.6-2.5-0.6
				c-1-0.1-2.1-0.1-3.3-0.1c-1.1,0-2.2,0-3.2,0.1c-1,0.1-1.9,0.3-2.6,0.6c-0.7,0.3-1.3,0.9-1.7,1.6c-0.4,0.7-0.6,1.7-0.6,3.1v3.5
				H184.2z"/>
			<path fill="#FFFFFF" d="M161.7,99.1v-6.8h40.6V78.9h6.8v20.2H161.7z"/>
			<path fill="#FFFFFF" d="M161.7,67v-5.7l47.3-10.6v6.8l-10.2,2v9.2l10.2,2v6.8L161.7,67z M175.3,64.1v0.1l17.2,3.3v-6.8
				L175.3,64.1z"/>
			<path fill="#FFFFFF" d="M198.5,25.9c1.5,0,2.9,0.3,4.2,0.8c1.3,0.6,2.5,1.3,3.5,2.3c1,1,1.8,2.1,2.4,3.4c0.6,1.3,0.9,2.7,0.9,4.2
				c0,1.3-0.2,2.6-0.5,3.9c-0.4,1.3-1,2.5-1.8,3.6c-0.9,1.1-2,1.9-3.4,2.6c-1.4,0.7-3.2,1-5.4,1h-26.1c-1.6,0-3-0.3-4.3-0.8
				c-1.3-0.5-2.5-1.3-3.5-2.3c-1-1-1.7-2.1-2.3-3.5c-0.6-1.4-0.8-2.8-0.8-4.5c0-1.6,0.3-3,0.8-4.3c0.6-1.3,1.3-2.5,2.3-3.5
				c1-1,2.2-1.7,3.6-2.3c1.4-0.6,2.9-0.8,4.6-0.8h2.7v6.8H173c-1.3,0-2.5,0.4-3.5,1.1c-1,0.8-1.5,1.8-1.5,3.1c0,1.7,0.5,2.8,1.6,3.4
				c1,0.6,2.4,0.8,4,0.8h24.2c1.4,0,2.5-0.3,3.5-0.9c0.9-0.6,1.4-1.7,1.4-3.2c0-0.4-0.1-0.9-0.2-1.4c-0.2-0.5-0.4-1-0.8-1.4
				c-0.4-0.4-0.8-0.8-1.5-1c-0.6-0.3-1.4-0.4-2.3-0.4h-2.3v-6.8H198.5z"/>
			<path fill="#FFFFFF" d="M161.7,20.4V0.2h6.4v13.4H182V1.9h6.4v11.7h13.9V0.2h6.8v20.2H161.7z"/>
		</g>
	</g>
	<rect x="124.1" y="55.1" fill="#FFFFFF" width="30.4" height="6.1"/>
	<g>
		<g>
			<path fill="#FFFFFF" d="M10,140.8H1.6v-6.9h24.3v6.9h-8.5V185H10V140.8z"/>
			<path fill="#FFFFFF" d="M27.8,145.9c0-2.1,0.4-3.9,1.1-5.5c0.7-1.6,1.7-2.9,2.8-3.9c1.2-1,2.5-1.8,4-2.3c1.5-0.5,2.9-0.8,4.4-0.8
				c1.5,0,3,0.3,4.4,0.8c1.5,0.5,2.8,1.3,4,2.3c1.2,1,2.1,2.3,2.8,3.9c0.7,1.6,1.1,3.4,1.1,5.5v27c0,2.1-0.4,3.9-1.1,5.5
				c-0.7,1.6-1.7,2.8-2.8,3.9c-1.2,1-2.5,1.8-4,2.3c-1.5,0.5-2.9,0.8-4.4,0.8c-1.5,0-3-0.3-4.4-0.8c-1.5-0.5-2.8-1.3-4-2.3
				c-1.2-1-2.1-2.3-2.8-3.9c-0.7-1.6-1.1-3.4-1.1-5.5V145.9z M35.1,172.9c0,1.8,0.5,3.1,1.5,3.9c1,0.8,2.1,1.3,3.5,1.3
				c1.3,0,2.5-0.4,3.5-1.3c1-0.8,1.5-2.1,1.5-3.9v-27c0-1.8-0.5-3.1-1.5-3.9c-1-0.8-2.1-1.3-3.5-1.3c-1.3,0-2.5,0.4-3.5,1.3
				c-1,0.8-1.5,2.1-1.5,3.9V172.9z"/>
		</g>
	</g>
	<rect x="1.4" y="192.2" fill="#FFFFFF" width="54.4" height="6.1"/>
</g>
</svg>
