<?xml version="1.0" encoding="utf-8"?>
<!-- Generator: Adobe Illustrator 18.1.1, SVG Export Plug-In . SVG Version: 6.00 Build 0)  -->
<svg version="1.1" id="Layer_1" xmlns="http://www.w3.org/2000/svg" xmlns:xlink="http://www.w3.org/1999/xlink" x="0px" y="0px"
	 viewBox="0 0 716.5 681.9" enable-background="new 0 0 716.5 681.9" xml:space="preserve">
<rect x="-9.2" y="1.9" fill="none" width="487.1" height="260.8"/>
<text transform="matrix(1 0 0 1 -9.1975 211.2274)" fill="#D4145A" font-family="'DINCondensed-Bold'" font-size="294.0609">FIND</text>
<g>
	<rect x="432.3" y="2.4" fill="none" width="99.1" height="177.6"/>
	<text transform="matrix(1 0 0 1 432.29 164.3694)" fill="#9E005D" font-family="'DINCondensed-Bold'" font-size="227.481">A</text>
</g>
<rect x="-10.7" y="234.5" fill="none" width="785.1" height="207.2"/>
<text transform="matrix(1 0 0 1 -10.6615 435.3636)" fill="#93278F" font-family="'DINCondensed-Bold'" font-size="282.0609">GREAT</text>
<rect x="208.3" y="458.5" fill="none" width="897.5" height="279.6"/>
<text transform="matrix(1 0 0 1 208.3367 679.2997)" fill="#D4145A" font-family="'DINCondensed-Bold'" font-size="310.0609">MEET</text>
<g>
	<rect x="551.9" y="-2.8" fill="none" width="169.9" height="446.8"/>
	<text transform="matrix(0 -1 1 0 713.7103 443.9855)" fill="#9E005D" font-family="'DINCondensed-Bold'" font-size="227.2226">PLACE</text>
</g>
<rect x="425.3" y="190.3" fill="#9E005D" width="104" height="20.8"/>
<g>
	<rect x="7.3" y="459.4" fill="none" width="340.5" height="210.8"/>
	<text transform="matrix(1 0 0 1 7.29 634.1849)" fill="#9E005D" font-family="'DINCondensed-Bold'" font-size="245.481">TO</text>
</g>
<rect x="2.8" y="658.8" fill="#9E005D" width="186.1" height="20.8"/>
</svg>
