<?xml version="1.0" encoding="utf-8"?>
<!-- Generator: Adobe Illustrator 18.1.1, SVG Export Plug-In . SVG Version: 6.00 Build 0)  -->
<svg version="1.1" id="Layer_1" xmlns="http://www.w3.org/2000/svg" xmlns:xlink="http://www.w3.org/1999/xlink" x="0px" y="0px"
	 viewBox="0 0 1197.1 573.1" enable-background="new 0 0 1197.1 573.1" xml:space="preserve">
<g>
	<defs>
		<rect id="SVGID_1_" x="0" y="0" width="1197.1" height="573.1"/>
	</defs>
	<clipPath id="SVGID_2_">
		<use xlink:href="#SVGID_1_"  overflow="visible"/>
	</clipPath>
	<g clip-path="url(#SVGID_2_)">
		<g>
			<g opacity="0.8">
				
					<rect x="-342.9" y="-124.5" transform="matrix(-0.7071 0.7071 -0.7071 -0.7071 587.6974 -474.4957)" opacity="0.9" fill="#662D91" width="1470.1" height="17.9"/>
				
					<rect x="-366.9" y="-148.5" transform="matrix(-0.7071 0.7071 -0.7071 -0.7071 529.699 -498.5193)" opacity="0.9" fill="#662D91" width="1470.1" height="17.9"/>
				
					<rect x="-391" y="-172.6" transform="matrix(-0.7071 0.7071 -0.7071 -0.7071 471.7005 -522.5429)" opacity="0.9" fill="#662D91" width="1470.1" height="17.9"/>
				
					<rect x="-415" y="-196.6" transform="matrix(-0.7071 0.7071 -0.7071 -0.7071 413.702 -546.5665)" opacity="0.9" fill="#662D91" width="1470.1" height="17.9"/>
				
					<rect x="-439" y="-220.6" transform="matrix(-0.7071 0.7071 -0.7071 -0.7071 355.7035 -570.5901)" opacity="0.9" fill="#662D91" width="1470.1" height="17.9"/>
				
					<rect x="-463" y="-244.6" transform="matrix(-0.7071 0.7071 -0.7071 -0.7071 297.705 -594.6137)" opacity="0.9" fill="#662D91" width="1470.1" height="17.9"/>
				
					<rect x="-487.1" y="-268.6" transform="matrix(-0.7071 0.7071 -0.7071 -0.7071 239.7066 -618.6373)" opacity="0.9" fill="#662D91" width="1470.1" height="17.9"/>
				
					<rect x="-511.1" y="-292.7" transform="matrix(-0.7071 0.7071 -0.7071 -0.7071 181.7081 -642.6609)" opacity="0.9" fill="#662D91" width="1470.1" height="17.9"/>
				
					<rect x="-535.1" y="-316.7" transform="matrix(-0.7071 0.7071 -0.7071 -0.7071 123.7096 -666.6846)" opacity="0.9" fill="#662D91" width="1470.1" height="17.9"/>
			</g>
			<g opacity="0.8">
				
					<rect x="-561.5" y="-343.1" transform="matrix(-0.7071 0.7071 -0.7071 -0.7071 60.0238 -693.0648)" opacity="0.9" fill="#662D91" width="1470.1" height="17.9"/>
				
					<rect x="-585.5" y="-367.1" transform="matrix(-0.7071 0.7071 -0.7071 -0.7071 2.0253 -717.0884)" opacity="0.9" fill="#662D91" width="1470.1" height="17.9"/>
				
					<rect x="-609.5" y="-391.1" transform="matrix(-0.7071 0.7071 -0.7071 -0.7071 -55.9732 -741.112)" opacity="0.9" fill="#662D91" width="1470.1" height="17.9"/>
				
					<rect x="-633.6" y="-415.1" transform="matrix(-0.7071 0.7071 -0.7071 -0.7071 -113.9717 -765.1356)" opacity="0.9" fill="#662D91" width="1470.1" height="17.9"/>
				
					<rect x="-657.6" y="-439.2" transform="matrix(-0.7071 0.7071 -0.7071 -0.7071 -171.9702 -789.1592)" opacity="0.9" fill="#662D91" width="1470.1" height="17.9"/>
				
					<rect x="-681.6" y="-463.2" transform="matrix(-0.7071 0.7071 -0.7071 -0.7071 -229.9686 -813.1829)" opacity="0.9" fill="#662D91" width="1470.1" height="17.9"/>
				
					<rect x="-705.6" y="-487.2" transform="matrix(-0.7071 0.7071 -0.7071 -0.7071 -287.9671 -837.2064)" opacity="0.9" fill="#662D91" width="1470.1" height="17.9"/>
				
					<rect x="-729.7" y="-511.2" transform="matrix(-0.7071 0.7071 -0.7071 -0.7071 -345.9656 -861.23)" opacity="0.9" fill="#662D91" width="1470.1" height="17.9"/>
				
					<rect x="-753.7" y="-535.3" transform="matrix(-0.7071 0.7071 -0.7071 -0.7071 -403.9641 -885.2537)" opacity="0.9" fill="#662D91" width="1470.1" height="17.9"/>
			</g>
		</g>
		<g>
			<g opacity="0.8">
				
					<rect x="92.1" y="310.5" transform="matrix(-0.7071 0.7071 -0.7071 -0.7071 1637.9855 -39.452)" opacity="0.9" fill="#662D91" width="1470.1" height="17.9"/>
				
					<rect x="68.1" y="286.5" transform="matrix(-0.7071 0.7071 -0.7071 -0.7071 1579.9869 -63.4756)" opacity="0.9" fill="#662D91" width="1470.1" height="17.9"/>
				
					<rect x="44.1" y="262.5" transform="matrix(-0.7071 0.7071 -0.7071 -0.7071 1521.9885 -87.4992)" opacity="0.9" fill="#662D91" width="1470.1" height="17.9"/>
				
					<rect x="20.1" y="238.5" transform="matrix(-0.7071 0.7071 -0.7071 -0.7071 1463.99 -111.5228)" opacity="0.9" fill="#662D91" width="1470.1" height="17.9"/>
				
					<rect x="-4" y="214.4" transform="matrix(-0.7071 0.7071 -0.7071 -0.7071 1405.9916 -135.5464)" opacity="0.9" fill="#662D91" width="1470.1" height="17.9"/>
				
					<rect x="-28" y="190.4" transform="matrix(-0.7071 0.7071 -0.7071 -0.7071 1347.993 -159.5701)" opacity="0.9" fill="#662D91" width="1470.1" height="17.9"/>
				
					<rect x="-52" y="166.4" transform="matrix(-0.7071 0.7071 -0.7071 -0.7071 1289.9946 -183.5937)" opacity="0.9" fill="#662D91" width="1470.1" height="17.9"/>
				
					<rect x="-76" y="142.4" transform="matrix(-0.7071 0.7071 -0.7071 -0.7071 1231.9961 -207.6173)" opacity="0.9" fill="#662D91" width="1470.1" height="17.9"/>
				
					<rect x="-100.1" y="118.3" transform="matrix(-0.7071 0.7071 -0.7071 -0.7071 1173.9977 -231.6409)" opacity="0.9" fill="#662D91" width="1470.1" height="17.9"/>
			</g>
			<g opacity="0.8">
				
					<rect x="-126.4" y="92" transform="matrix(-0.7071 0.7071 -0.7071 -0.7071 1110.3118 -258.0211)" opacity="0.9" fill="#662D91" width="1470.1" height="17.9"/>
				
					<rect x="-150.5" y="67.9" transform="matrix(-0.7071 0.7071 -0.7071 -0.7071 1052.3134 -282.0447)" opacity="0.9" fill="#662D91" width="1470.1" height="17.9"/>
				
					<rect x="-174.5" y="43.9" transform="matrix(-0.7071 0.7071 -0.7071 -0.7071 994.3148 -306.0684)" opacity="0.9" fill="#662D91" width="1470.1" height="17.9"/>
				
					<rect x="-198.5" y="19.9" transform="matrix(-0.7071 0.7071 -0.7071 -0.7071 936.3163 -330.0919)" opacity="0.9" fill="#662D91" width="1470.1" height="17.9"/>
				
					<rect x="-222.5" y="-4.1" transform="matrix(-0.7071 0.7071 -0.7071 -0.7071 878.3179 -354.1156)" opacity="0.9" fill="#662D91" width="1470.1" height="17.9"/>
				
					<rect x="-246.6" y="-28.1" transform="matrix(-0.7071 0.7071 -0.7071 -0.7071 820.3194 -378.1392)" opacity="0.9" fill="#662D91" width="1470.1" height="17.9"/>
				
					<rect x="-270.6" y="-52.2" transform="matrix(-0.7071 0.7071 -0.7071 -0.7071 762.3209 -402.1628)" opacity="0.9" fill="#662D91" width="1470.1" height="17.9"/>
				
					<rect x="-294.6" y="-76.2" transform="matrix(-0.7071 0.7071 -0.7071 -0.7071 704.3224 -426.1864)" opacity="0.9" fill="#662D91" width="1470.1" height="17.9"/>
				
					<rect x="-318.6" y="-100.2" transform="matrix(-0.7071 0.7071 -0.7071 -0.7071 646.3239 -450.21)" opacity="0.9" fill="#662D91" width="1470.1" height="17.9"/>
			</g>
		</g>
		<g>
			<g opacity="0.8">
				
					<rect x="528.7" y="747.1" transform="matrix(-0.7071 0.7071 -0.7071 -0.7071 2691.895 397.0918)" opacity="0.9" fill="#662D91" width="1470.1" height="17.9"/>
				
					<rect x="504.6" y="723.1" transform="matrix(-0.7071 0.7071 -0.7071 -0.7071 2633.8967 373.0682)" opacity="0.9" fill="#662D91" width="1470.1" height="17.9"/>
				
					<rect x="480.6" y="699" transform="matrix(-0.7071 0.7071 -0.7071 -0.7071 2575.8982 349.0446)" opacity="0.9" fill="#662D91" width="1470.1" height="17.9"/>
				
					<rect x="456.6" y="675" transform="matrix(-0.7071 0.7071 -0.7071 -0.7071 2517.8997 325.0209)" opacity="0.9" fill="#662D91" width="1470.1" height="17.9"/>
				
					<rect x="432.6" y="651" transform="matrix(-0.7071 0.7071 -0.7071 -0.7071 2459.9011 300.9973)" opacity="0.9" fill="#662D91" width="1470.1" height="17.9"/>
				
					<rect x="408.5" y="627" transform="matrix(-0.7071 0.7071 -0.7071 -0.7071 2401.9026 276.9737)" opacity="0.9" fill="#662D91" width="1470.1" height="17.9"/>
				
					<rect x="384.5" y="602.9" transform="matrix(-0.7071 0.7071 -0.7071 -0.7071 2343.9043 252.9501)" opacity="0.9" fill="#662D91" width="1470.1" height="17.9"/>
				
					<rect x="360.5" y="578.9" transform="matrix(-0.7071 0.7071 -0.7071 -0.7071 2285.9058 228.9266)" opacity="0.9" fill="#662D91" width="1470.1" height="17.9"/>
				
					<rect x="336.5" y="554.9" transform="matrix(-0.7071 0.7071 -0.7071 -0.7071 2227.9072 204.903)" opacity="0.9" fill="#662D91" width="1470.1" height="17.9"/>
			</g>
			<g opacity="0.8">
				
					<rect x="310.1" y="528.5" transform="matrix(-0.7071 0.7071 -0.7071 -0.7071 2164.2214 178.5227)" opacity="0.9" fill="#662D91" width="1470.1" height="17.9"/>
				
					<rect x="286.1" y="504.5" transform="matrix(-0.7071 0.7071 -0.7071 -0.7071 2106.2229 154.4991)" opacity="0.9" fill="#662D91" width="1470.1" height="17.9"/>
				
					<rect x="262.1" y="480.5" transform="matrix(-0.7071 0.7071 -0.7071 -0.7071 2048.2244 130.4754)" opacity="0.9" fill="#662D91" width="1470.1" height="17.9"/>
				
					<rect x="238" y="456.4" transform="matrix(-0.7071 0.7071 -0.7071 -0.7071 1990.226 106.4518)" opacity="0.9" fill="#662D91" width="1470.1" height="17.9"/>
				
					<rect x="214" y="432.4" transform="matrix(-0.7071 0.7071 -0.7071 -0.7071 1932.2274 82.4282)" opacity="0.9" fill="#662D91" width="1470.1" height="17.9"/>
				
					<rect x="190" y="408.4" transform="matrix(-0.7071 0.7071 -0.7071 -0.7071 1874.2291 58.4046)" opacity="0.9" fill="#662D91" width="1470.1" height="17.9"/>
				
					<rect x="166" y="384.4" transform="matrix(-0.7071 0.7071 -0.7071 -0.7071 1816.2306 34.381)" opacity="0.9" fill="#662D91" width="1470.1" height="17.9"/>
				
					<rect x="141.9" y="360.3" transform="matrix(-0.7071 0.7071 -0.7071 -0.7071 1758.2321 10.3573)" opacity="0.9" fill="#662D91" width="1470.1" height="17.9"/>
				
					<rect x="117.9" y="336.3" transform="matrix(-0.7071 0.7071 -0.7071 -0.7071 1700.2335 -13.6663)" opacity="0.9" fill="#662D91" width="1470.1" height="17.9"/>
			</g>
		</g>
	</g>
</g>
</svg>
