<?xml version="1.0" encoding="utf-8"?>
<!-- Generator: Adobe Illustrator 18.1.1, SVG Export Plug-In . SVG Version: 6.00 Build 0)  -->
<svg version="1.1" id="Layer_1" xmlns="http://www.w3.org/2000/svg" xmlns:xlink="http://www.w3.org/1999/xlink" x="0px" y="0px"
	 viewBox="0 0 525.7 614.5" enable-background="new 0 0 525.7 614.5" xml:space="preserve">
<g>
	<path fill="#CCCCCC" d="M405.6,48.8c0,1.1,0.3,2.2,0.1,3.2c-2.7,13.9-5.4,27.7-8,41.6c-0.5,2.6-0.6,5.4-0.7,8.1
		c0,0.8,0.5,1.7,0.7,2.5c0.9-0.3,2-0.5,2.7-1c2-1.6,3.8-3.6,6-5c5-3.1,9.4-1.4,11.7,4c3.1,7.7,3.5,15.5,1.9,23.6
		c-1.4,7.3-2.8,14.6-4.1,21.9c-0.1,0.8-0.1,1.6-0.1,2.2c3.6-3,7-6.4,10.9-9c7-4.8,14.7-6.6,23.3-5.8c8.9,0.9,17.2,3.4,25,7.4
		c8.8,4.5,12.9,12.6,14.1,22.1c0.6,4.3,1,8.7,1,13.1c0,2.3-0.7,4.8-1.9,6.8c-3.1,5.3-6.4,10.5-9.9,15.5c-3.3,4.7-7.1,9.1-10.6,13.6
		c-0.3,0.3-0.8,0.8-1.1,0.8c-3.8-0.5-6.1,2.7-9.3,3.8c-6,1.9-12,4-18,5.7c-6.1,1.7-12.2,3.3-17.4,7.1c-4.8,3.5-7,11.4-3.9,16.3
		c2.1,3.4,2.6,6.2,0.3,9.5c-2.3,3.4-5.5,6.1-9.6,5.7c-4.3-0.4-9.1,0.1-12.7-3.9c-0.8,2.9-1.5,5.5-2.2,8.2c0.8,0.2,1.5,0.2,2,0.4
		c1.1,0.6,2,1.6,3.2,1.9c3.8,0.8,6,2.8,6.5,6.6c0.7,5.8,1.8,11.6,1.9,17.5c0.3,19.6,0.4,39.3,0,58.9c-0.2,9.7-1.7,19.5-2.7,29.2
		c-0.3,2.6,0.2,4,3.3,3.8c1.3-0.1,3,0.3,4,1.1c3,2.3,6.3,1.7,9.6,1.9c2.4,0.1,4.9,0.7,7.2,1.6c2.5,0.9,2.9,3,1.8,5.3
		c-1.6,3.3-3.5,6.4-4.8,9.7c-1.6,4-2.7,8.2-4,12.3c0.3,0.1,0.6,0.3,0.9,0.4c0.6-0.4,1.3-0.7,1.8-1.1c5.9-5.2,13-7.2,20.5-7.8
		c3.6-0.3,7.4-0.8,10.8,0.1c6.6,1.7,11.6,6.1,12.8,12.9c0.6,3.4-0.3,7.5-1.7,10.8c-1.5,3.6-4.3,6.6-6.6,9.9
		c-0.6,0.9-1.7,1.6-2.2,2.5c-0.5,1.2-1.1,2.8-0.7,3.8c0.5,0.9,2.2,1.4,3.4,1.8c0.7,0.3,1.6,0,2.7,0c-0.1-0.9-0.5-1.7-0.2-2.2
		c0.7-1.3,1.4-2.9,2.6-3.4c0.8-0.4,3,0.3,3.5,1.2c2.1,3.4,3.3,7.7,1.4,10.9c-1.6,2.7-5.6,4.1-8.6,5.9c-0.6,0.4-1.6,0.2-2.4,0.4
		c3.1,12.4,1.8,12.6-2.4,24.8c2,0.3,3.8,0.8,5.7,0.7c14.9-0.9,28.5,4.6,42.4,8.5c6.8,1.9,12.8,4.9,17.8,9.9c2.6,2.6,3.4,5.5,2.7,9.1
		c-1.2,5.8-4,10.3-8.5,14.3c-4.2,3.7-7.3,8.8-11.6,12.4c-8.2,6.9-15.6,15.1-25.7,19.5c-8.1,3.6-16.4,6.7-24.6,9.8
		c-11.6,4.4-23.3,8.7-34.9,13.2c-2.2,0.8-4.5,2.2-5.9,4c-3.8,4.7-8.7,7.6-14.3,9.3c-8.1,2.5-16.1,5.2-24.3,7.1
		c-9.9,2.3-20.1,2.1-30.3,2c-9.9-0.2-19.8,0-29.7,0.4c24.4,0.6,49,3.2,73.4-3.1c-1.6,0.8-3.2,2-4.9,2.3c-6.7,1.1-13.4,2.7-20.1,2.8
		c-17.7,0.4-35.4,0.1-53.1,0.1c-13.2,0.1-26.5,0.1-39.7,0.7c-6.8,0.3-13.6,1.8-20.4,3c-7.3,1.2-14.4,0.8-21.6-0.4
		c-9.8-1.7-19.7-2.6-29.6-3.7c-5.9-0.7-11.9-1.1-17.8-2c-3.4-0.6-6.7-1.9-10-3c0-0.3,0.1-0.5,0.1-0.8c0.8,0,1.5-0.1,2.3,0
		c6.4,1.1,12.8,2.4,19.2,3.2c12.6,1.7,25.3,3.1,37.9,4.8c8.2,1.1,16.3,0.8,24.4-1.3c-1.7-0.1-3.5-0.6-5.2-0.3
		c-5.7,0.9-11-0.4-16.6-1.2c-8.8-1.3-17.8-1.7-26.6-2.9c-10.6-1.4-21.2-3.1-31.7-5.1c-6.2-1.2-11.9-3.8-16.7-8.3
		c-2.9-2.7-6.4-4.7-10.9-4.8c-18.5-0.7-36-6.2-53.4-12.2c-5.9-2-11.9-3.6-17.8-5.8c-9.6-3.6-19.1-7.7-28.7-11.4
		c-4.8-1.9-9.9-3.2-14.7-5c-4.3-1.6-7.9-4.5-10.5-8.4c-2.7-4-7-6-10.9-8.5c-2.8-1.8-5.3-4-7.9-6.2c-4.7-4-5-9.2-3.3-14.5
		c2-6.7,5.5-12.5,11.9-15.9c3.4-1.8,6.7-3.7,10.2-5.1c11.7-4.6,23.5-9.3,35.4-13.4c9.8-3.4,20-4.9,30.3-5.7c6-0.5,11.9-1.9,17.9-3
		c4.2-0.7,8.4-1.6,12.6-2.1c9.8-1.2,19.6-2.3,29.4-3.3c7.4-0.7,14.9-1.1,22.3-1.6c2-0.1,4.1-0.2,6.1-0.6c0.6-0.1,1.6-1.3,1.5-1.9
		c-0.8-7.9-1.4-15.9-2.7-23.8c-1.3-7.8-2.4-15.8-7-22.5c-2-2.9-4.8-5.3-7.5-7.7c-2.5-2.3-2.9-4.8-0.6-7.5c3.5-4.2,8.2-6,13.4-6.4
		c3.8-0.3,7.6,0.1,11.5-0.1c3-0.1,2.9-0.8,2.2-3.7c-1.7-7.3-7.8-8.5-13.6-10.3c-1.7-0.5-3.4-1.3-4.9-2.5c3.3,0.9,6.6,1.8,9.8,2.7
		c0.1-0.3,0.3-0.5,0.4-0.8c-1.2-0.7-2.4-1.6-3.6-2.2c-4.2-2.1-8.4-4.3-12.8-6.1c-3.9-1.6-8.1-2.7-12.2-4c-8-2.5-15-6.4-20.5-12.8
		c-2.1-2.4-4.8-4.4-7.2-6.5c-2.7-2.3-4.3-5.3-4.3-8.7c0-9.5,0.9-18.9,5.3-27.7c0.3-0.7,0.1-2.1-0.4-2.6c-6.3-6.4-6.6-14.1-0.9-21.5
		c5.5-7,11.6-8.8,19.1-5.6c3.1,1.3,4.6,4,3.6,7.2c-0.3,1-1.5,2.4-2.3,2.4c-1.5,0-2.9-0.9-4.3-1.8c-3.9,0.2-6.2,2.2-7.1,5.9
		c-0.7,3.1,0.6,5.4,3.8,5.9c4.6,0.8,9.1-0.2,13.3-2.1c3.3-1.5,6.6-3,9.9-4.5c5-2.2,10.1-2.4,15.3-1.2c0.8,0.2,1.6,0.3,2.6,0.4
		c0.1-1.3,0.4-2.3,0.2-3.3c-0.9-7.3,3.9-12.4,10.2-14.5c4.3-1.4,8.9-1.7,13.4-2.5c0.7-0.1,1.4-0.1,2.7-0.3c-1-3.3-2-6.3-2.9-9.4
		c-8.7-29.2-17.6-58.4-25.9-87.7c-2.2-7.8-5.9-14.4-11.2-20.2c-3-3.4-4.7-7.1-4.4-11.7c0.2-2.5,0.4-5.1,0-7.5
		c-0.8-5.7,2.9-9.1,6.5-12.2c1.7-1.5,4.4-2.1,6.8-2.5c5.8-1,11.6-1.8,17.4-2.5c2.1-0.3,2.7-1.2,2.2-3.1c-1.7-6.8-9.2-18-19.6-18.6
		c-7.5-0.4-14.6-2.9-20.6-7.3c-9.7-7.1-16.4-15.9-15.2-29.1c1.3-13.8,6.1-25.6,16.8-34.7c6.5-5.5,14-7.1,22.2-4.9
		c5.3,1.4,10.5,3,16,4.6c0.4-3.3,0.5-6.4,1.1-9.5c1.3-6.8,4.1-12.8,9.9-16.9c1.4-1,3.4-1.1,5.2-1.4c2-0.3,4.1-0.5,6.1-0.5
		c2.8,0,5.7-0.2,8.2,0.7c8.2,2.7,16.6,3.8,25.2,4.3c10.3,0.5,20.6,1.9,30.9,2.6c9.1,0.7,18.3,0.7,27.3,1.7c13,1.5,26,3.3,38.9,5.5
		c18.4,3.1,36.8,6.7,55.2,9.9c4.7,0.8,7.5,3.1,7.7,7.9c0.2,3.4-0.5,6.8-0.8,10.2C406.2,44.9,405.9,46.9,405.6,48.8
		c-1.5,3.1-3.5,6.1-4.3,9.3c-1.1,3.9-1.2,8.1-1.7,12.1c-0.2,1.5-0.4,3.1-0.6,4.7c0.1,0,0.2,0,0.4,0
		C401.4,66.2,403.5,57.5,405.6,48.8z M173,419.5c0.1-1.1,0.7-2.4,0.3-3.2c-0.4-0.8-1.7-1.1-2.7-1.6c0.3,1.7,0.9,2.9,1.6,4.1
		C172.5,419.1,172.8,419.3,173,419.5c1.3,4.6,2.5,9.3,3.7,14c-0.3-3.8-0.9-7.5-1.7-11.1C174.8,421.3,173.7,420.5,173,419.5z
		 M134.1,304.7c-1.6-1.6-3.1-3.2-4.5-4.6C129.3,304,130.4,305.2,134.1,304.7c1.7,0.5,3.3,1,4.9,1.5c0,0.2,0,0.4-0.1,0.6
		c-1.8,0-3.7,0-5.8,0c1.3,2.3,2.9,3.2,5.1,3.2c3.7,0,4.7-3,6.3-5.3C141,304.7,137.6,304.7,134.1,304.7z M285.1,309.5
		c-0.3-0.2-0.6-0.5-0.8-0.7c0.6-0.6,1.2-1.3,1.7-1.8c-8.6,0-17.2,0-26.6,0c4.1,3.6,6.2,7.4,5.2,11.9c-0.9,4.1-2.6,8.1-4.3,12
		c-1.8,4.1-7.2,3-9.8,6.1c2.9,1.8,4.4-1.4,6.8-2.3c-0.6,1.1-1.1,1.8-1.5,2.6c6.5,1.5,12,0.6,13.6,0.5c4.7-0.3,9.5,0.2,14.3,0.4
		c0.3,0,0.6-0.1,0.8-0.1c0.3-0.1,0.7-0.1,0.7-0.3c0.5-2.7,2.8-1.7,4.4-2.1c1.5-0.4,3.4-0.4,4.4-1.4c3.4-3.3,6.6-6.7,9.4-10.5
		c1.5-1.9,2-4.6,0.9-7.5c-5,15.7-13.6,19.1-25.3,16.6c1.8-0.3,3.7,0,5.4-0.3c3.2-0.5,6.6-0.7,9.3-2.2c5.6-3,7.7-8.7,9.4-14.6
		c0.3-0.9,0.6-1.7,0.9-2.6c0.3,0.1,0.6,0.2,1,0.2c2.3,5.4,0.4,10.3-3,15c0.8,0,1.2-0.1,1.6-0.1c-0.4,0.9-0.8,1.8-1.3,2.9
		c3-1.3,5.5-2.9,6.1-6.6c-1.8,1.4-3.3,2.6-4.9,3.8c0.4-0.7,0.7-1.5,1.3-2c4.7-5.4,4.9-6.7,1.6-13.1c-0.6-1.2-1.3-2.5-2.1-3.6
		c-0.5-0.8-1.2-1.8-2-2.1c-4.1-1.8-8.2-2.3-12.4-0.5C288.3,307.8,286.7,308.7,285.1,309.5z M220.1,38.4L220.1,38.4
		c-1.5,3.5-2.2,7.5-4.3,10.6c-4.3,6.2-3.7,12.5-1.4,19.1c1-2.3,1.6-4.6,2.3-7c0.1-0.5,0.1-1.4,0.3-1.5c2.5-0.4,1.7-2.4,1.9-3.8
		c0.2-1.4,0-2.8,0-4.2c0.3,0,0.7,0,1,0c-0.1,2.6,0.5,5.6-0.6,7.7c-1.4,2.6-2,4.9-1.5,7.6c0.9,4.5,1.9,8.9,2.9,13.3
		c0.3-0.1,0.6-0.1,0.9-0.2c0.1-0.6,0.2-1.1,0.4-2.3c0.8,8.3,5.5,16.5,11.7,21.8c1.6,1.4,3.3,3.2,2.1,6.3c-4.3-6-9.2-11.4-12.3-17.6
		c-3.4-6.7-5.1-14.2-7.5-21.2c-1.7,1.3-1.9,3.4-1.2,5.7c1.2,4.3,2.5,8.6,3.9,12.8c1.6,4.8,4.2,9.1,7.7,12.8c1.7,1.8,3.2,3.9,4.8,5.8
		c-6.7-5.5-11.5-12.3-14.3-20.6c-2.7-7.8-4.3-15.9-5.4-24.6c-3.7,4.8-6.1,10.9-6,15.3c0,3.9,0,7.7,0.2,11.6c0.1,2.4,0.2,4.8,0.6,7.2
		c0.4,2.6,1.1,5.1,1.6,7.6c0.3-0.3,0.6-0.6,0.9-0.8c0.6,0.2,1.5,0.2,1.9,0.6c0.9,0.9,1.4,2.2,2.3,3.1c2.4,2.4,4.9,4.7,7.3,7
		c1-1.1,1.7-1.9,2.4-2.7c-5.3-6.9-8.7-12.8-9.2-17c1.4,2.3,2.6,4,3.5,5.7c2,3.6,3.1,7.9,7.3,9.9c0.3,0.2,0.5,1.6,0.3,1.8
		c-2.9,2.8-1.3,6.4-2,9.6c1-2.2,1.6-4.5,2.4-6.7c0.2-0.6,1-1.1,1.5-1.6c0.3,0.7,0.9,1.4,0.8,2.1c-0.3,2-0.8,3.9-1.2,5.9
		c1.3-0.4,2.1-1.1,2.9-1.8c5-5.2,14.9-6.9,21.4-3.6c1.4,0.7,2.6,2.1,4,2.4c7.1,1.8,14.2,1.8,20.8-2c10.5-6.2,21.8-6.3,33.2-3.8
		c6.5,1.4,12.8,3.3,19.4,3.4c5.3,0.1,9.8-1.2,13.3-5.5c1.2-1.5,3.3-2.9,5.2-3.3c3.9-0.8,7.9-0.4,11.7,1.4c5.5,2.6,11.3,3.6,17.4,3.4
		c3.1-0.1,5.4-1.5,7.6-3.6c1.9-1.7,4.2-2.9,6.2-4.6c0.9-0.7,1.6-1.9,1.9-3c0.6-2.5,0.8-5.1,1.3-7.7c2.5-13.7,4.9-27.5,7.5-41.2
		c0.4-1.9,1.2-3.8,1.9-5.7c0.2,0.1,0.4,0.1,0.6,0.2c-0.5,2.9-0.9,5.8-1.4,8.7c3.5-4.4,5.5-13.5,4.6-17.5c-0.2,0.8-0.4,1.7-0.7,2.6
		c-0.7-3.2-1-6.5-4.4-7.8c-3.5-1.3-7.2-2.4-10.9-3.3c-1.7-0.4-3.1,1.3-2.5,3.2c-1.3-0.4-2.4-0.8-4.1-1.3c1.4-0.5,2.3-0.8,3.2-1.1
		c0-0.2,0-0.5,0.1-0.7c-4.5-1.2-9-2.7-13.6-3.5c-8.2-1.3-16.4-2.2-24.6-3.2c-13.3-1.6-26.6-3.5-39.9-4.6c-17.4-1.4-34.8-1.9-52.2-3
		c-5.1-0.3-10.3-0.2-15.4-2.2c-6.5-2.7-13.3-4.7-20.1-6.8c-1-0.3-2.4-0.3-3.4,0.1c-0.9,0.3-1.5,1.2-2.4,2.1c0,0.4,0,1.3,0,1.7
		c-2.4,1.1-4.4,2-6.5,3c0.3,0.2,0.6,0.4,0.8,0.6c0.2,1.3,0.8,2.9,0.3,4c-0.3,0.7-2.1,1.1-3.3,1.1c-2.7,0.1-4,1-4.1,3.9
		c-0.1,2.7,0.1,5.4,0.2,8.2c0.1,3.1,0.1,6.1,0.2,9.2c0.1,3.4,0.3,6.8,0.4,10.3c0,0.8,0,1.5,0,3c-1.4-1.3-2.2-2-3.4-3.1
		c0.2,3.2,0.4,5.8,0.6,8.4c0.3,0.1,0.6,0.1,0.8,0.2c3-10,10.9-17.8,12.7-29c0.2,1.4,0.3,2.2,0.5,3.4c3.9-6.6,7.4-12.7,11-18.8
		c0.1,1.1-0.2,1.9-0.6,2.7c-3.1,5.5-6.2,11-9.4,16.5c-4.4,7.5-1.6,15.5-2.6,23.3c0.3,0.1,0.6,0.1,0.9,0.2c2.1-5.3,4.2-10.6,6.2-15.5
		C219,37.5,219.6,38,220.1,38.4z M350.3,409.9c5.3,4.6,11.4,5.4,18.1,4C362.3,412.6,356.3,411.3,350.3,409.9
		c-7.8-2.8-15.1-1.3-22,2.6c-4.6,2.6-9,5.6-13.6,8.2c-4,2.2-8.3,2.9-12.6,1c-4.5-1.9-8.9-4.3-13.4-6.3c-10.4-4.7-21-5.2-31.7-0.9
		c-1.2,0.5-2.5,1.5-3,2.6c-1.1,2.5-2.9,3.8-5.3,4.5c-2.8,0.8-5.6,1.5-8.4,2.1c-4.2,0.9-7.8,0-11-3c-3.9-3.7-8-7.2-12.2-10.4
		c-4.3-3.2-9.4-3-13.8-0.7c-5,2.6-9.3,2.5-13.9-0.3c-2.3-1.4-4.2-0.6-5.7,2c1.9,0.5,4,0.6,5.4,1.6c2.6,1.9,5.1,4.2,7,6.7
		c1.6,2.2,3,2.2,4.8,0.8c1-0.8,1.5-2.1,2.4-3.1c0.4-0.4,0.8-1,1.3-1.1c2.3-0.4,4.5-0.7,6.8-1c-0.1,0.2-0.3,0.4-0.4,0.6
		c2.5,1.5,5,2.9,7.5,4.4c-0.2,0.3-0.4,0.7-0.6,1c-1-0.4-2.1-0.8-3.1-1.3c-3.3-1.6-6.6-2.5-10.1-0.7c-0.6,0.3-1,0.9-1.5,1.4
		c0.5,0.4,1.1,0.8,1.6,1.2c0.4,0.3,0.9,0.7,1.3,1l0,0c-3.7-1.1-5-0.7-5.8,1.5c-1.1-0.6-2.3-1.4-3.5-1.9c-0.8-0.3-1.8-0.1-2.8-0.1
		c-4.2,0-4.7,0.5-4.8,4.6c0,2,0,4,0,6c-0.2,0-0.3,0-0.5,0c-0.3-0.7-0.6-1.4-1.1-2.7c-0.1,2.7-0.3,4.7-0.4,6.8c-0.3,0-0.5,0-0.8-0.1
		c-0.7-4.8,1-9.9-1.3-14.6c-3.8,10.2,1.3,19.6,2.6,29.6c0.7-0.5,1-0.8,1.7-1.3c-1.1,4.9-0.7,9.3,1.5,14.2c1.2-5.1,2.3-9.4,3.3-13.7
		c1.1-4.2,2.2-8.4,3.3-12.6c-0.8,6.2-2.1,12.3-3.6,18.3c-1.2,4.7-3,9.7-0.8,14.2c2.2,4.5,1.7,9.5,3.9,13.8c0,0.1,0.2,0.1,0.3,0.1
		c0.5-1.7,0.9-3.4,1.4-5.1c0.2,0.1,0.4,0.1,0.7,0.2c-0.5,2.4-1.4,4.8-1.5,7.3c-0.1,2.4,0.5,4.8,0.8,7.1c3.1-7.7,4.4-15.5,0.7-16.6
		c0.4-1.9,0.7-3.8,1.2-6.2c0.6,2.9,1,5.3,1.5,7.7c0.3,0,0.7,0,1,0c1.4-7.9,2.7-15.8,4.1-23.7c0.2,5.7-0.2,11.2-0.6,16.8
		c0,0.3,0,0.6-0.1,0.8c-1,2.3-2.2,4.5-2.9,6.9c-0.5,1.8-1.1,3.9,1.4,5.1c0.5,0.2,1.1,1,1,1.4c-1.2,3.7,0.8,6.7,2.2,9.7
		c0.8,1.8,2.3,3.3,3.3,5.1c1.1,2.1,2,4.4,3,6.6c0.3-0.1,0.5-0.2,0.8-0.3c0.2-2.4,0.4-4.8,0.6-7.2c0.5-0.1,0.9-0.2,1.4-0.3
		c-2.9,9.5,2.1,14.9,9.5,19.5c-0.3-2.8-0.6-5.3-0.7-6.7c2.1,1.9,4.5,4,7,6.2c0.3-0.2,0.6-0.5,0.8-0.7c-2-2.9-4-5.7-6-8.6
		c0.2-0.2,0.5-0.3,0.7-0.5c3.3,4.5,6.7,8.9,10,13.4c0.3-0.1,0.6-0.2,1-0.4c0-7.8,0-15.7,0-23.5c0.3,0,0.5,0,0.8,0c0,5,0.1,10,0,15
		c-0.1,5.1-0.6,10.1,6.5,11.8c-1.1,0.5-1.5,0.6-2.4,1c4.6,2.7,8.9,5.3,13.2,7.8c-0.2,0.3-0.3,0.6-0.5,0.8c-5.3-2.3-9.7-6.4-15.1-8.7
		c3,3.1,6.1,5.9,9.5,8.5c3.4,2.5,7.1,4.7,10.6,7.1c-0.2,0.3-0.3,0.5-0.5,0.8c-3.5-2.3-7.2-4.4-10.6-6.9c-3.4-2.5-6.6-5.5-10.2-8.5
		c-0.1,1.3-0.1,2.2-0.2,3.2c-1-2.6-1.4-5.4-2.9-7.4c-1.6-2.1-4.2-3.3-6.4-4.9c-1.3-1-2.4-2-3.6-3.1c-0.3,0.2-0.5,0.5-0.8,0.7
		c1.6,8.4,7.6,13.4,14.3,18.1c-1.8-0.5-3.7-1.1-5.1-2.3c-3.2-2.9-6-6.2-9.1-9.2c-3.2-3.2-6.6-6.3-9.9-9.5c-0.2,0.2-0.4,0.4-0.6,0.6
		c1.4,7,7,11.4,11.4,16.8c0-1.2,0-2.4,0-3.7c0.8,4.8,4.2,10.5,6.5,10.2c0.2-0.6,0.5-1.1,0.7-1.6c0.4,0.2,0.6,0.2,0.7,0.3
		c0.2,0.3,0.4,0.6,0.6,0.9c2.3,3.9,5.8,6.2,10.2,7.2c4.2,1,8.3,2,12.5,2.9c2.4,0.5,4.9,0.5,7.3,0.8c0.2-0.3,0.4-0.6,0.5-0.9
		c-0.7-0.4-1.4-0.8-2.2-1.2c5.4,2.3,13.2,2,17.7-0.9c-7.3-1.8-14.7-3.7-22-5.6c0.1-0.3,0.1-0.6,0.2-0.9c2.4,0.6,4.8,1.1,7.2,1.7
		c8.6,2,17.1,5.8,25.7,2.3c1.2,0.6,2.2,1.5,3.1,1.5c4.9,0,9.9,0,14.8-0.5c10.1-1.2,19.6-4.9,28.9-9c9.5-4.3,17.6-10,23.9-18.3
		c3-3.9,6.3-7.6,9.6-11.6c0.1,0.5,0.2,0.8,0.1,0.9c-5.6,6.8-10.6,14.2-17,20.2c-9.4,8.7-21.5,12.7-33.5,16.5
		c-8.8,2.8-17.9,3.4-27.1,3c-5.1-0.2-10,0.4-14.8,2.6c0.5,0.4,0.9,0.7,1.4,1.1c0,0.3,0,0.5-0.1,0.8c-2.7,0-5.3,0-8,0
		c0,0.2,0,0.4,0,0.6c2.6,0.7,5.1,1.5,7.7,2.2c0,0.2-0.1,0.5-0.1,0.7c-0.9,0-1.8,0.1-2.6,0c-7-1-14-1.9-20.9-3.2
		c-7.7-1.5-16.2,0.4-23-5.8c1,2,4.1,3.7,0.3,5.6c2.4,2.6,4.9,4.9,8.2,4.6c2.3-0.3,2.9,0.3,3.6,2.1c1.3,3.4,5.1,4.4,7.9,2.4
		c-2-0.6-4.1-1.2-6.2-1.8c0.1-0.3,0.1-0.6,0.2-0.9c1.5,0.1,3.1,0.1,4.6,0.3c5.9,0.5,11.8,1.1,17.8,1.5c5.8,0.4,11.7,0.3,17.6,1
		c6.3,0.8,12.5,0.8,18.9-0.2c8.3-1.3,16.6-2.1,24.9-2.9c7-0.7,14.1-0.7,20.9-3.6c-0.4,0.8-0.9,1.7-1.6,1.9c-3.9,1-7.9,2.1-11.9,2.6
		c-9.2,1.1-18.6,1.4-27.8,3c-8.6,1.4-17,1.4-25.6,0.7c-8.5-0.7-17.1-0.8-25.7-1.1c-0.1,0.4-0.1,0.8-0.2,1.2c1.8,0.4,3.6,1.1,5.4,1.2
		c9.6,0.2,19.2,0.4,28.8,0.5c15.9,0.1,31.8,0.8,47.7-1.3c7.7-1,13.3-5,18.6-10.9c-2.1,0-3.7,0-5.4,0c0-0.3-0.1-0.6-0.1-1
		c7-0.8,13.3-3.2,19.3-6.5c7.5-4.1,14.3-9.4,15.6-12.7c-1.8,0.7-3.6,1.4-5.5,2.2c-0.2-0.3-0.3-0.5-0.5-0.8c0.5-0.6,1-1.2,1.6-1.7
		c2-1.5,3.9-2.9,4.6-5.7c0.3-1.1,1.9-1.9,2.9-2.9c0.1,0.1,0.3,0.3,0.4,0.4c-0.8,1-1.7,2-2.5,3c0.3,0.3,0.6,0.6,0.9,0.9
		c1.5-1.7,2.8-3.6,4.4-5.1c8.1-7.4,11.7-16.7,12.7-27.4c1.3-14,2.8-28,4.4-41.9c0.5-4.7,2.3-9.2,2.6-13.9
		c0.9-11.4,2.4-22.5,6.7-33.2c0.2-0.5,0.1-1,0.2-1.5c-5.6-2.1-9.4-2.1-12.5,0.8c-3.2,3.1-6.7,3-10.5,2.1c-3.7-0.9-7.2-0.3-10.4,1.7
		c-2.3,1.4-4.6,2.8-6.8,4.3c-6.9,4.4-14.5,6.1-22.6,5.4c-3.9-0.3-9.3-3.1-11.7-6C349.8,410.1,350.1,410,350.3,409.9z M208.4,232.5
		c0-0.7-0.3-1.5-0.1-2.1c0.8-3.3-0.4-6.1-2.3-9.3c-1,3-1.9,5.7-2.8,8.4c-1.5-4.9,4.3-9.2,0.6-14.1c-2.6,13.6-5.2,27.1,1.1,40.5
		c0.5-3.2,0.6-6.4,1.1-9.6c0.7-4.6,1.6-9.3,2.5-13.9c-0.8,8-1.2,16-2.4,23.9c-0.9,5.7,2.2,10.2,3.5,15.3c0.1,0.2,0.3,0.5,0.5,0.6
		c2.8,1.7,5.6,3.5,6.5,7.1c0.2,0.7,1.1,1.1,1.7,1.7c0.7-1.3,1.3-2.3,1.9-3.4c0.3,0,0.6,0.1,0.9,0.1c0.1,1.9,0.2,3.9,0.3,6.2
		c0.5-0.5,0.6-0.7,0.8-0.9c0.6-0.7,1.2-1.4,1.7-2.1c0.2,0.9,0.7,1.8,0.6,2.7c-0.2,1.6,0.1,2.7,1.6,3.5c3.2,1.7,6.1,4,9.4,5.3
		c6.4,2.5,12.9,4.6,19.4,6.7c2.4,0.8,4.9,1.1,7.3,1.6c-13.3,0.6-24.7-4.7-36.4-11c0,2.9-0.1,5.4,0,7.9c0.1,2.9,1,3.5,3.9,3.4
		c3.4-0.1,6.9-0.2,10.3,0c10,0.7,20,1.7,30,2.2c8.5,0.4,17.1,0.3,25.7,0.1c8.2-0.2,16.3-0.9,24.4-1.4c0-0.2,0-0.5,0-0.7
		c-2.5,0-5-0.1-7.5,0c-7.4,0.4-14.9,1.1-22.3,1.3c-4.1,0.1-8.4-0.2-12.5-1c-9.3-1.6-18.3-4.5-27.3-7.5c-8.7-2.8-13.6-9.3-18.5-16.1
		c1.5,1.2,2.8,2.6,4.1,4.1c3.7,4.3,7.7,8,13.3,9.7c8.6,2.6,16.9,6.1,26,7.1c3.8,0.4,7.5,1.6,11.2,1.6c12.1,0,24.2-0.4,36.3-0.7
		c2.8-0.1,5.6-0.5,8.2-1.4c11.3-3.8,22.5-7.8,33.7-11.7c1.2-0.4,2.5-0.9,3.7-1.3c0.1,0.4,0.3,0.8,0.4,1.2
		c-11.5,5.6-23.8,9-35.9,13.2c2-0.1,3.9-0.3,5.8-0.7c12-2.8,24-5.7,36.1-8.5c2.1-0.5,3.8-0.9,4.4-3.4c0.3-1.3,1.7-2.4,2.6-3.5
		c1-1.3,2.6-2.4,3.1-3.9c1.8-6,3.2-12.2,4.8-18.3c0,0-0.2-0.2-0.2-0.2c-6,6.1-5.4,15.4-10.7,21.9c-0.1-1.4,0.1-2.8,0.5-4
		c3-9.8,6.4-19.4,9-29.3c3.6-13.7,7.1-27.5,9.9-41.5c1.9-9.5,2.1-19.2,3.9-28.7c1.5-7.9,4.2-15.6,3.8-23.9c0-0.4,0.2-0.9,0.3-1.4
		c2.4-13.3,7.1-26.3,6.5-40.1c0-0.8,0.1-1.7,0.4-2.5c0.2-0.4,0.8-0.7,1.3-1.2c0.7,16.8-5.2,32.2-7.6,48.1c0.2,0.1,0.4,0.1,0.7,0.2
		c0.5-1.3,1.1-2.6,1.6-3.8c0.3,1.4,0,2.6-0.3,3.8c-0.6,2.5-1.4,5-1.8,7.6c-0.9,6.2-1.5,12.5-2.4,18.8c-1.3,8.7-2.9,17.4-4.3,26.1
		c-0.3,2-0.3,4-0.5,6.1c0.3,0,0.6,0,0.9,0.1c6.7-29.9,13.3-59.9,15.1-90.7c0.1,1.4,0.2,2.7,0.3,4.2c0.3-0.2,0.5-0.3,0.5-0.4
		c0.3-1,0.6-2,0.8-2.9c1.7-8.7,2.4-17.3-2.1-25.6c-2.1-3.9-4.7-4.8-8.4-2.3c-2.7,1.9-5.1,4.3-8,6.8c3.1,0.4,5.3-0.2,6.7-2.6
		c0.5-0.9,0.9-2,1.7-2.5c0.9-0.6,2.1-0.9,3.2-1c0.5,0,1.1,1,1.6,1.5c-0.1,0.2-0.1,0.4-0.2,0.6c-2.7-1.1-3.9,0.3-4.8,2.3
		c-0.4,0.8-1.1,1.5-1.9,2c-3.9,3-8.1,1.8-11.9,0.3c-7.7-3.1-7.6-3.3-12.9,3c-4.4,5.2-12.8,6.5-18.3,3.2c-4-2.4-8.2-4.4-12.3-6.5
		c-2.2-1.1-4.1-0.8-5.7,1.2c-1,1.3-2.2,2.4-3.4,3.6c-0.2-0.1-0.4-0.3-0.5-0.4c0.2-0.7,0.4-1.4,0.6-2c-0.9,0.5-1.9,1.3-1.8,1.9
		c0.6,2.3-1.2,2.6-2.5,3.3c-1.1,0.5-2.2,1.1-3.3,1.5c-4.8,1.5-9.5,3.3-14.3,4.2c-5.2,1-9.9-1-14-4.2c-3.6-2.8-7.5-4.8-12.3-4.5
		c-1.8,0.1-3.5,0.1-5.3,0c-2.8-0.2-5.1,0.6-7,2.7c-3.2,3.6-7.4,4.5-11.9,4.2c-3.5-0.2-7.1-0.4-10.5-1.2c-4.7-1.1-9.2-2.7-13.8-4.2
		c-2.2-0.7-3.7-0.3-5.6,1c-4.8,3.4-9.9,6.6-15,9.6c-1.4,0.8-3.4,0.8-5.1,0.9c-2.7,0.1-5.3-2.6-8.2-0.6c-0.1,0.1-0.4-0.1-0.5-0.2
		c-3.4-2.5-6.5-0.6-9.7,0.6c-2.1,0.8-4.3,1.8-6.5,2.3c-1.5,0.4-3.2-0.1-3.7,2.1c-0.1,0.2-1.6,0.3-2.3,0.1c-1.6-0.5-3-1.5-4.6-2
		c-6.1-1.8-10.7-0.2-14,4.7c-0.2,0.3-0.5,0.8-0.7,0.8c-2.7-0.2-2.5,2-2.4,3.4c0.2,2.5,0.9,4.9,1.3,7.4c0.3-0.3,0.6-0.6,0.9-0.9
		c1,0.5,2.3,0.9,3,1.7c0.5,0.6,0.5,1.8,0.6,2.7c0,0.4-0.7,1-0.6,1.2c1.1,1.6,0.4,2.5-1.1,3.3c-0.2,0.1-0.5,0.7-0.4,0.9
		c1,3.4,1,7.2,3.9,10.3c-0.4-1.9-0.7-3.4-1-4.9c0.1,0,0.2-0.1,0.4-0.1c1.4,4.2,2.9,8.4,4.5,13.2c2-7.4,3.8-14.1,5.6-20.7
		c0.3,0.1,0.6,0.2,0.8,0.2c-0.6,1.9-1.2,3.9-1.7,5.8c-1.2,5-2.5,9.9-3.4,14.9c-0.6,3.3,0.1,5.2,1.9,6.7c0.5-2,1-4,1.5-6
		c0.1,3.3-0.8,6.5-0.4,9.6c0.4,3.2,2,6.3,3.1,9.5c0.3-0.1,0.6-0.1,0.9-0.2c0-2.8-0.4-5.6,0.1-8.3c1.8-10.7,3.8-21.4,5.9-32.1
		c0.3-1.6,0.7-3.4,3.2-2.8c0.7,0.1,1.5-0.6,1.9-0.8c4.6,2,7.4,5,5.3,10.3c-0.6-0.8-0.8-1.6-1-2.5c-0.3-1.3-0.6-2.7-1.1-3.9
		c-0.2-0.5-1.3-1-1.5-0.9c-0.5,0.3-0.7,1.1-1.1,1.7c-0.9-2.1-2.1-2.7-4-0.8c2.7,2.6,5.4,5.1,8,7.6c-0.1,0.2-0.2,0.5-0.2,0.7
		c-2.1-1.1-3.6-0.7-3.9,0.6c-0.7-1.5-1.5-3.7-2.8-5.5c-0.9-1.2-2.3-1.3-2.8,0.8c-2.5,11.5-5,23-5.2,34.9c-0.1,6.8,2.1,12.8,3.8,19.1
		c0.6-15.3,2-30.5,6.2-45.4c-0.7,5.4-1.8,10.7-2.5,16.1c-0.7,5.3-0.7,10.7-1.4,16c-0.6,4.5-0.6,12.9,0.4,15.8c1-1.6,2.2-3.5,3.3-5.3
		c0.3-0.5,0.4-1.8,0.3-1.8c-2-0.7-0.6-2.1-0.7-3.1c0-0.6,0-1.3,0.2-1.9c0.8-2.3,1.2-4.8,2.5-6.6c1.8-2.4,4.5-4.2,4.8-7.7
		c0.4,1.2,0.7,2.6,0.1,3.5c-1.5,2.7-3.6,5.1-5,7.9c-0.7,1.4-0.6,3.3-0.9,5c0.3,0.1,0.5,0.2,0.8,0.3c1.5-2.1,3.1-4.1,4.6-6.2
		c0.2,0.2,0.5,0.4,0.7,0.6c-0.5,1-1,2-1.5,2.9c-0.6,1-1.2,2-1.8,3c-2.8,1.1-2.7,3.6-2.9,6c-0.1,1.3-0.2,2.5-0.3,3.8
		c-0.2,0-0.4,0-0.5-0.1c-0.1-1.3-0.2-2.6-0.3-4.3c-3.3,5.1-3.7,11.8-1.4,15.6c1.7-3.2,3.6-6.7,5.4-10.2c1.4-2.6,1.9-5.2,0.7-8
		c0.4,0.7,0.8,1.4,1.4,2.6c1.9-3.6,3.1-6.1,4.5-8.5c0.3-0.5,0.8-0.9,1.1-1.5c1.9-4.3,6.8-7.5,4.7-13.3c3,2.1,4.3-2.1,7.1-1.4
		c-6.3,6-9.8,13.7-13.9,21c-0.8,1.4-0.7,3.4-0.6,5c0.1,1.9,0.8,3.7,1.2,5.6c-0.2,0-0.3,0.1-0.5,0.1c-0.4-1-0.9-2-1.3-3
		c-0.2,0.1-0.3,0.1-0.5,0.2c0.5,1.5,0.9,3,1.4,4.5c0.3,0,0.5,0.1,0.8,0.1c3.1-6.6,6.2-13.1,9.5-20c0.4,1.7,0.7,3,0.8,3.6
		c-1,0.9-1.7,1.4-2,2c-2.2,4.7-4.3,9.5-6.3,14.2c-0.3,0.7-0.4,1.6-0.2,2.4c2.4,9.5,5.9,18.6,10.8,27.1c5.4,9.3,11.3,18.3,17,27.5
		c0.6,0.9,1,1.9,1.5,2.9c-0.3,0.2-0.6,0.3-1,0.5c-6.8-10.8-13.5-21.6-20.3-32.3c-0.2,0.1-0.4,0.2-0.7,0.3c1.8,4.5,3.3,9.2,5.4,13.6
		c2.2,4.3,5,8.3,7.5,12.5c-10.7-10.9-13.5-25.7-18.8-39.9C209,231.4,208.7,231.9,208.4,232.5z M161.4,559.7
		c10.8,3.9,21.9,4.7,33.1,3.5c1.9-0.2,3.9,0.1,5.8,0.2c0.6,0,1.3,0.4,1.9,0.2c2.7-1,5.4-0.9,8.2,0.8c-1.6,0.5-2.9,1.1-4.2,1.1
		c-9.8-0.1-19.6,0-29.3-0.7c-7.1-0.5-14.6-0.8-20.7-5.6c-0.3-0.2-0.7-0.2-1.1-0.3c-3.4-0.6-6.9-0.8-10.1-1.9c-8.4-2.9-16.8-6-25-9.5
		c-3.6-1.5-5.1-5.1-4.9-9c0.2-3.8,2.7-6,6-7.3c6.5-2.4,13-5,19.6-7.3c13.9-4.7,28.2-7.7,43-6.9c2.3,0.1,4.5,0,7.3,0
		c-5.7-5.9-7.1-13.1-7.9-20.6c-4.2,1.1-5.8-3.1-9.1-4.1c0.8,2.7,3.1,4.8,1.7,8.2c-1.9-1.9-3.7-3-6.1-2.3c-0.6,0.2-1.6-0.8-2.3-1.3
		c-1.9-1.3-3.9-2.7-5.8-4c-0.3,0.3-0.5,0.6-0.8,0.9c2.4,2.5,4.9,5,7.3,7.5c-0.3,0.3-0.5,0.6-0.8,0.9c-5.3-3.6-10.6-7.1-16-10.8
		c2.5-2.2,4.5,1.3,7,1.4c1.9-4.5,4.3-0.8,6.5-0.3c1.1-2.6,1.9-2.8,3.9-0.9c1.6,1.5,3.1,3,5.1,5c-2.1-6.8-2.3-6.9-8.3-6.9
		c-9.1,0.1-18.3,0.1-27.4,0.5c-5.1,0.2-10.3,0.7-15.2,1.9c-5.6,1.4-11.1,2.5-16.8,3.1c-5.9,0.7-12.1,1-17.3,4.6
		c-0.5,0.3-1.3,0.1-1.9,0.3c-2.2,0.6-4.4,1.1-6.4,2.1c-1.4,0.6-2.5,1.9-3.8,2.8c-0.1-0.2-0.3-0.4-0.4-0.6c2.6-3.2,5.6-6.5,9.8-6.9
		c4.2-0.4,7.5-3.5,12-3c3.5,0.3,7.1-1,10.6-1.6c3.7-0.6,7.3-1.4,11-1.9c6.3-1,12.6-2.3,19-2.6c11.3-0.5,22.5-0.4,33.8-0.6
		c1.7,0,2.4,0.3,3,2c0.7,2.2,2.4,3.6,5.2,4.2c-1.4-2.4-2.6-4.5-4.2-7.2c2.1,0,3.4,0,5.1,0c-0.7-4.9-1.5-9.5-1.9-14.1
		c-0.3-2.7-1.2-3.2-3.8-2.6c-4.1,1-8.3,1.7-12.5,2.3c-2.3,0.3-4.6,0.2-6.9,0.4c-4.2,0.4-8.3,1.1-12.5,1.5
		c-12.7,1.3-25.4,2.1-38.1,3.8c-10.9,1.5-21.7,4-32.6,6c-1.8,0.3-3.7,0.5-5.4,1.2c-10.5,4.4-21.4,6.7-32.7,7.9
		c-4.4,0.5-8.2,2.3-12,4.8c0.9,0.2,1.4,0.3,2.5,0.4c-8.4,4.3-16.2,8.6-18.2,19.2c0.7-1.1,1-1.7,1.6-2.6c0.4,3.7-2.4,7.3,0.7,10.2
		c2.4,2.3,5.1,4.2,7.7,6.3c-3.4-10.3,1.2-18.1,6.9-22.4c7-5.2,14.9-8.7,23.1-11.5c1.5-0.5,3.2-0.3,4.9-0.5c-1.4,1.1-2.7,2.1-4.2,2.4
		c-7.9,1.5-14.4,5.8-20.8,10.1c-5.7,3.8-7.4,10.7-3.4,14.9c4.3,4.5,9.5,7.5,16.1,6.7c1.2-0.2,2.6,0.4,3.8,0.7c0,0.3-0.1,0.6-0.1,0.9
		c-0.4,0.3-0.9,0.7-1.3,0.7c-7-0.4-13.6-2.1-18.9-7.1c-3.2-3.1-3.5-7.2-2.5-11.8c-6.1,7.2-3.9,16.8,4.5,19.7c3.4,1.2,7.3,1,11,1.4
		c1.5,0.1,3,0,4.5,0c0,0.5,0,1,0,1.4c-5.7,0.4-11.6,1.4-17.1-0.8c-5.4-2.1-10.2-5.6-15.2-8.4c-0.2,3.1,0.7,4.7,3.6,6.2
		c1.2,0.6,2.3,1.1,3.5,1.6c5.1,2.1,10.3,4.1,15.5,6.1c5.4,2.2,10.8,4.4,16.3,6.5c8.1,3.1,16.2,6,24.2,9.3c3.7,1.5,7.2,3.4,11.4,3.3
		c1.6,0,3.3,0.7,4.8,1.3c8.8,3.4,17.9,5.5,27.3,6.5c9.1,1,18.1,2,27.1,3.3c7.9,1.1,15.7,2.7,23.6,4c0.4,0.1,0.8,0.5,1.9,1
		c-1.3,0.2-1.9,0.4-2.4,0.3c-4-0.4-8-0.5-11.9-1.4c-10.8-2.5-21.6-4.5-32.7-5.5c-7.8-0.7-15.5-2.7-23.3-4.1
		c-1.1-0.2-2.2-0.4-3.4-0.6c0.3,0.5,0.7,0.7,1.2,0.9c1.9,0.6,3.7,1.4,5.6,1.8c25.2,6,50.3,12.9,76.4,14.1
		c12.6,0.6,25.1,1.3,37.7,1.7c15.8,0.5,31.7,0.3,47.5,1c22.6,1,45.1,0.2,67.6-1.5c8.8-0.7,17.5-2.6,26.1-4.3
		c7.4-1.4,14.7-3.3,22-4.9c1-0.2,2-0.2,3-0.2c0,0.3,0.1,0.5,0.1,0.8c-1.9,0.7-3.7,1.4-5.6,2.1c8.7-1.1,17.4-2.1,25.9-3.9
		c19.1-4.1,38.1-8.8,56.5-15.4c8.1-2.9,16.2-6.1,23.8-10.3c10.6-5.9,20.6-12.9,31-19.3c3.1-1.9,5.1-4.5,6.1-7.9
		c0.5-1.8-0.1-2.2-1.7-2.2c-3.2,0.1-6.3,0.2-9.5,0.2c-0.8,0-1.5-0.2-2.3-0.4c0-0.3,0-0.6-0.1-0.9c3-1,6-2.1,9.1-3.1
		c0-0.1-0.1-0.2-0.1-0.2c-3.5,0.2-6.9,0.5-10.4,0.7c-0.1-0.5-0.2-1-0.3-1.4c4-1.7,8-3.4,12.6-5.4c-1.8-0.9-3-1.4-4.1-1.9
		c-1.2-0.6-2.3-1.2-3.5-1.8c-0.3-0.2-0.6-0.5-0.9-0.7c-0.7-0.5-1.2-1.3-2-1.4c-1.3-0.2-2.6-0.1-3.5-0.1c-1.5-2.5-3.6-2.8-6.4-3.3
		c0.7,0.9,1.1,1.5,1.2,1.5c-2.6-0.4-5.6-0.8-8.4-1.2c1.5-0.4,3.3-1,5.6-1.7c-6.3-3-12.2-5.5-19-4.9c-1.1,0.1-2.2-0.2-3.2-0.5
		c-0.9-0.3-1.7-1-2.6-1.1c-4.2-0.3-8.3-0.5-12.5-0.5c-0.9,0-2.2,0.5-2.8,1.2c-6,7.7-14.2,11.3-23.5,12.5c-7.5,1-14.3,3.3-20.1,8.2
		c-4.9,4.1-8.6,9.1-11.6,14.9c1.5-0.1,2.9-0.4,4.2-0.9c1.8-0.7,3.6-1.7,5.4-2.3c4.2-1.5,8.5-0.8,12.7,0c5.8,1.1,11.9,1.1,16.7,5.5
		c3.4,3.1,3.6,6.4,0.3,9.7c-2.2,2.1-4.4,4.3-6.5,6.5c-0.6,0.7-0.9,1.7-1.3,2.6c-0.4,0.8-0.8,1.9-1.5,2.4c-2.7,1.7-5.5,3.1-8.2,4.7
		c-3.2,1.9-6.5,3.1-10.3,2.6c0.3-0.5,0.6-0.8,1-0.9c4-0.7,7.3-2.1,10.3-5.3c4.9-5.3,10.5-9.9,15.9-14.7c1.7-1.5,1.6-3.1,0.1-4.3
		c-2.5-2-5.2-4.5-8.1-5.1c-5.4-1.2-11.1-1.2-16.7-1.7c0,0.2-0.1,0.5-0.1,0.7c1.5,0.4,3,0.8,4.5,1.3c3.5,1.3,7.1,2.4,10.3,4.1
		c5,2.6,5.6,8.9,1.3,12.6c-6.7,5.7-14.1,9.9-22.7,11.8c-4.8,1.1-9.6,2.3-14.2,3.4c0.4,0.6,0.8,1.1,1.2,1.6c-0.7,0.2-1.3,0.5-2,0.6
		c-6.6,0.5-13.3,0.4-19.7,1.7c-12.3,2.5-24.6,5.1-37.3,4.6c-2.5-0.1-5.1,0.2-7.5,0.8c-8.3,2.2-16.7,3.6-25.3,3.1
		c-8.8-0.5-17.7-0.4-26.5-0.5c-0.2,0-0.4-0.2-0.9-0.5c6.8-1.7,13.4-1.2,20-1.1c7.4,0.1,15.2,1.1,22.2-0.6c9.8-2.3,19.6-3.2,29.6-3
		c2.5,0,5-0.3,7.5-0.9c3.4-0.8,6.7-2.3,10.1-2.9c15.8-2.8,31.9-4.2,47.3-9.3c6.7-2.2,12.5-5.7,17.5-10.5c2.9-2.8,2.4-6.4-0.7-8.9
		c-2.9-2.3-6.1-3.1-9.7-2.5c-5.9,1-11.8,1.9-17.5,3.3c-5.5,1.3-11,2.9-16.2,5c-4.4,1.7-8.4,4.4-12.5,6.7c-0.9,0.5-1.9,1.4-2.2,2.4
		c-1.1,3.6-3.8,5.6-6.8,7.4c-9.2,5.4-19.4,7.1-29.8,7.4c-16.9,0.4-33.9,0.4-50.9,0.4c-13.1,0-26.2,0.3-39-4.1
		c-3.7-1.3-6.6-2.7-8-6.5c-0.8-2.2-2.3-3.2-4.7-3.1c-3.4,0.1-6.7,0.1-10.1,0c-0.7,0-1.3-0.2-2-0.3c0-0.3,0-0.5,0-0.8
		c3.6-1.4,7.7,0.2,11.7-0.9c-2.7-2.2-5.4-3.4-8.7-3.2c-8.9,0.4-17.9,0.6-26.8,0.9c-1,0-2.1-0.1-3.1-0.2c0-0.3-0.1-0.6-0.1-1
		c0.9-0.2,1.9-0.6,2.8-0.6c7.8-0.2,15.6-0.3,23.5-0.5c1.1,0,2.2-0.2,3.7-0.4c-6.6-4.1-6.6-4.2-13.4-4.3c-10.5-0.2-21-0.6-31.3,2.5
		c1.2-0.9,2.4-1.7,3.7-1.9c8.4-0.8,16.8-1.5,25.3-2.2c1.7-0.1,3.4,0,5.1,0c-2.1-2.3-4.5-1.6-6.8-1.4c-7.3,0.4-14.7,0.9-22,1.2
		c-3.8,0.1-7.6-0.2-11.4-0.5c-0.7-0.1-1.3-0.8-2-1.2c0.6-0.5,1.1-1.1,1.8-1.3c0.9-0.3,2-0.4,3.7-0.7c-1.2,0.7-1.8,1.1-2.4,1.4
		c0.1,0.3,0.1,0.6,0.2,1c11.4-0.3,22.7-0.7,34.1-1c0-0.3,0-0.6,0.1-1c-1.1-0.2-2.2-0.4-4-0.7c1.7-0.1,2.7-0.2,3.6-0.3
		c-0.8-1.2-1.8-2.1-2.9-2.4c-11.3-3-22.4-3-33,2.8c-0.2,0.1-0.6,0.3-0.8,0.2c-2.6-1.4-4.5-0.4-6.3,1.6c-0.4,0.5-1.9,0.3-2.8,0
		c-0.9-0.2-1.7-0.9-2.6-1.4c5.5-2.2,10.9-4.4,16.4-6.4c5.6-2,11.3-3.6,16.9-5.4c-10-4.7-18.8,0.5-28.1,2c0,0.3,0,0.5,0,0.8
		c1,0.2,2.1,0.4,3.1,0.6c0,0.1,0,0.2,0,0.4c-4.6,0.4-9.2,0.9-13.7,1.3c0.1-0.1,0.3-0.5,0.5-0.9c-0.1-0.2-0.3-0.4-0.4-0.7
		c-2.6,1.2-5.1,2.3-7.7,3.5c0.1,0.3,0.2,0.5,0.3,0.8c1.3-0.4,2.5-0.9,3.8-1.3c0.1,0.2,0.2,0.4,0.3,0.6c-1.6,0.8-3.2,1.5-4.9,2.3
		c-4.5,2.1-9.1,4.2-13.5,6.3c-0.7,0.3-1.5,1.1-1.6,1.8c-0.2,0.7,0.2,2.3,0.5,2.4c4.5,0.8,8.9,3.4,13.5,0.7c1,2.8,3.6,0.9,5.4,2.1
		c-1.4,0.1-2.5,0.2-3.7,0.3c0,0.1,0,0.3,0,0.4c3.4,0.3,6.8,0.6,10.8,0.9c-1.1,0.1-1.6,0.2-2,0.2c-8.2,1.1-15.7-2-23.5-3.4
		c-0.7-0.1-1.8-0.3-1.9-0.1c-0.3,0.7-0.4,1.6-0.2,2.3c0.3,0.8,1.1,1.5,1.6,2.2c0.7,0.9,1.4,1.9,2.5,3.5c9.6,4.4,20.6,6.9,32.1,7.2
		c3.8,0.1,7.6,0.9,11.4,1.4c0,0.2-0.1,0.4-0.1,0.6C170.9,559.7,166.1,559.7,161.4,559.7z M402.2,308.2c-0.4-0.1-0.7-0.2-1.1-0.3
		c-0.3,0.9-0.6,1.7-0.9,2.6c-0.2,0.5-0.1,1.3-0.5,1.6c-2.4,2-2.5,4.6-2.2,7.4c1.3,12.8,0.2,25.5-3.7,37.8c-0.4,1.3-1.4,2.5-2.1,3.9
		c-1.8-3,0.7-4.3,1.3-6.2c3.4-11.3,3.7-22.9,3.6-34.6c0-0.2-0.2-0.5-0.6-1.1c-3.6,1.9-7.7,3.2-10.6,5.8c-2.7,2.4-5.5,4-8.8,5.1
		c-4.3,1.4-8.8,2.4-13.1,3.9c-12.1,4.1-24.4,7.4-37.4,6.7c-10-0.5-20.1-0.8-30.1-0.9c-2.3,0-4.8,0.5-7,1.3
		c-6.8,2.8-13.8,1.8-20.7,1.6c0-0.2,0-0.5-0.1-0.7c4.8-0.4,9.6-0.8,14.9-1.2c-9.7-0.6-18.9-1.3-28.1-1.8c-1.4-0.1-2.9,0.7-4.9,1.2
		c2.4,1.5,5.1-0.4,6.9,1.9c-6.6,0-12.8,0-18.9,0c2-0.8,4.1-0.9,6.1-1.2c1.9-0.3,3.7-0.8,5.5-1.3c-0.1-0.2-0.1-0.5-0.2-0.7
		c-7.1,0-14.2,0-21.1,0c-0.5,1.1-0.7,2.1-1.3,2.6c-6.2,5.3-10.6,11.9-14.9,18.7c-2.4,3.9-4.3,8.1-6.4,12.1c0.3,0.2,0.7,0.4,1,0.6
		c1.3-2.2,2.6-4.5,4-6.7c1.5-2.4,3-4.7,4.7-6.9c1.6-2.2,3.3-4.2,5.2-6.2c1.8-2,3.8-3.7,5.8-5.6c0.2,0.2,0.4,0.4,0.5,0.6
		c-0.5,0.6-1,1.2-1.6,1.7c-6.7,6.3-12.3,13.4-16.4,21.7c-1.1,2.3-1.3,4.1,0.1,6.2c0.7,1,1.2,2.1,1.8,3.1c1,1.4,2.1,1.5,2.5-0.3
		c1.2-5.3,6.6-6.9,9.2-10.9c-0.3,1.1-1,1.9-1.6,2.8c-2.2,3-4.3,6-6.6,9c-1.2,1.6-1.1,3.1,0.2,4.5c3.4,3.8,7.2,6.9,12,8.8
		c0.6,0.3,1.2,0.7,1.8,1.1c1.1,0.8,2.1,1.8,3.3,2.3c6.4,2.5,13.2,3.1,20,3.5c1.4,0.1,2.8,0.6,4.2,0.9c-0.1,0.4-0.2,0.9-0.3,1.3
		c-8.1-1.3-16.3-2.5-24.4-4.1c-2.5-0.5-5-1.4-7-3.5c-1.2-1.2-3.2-1.7-5-2.6c-0.2-3.8-4.7-5-6.8-9c-1.4,3.1-3.5,5.5-3.4,7.9
		c0.1,2.4,2.2,4.8,3.6,7c1,1.6,2.5,2.4,3.9-0.1c-0.2,4.1-0.3,4.3,2.9,5.3c4.3,1.4,8.7,2.8,13.1,3.6c6.3,1.2,12.7,1.9,19,2.6
		c1.5,0.2,3.1-0.1,4.6-0.4c2.8-0.6,5.6-1.8,8.5-2c4.1-0.4,8.2-0.3,12.3,0c2,0.1,4,1.1,6,1.8c1.6,0.6,3.1,1.6,4.8,2
		c3.4,0.8,6.9,1.7,10.4,2c6.4,0.5,12.8,0.8,19.2,0.8c2.6,0,4.5-1.7,6-4.1c1-1.7,2.4-3.8,4.1-4.3c6.4-2.1,13.1-4.7,19.6-0.1
		c0.9,0.6,2,1.1,3,1.3c5.3,1.3,10.6,2.6,16,3.8c4.9,1.1,9.2,0,13.6-2.3c5.9-3.1,11.6-7.2,18.8-7.3c0.6,0,1.6-1.3,1.6-2
		c0-1.7-0.8-3.4-0.7-5c0.3-4.5,0.9-9,1.4-13.5c2.1-19.8,4.3-39.6,3.5-59.6c-0.2-5.5,0-11,0-16.6c-0.4,0-0.9,0-1.3,0
		c-0.1,1.3-0.4,2.7-0.3,4c1.5,13.5,0.2,26.9-1.9,40.3c-2.1,13.4-3.5,26.9-5.2,40.4c-0.3,2.6-1.1,5.1-1.7,7.6c-0.1,0.5-0.6,0.9-1,1.4
		c-0.5-1-0.4-1.7-0.2-2.5c0.4-2.8,0.9-5.7,1.3-8.5c1.3-9.6,2.5-19.2,3.7-28.8c1.4-11,3.2-21.9,4.3-32.9
		C403,320.2,402.3,314.2,402.2,308.2z M23.6,541.8c-0.2,0.2-0.3,0.3-0.5,0.5c0.3,0.6,0.6,1.4,1,1.9c4.2,4.6,9.1,8.2,15.4,9.6
		c2.7,0.6,5.4,1.4,8,2.4c8.2,3.4,16.1,7.2,24.4,10.2c7.7,2.9,15.9,4.6,23.6,7.5c18.8,7,38,11.7,58.1,12.8c5.3,0.3,10.7,0.7,16,1.1
		c1.9,0.2,3.8,0.9,5.8,1.1c11.6,1.2,23.2,2.3,34.7,3.3c10,0.8,20.1,1.7,30.1,2.1c11.4,0.4,22.7,0.8,34.1,0.5
		c16.1-0.5,32.2-1.6,48.3-2.7c14.4-0.9,28.8-1.8,43.1-3.2c13.5-1.4,26.9-3.5,40.4-5.1c12.9-1.5,25.5-4.2,37.6-9.1
		c8-3.3,16.1-6.3,24.1-9.5c4.6-1.8,9.5-3.2,13.5-5.8c7.4-4.9,14.3-10.7,21.3-16.2c2.5-1.9,4.8-4.1,7.2-6.1c-0.2-0.2-0.3-0.4-0.5-0.5
		c-2.8,1.8-5.5,3.8-8.4,5.2c-7.9,3.9-15.9,7.6-24,11.2c-15.3,6.8-31.4,11.5-47.5,16c-16.8,4.7-34,7.3-51.1,10.4
		c-2,0.4-4.1,0.2-6.1,0.4c-4.3,0.3-8.7,0.5-13,1.1c-3,0.4-6,1.2-9,1.9c-19.1,4.2-38.6,4.7-58.1,5.1c-16.7,0.3-33.3-0.6-50-1.1
		c-22.3-0.7-44.7-1.4-67-2.2c-4.5-0.2-9.1-0.2-13.6-0.9c-9.9-1.7-19.7-3.8-29.6-5.7c-27.8-5.1-54.6-13.6-80.6-24.8
		c-7-3-14.2-5.5-21.3-8.3C27.9,543.9,25.8,542.8,23.6,541.8z M400.5,236.7c-0.4,1.7-0.7,3.3-1,4.8c-0.4,1.5-0.6,3.1-1.1,4.6
		c-1,2.8-0.9,5.2,1.6,7.2c0.8,0.6,1.2,1.6,1.7,2.5c2.4,4.6,7.3,5.3,11,1.5c3.7-3.8,4.3-7.2,1.7-12.4c-1.5-3-2.1-6.1-0.4-9.1
		c1.5-2.7,3.2-5.5,5.5-7.6c3.8-3.4,8.1-6.1,12.3-9.1c0.7-0.5,1.5-0.8,2.3-1c13.2-3.9,25.2-10.5,37-17.3c2.6-1.5,5.3-3.7,6.8-6.3
		c4.3-7.3,6.3-15.5,6.5-23.9c0.2-8-2.5-15.2-9-20.5c-8.7-7-18.3-10.6-29.7-9.2c-9.1,1.1-16.8,4.4-22.8,11.5c-1.7,2-2.5,4.2-2,6.5
		c4.8-1.4,9.4-3.2,14.1-4.2c11.5-2.4,27.2,8.2,24.2,21.5c-0.4,1.7-0.1,3.6-0.4,5.3c-0.4,2-0.9,4-1.8,5.8
		c-5.1,9.2-12.9,14.9-23.1,17.5c-6.3,1.6-12.2,3.9-17,8.5c-2.3,2.2-4.1,4.5-4.3,7.8c-0.2,2.5-0.6,5-0.8,7.5
		C411.3,237.8,409.4,239.2,400.5,236.7z M181.4,596.6c0.1-0.3,0.3-0.6,0.4-0.9c0.5,0.2,1,0.4,1.5,0.6c0.6,0.2,1.2,0.4,1.8,0.6
		c13.2,4.1,26.6,6.7,40.4,8.3c14.1,1.7,28.1,3.7,42.4,2.7c1-0.1,2,0,3.1,0c8.2-0.2,16.4-0.2,24.6-0.7c5.3-0.3,10.5-1.6,15.8-1.6
		c12.5-0.1,24.9-1.1,37.2-3.3c9.4-1.7,18.9-3,28.4-4.2c12.9-1.6,24.3-7.4,36.2-11.9c0.8-0.3,1.4-0.8,2.1-1.3c-0.6-0.5-1-0.5-1.3-0.5
		c-13.8,1.8-27.6,3.6-41.5,5.2c-11.9,1.4-23.8,2.8-35.8,3.6c-13,0.9-26.1,1-39.1,1.9c-21.5,1.6-43,2.2-64.5,0.3
		c-20.2-1.7-40.4-3.3-60.6-5c-4.7-0.4-9.3-1.2-13.9-1.8c8.9,9.2,20.4,11.1,32.7,12.3C187.5,599.5,184.5,598,181.4,596.6z
		 M435.4,199.3c-0.1-0.3-0.3-0.6-0.4-0.8c2.8-1.8,5.5-3.6,8.3-5.3c5.8-3.6,10.1-8.5,12.1-15.1c0.6-2.1,0.8-4.8-0.1-6.7
		c-1.7-3.7-4.8-6.3-8.7-7.9c-5.6-2.2-11.3-1.4-17.1-0.9c-10.1,0.9-17.1,8.5-18.7,17.5c-3.1,17.2-6.3,34.4-9.3,51.6
		c-0.2,1.2,0.7,2.6,1.2,3.8c0.2,0.3,1.1,0.7,1.4,0.5c0.5-0.3,1-1,0.9-1.5c-0.8-5.9,2.3-10.5,5-15.3c4.1-7.4,9.1-13.4,18.2-15
		c3.6-0.7,6.9-3.2,10.3-4.8c-0.1-0.2-0.2-0.4-0.3-0.6C437.3,198.9,436.4,199.1,435.4,199.3z M177.6,313.7c0.1-1.4,0.6-2.9,0.3-4.1
		c-0.5-2.5-1.5-4.9-2.3-7.3c-0.7-2.2-2.6-1-3.9-1.1c-2.1-0.2-4.2,0-6.3-0.1c-0.6,0-1.3-0.1-1.9-0.2c-0.9-0.3-1.7-0.9-2.5-0.9
		c-7-0.1-12.3,3.2-16.8,8.5c-3.5,4.2-5,4.3-10,2.3c-0.9-0.3-2.2-0.6-2.8-0.1c-5.3,3.7-8.2,8.7-7.5,16c3.4-3.8,2.7-8.9,5.7-12.4
		c-0.1,1.4-0.2,2.8-0.3,4.7c1.4-1.5,2.5-2.6,3.6-3.8c0.2,0.1,0.4,0.3,0.5,0.4c-0.8,1.2-1.5,2.4-2.4,3.5c-2.9,3.4-4.9,7.4-3.8,11.8
		c1.4,5.6,3.2,11.1,5.4,16.5c1,2.5,3,4.7,4.7,6.9c1.2,1.6,2.4,3.6,4.1,4.5c6.8,3.7,13.5,7.5,21.6,8.7c7.2,1.1,14.1,3.7,19.5,9.3
		c1.7,1.8,4.2,2.9,6.4,4.4c1-9-2.1-13.9-8.5-16.4c-4.1-1.6-8-3.2-12.5-4c-5.3-1-10.2-4.2-14.9-7.1c-1.8-1.1-3.2-3.7-3.8-5.9
		c-1.1-4-1.7-8.2-2.2-12.3c-0.6-5.2-0.1-10.3,3.3-14.6C156.1,313.2,167.6,310.2,177.6,313.7z M195.4,91.6c0.1-1,0.2-1.5,0.2-2
		c-0.1-12.6-0.1-25.1-0.3-37.7c0-1.9-0.8-3.8-1.6-5.6c-3.5-8.3-19-12-26.8-4.7c-7.5,7-8.9,15.3-7.4,24.7c1.2,7.4,5.1,12.8,12.2,15.7
		C179.5,85.2,188.2,86,195.4,91.6z M416.5,481.7c-0.1,0.3-0.1,0.7-0.2,1c0.7,0.2,1.4,0.4,2.1,0.5c1.5,0.2,3,0.2,4.4,0.4
		c6.5,0.9,13,2.1,19.6,2.9c4.7,0.6,6.8-1.8,6-6.5c-0.1-0.9-0.4-1.9-0.2-2.7c1-3,0-5.4-2-7.6c-2.2-2.5-3.6-5.4-2.7-8.7
		c0.7-2.4,0-3.6-2-4.7c-3-1.7-3.4-4.7-1-7.2c1.8-1.9,4-3.3,5.8-5.2c1-1,1.9-2.4,2-3.7c0.2-2.5,0-5.1-0.6-7.5
		c-1.6-6.4-4.5-7.9-11.8-6.1c-1,0.3-2,1-2.9,1.7c-2.3,1.8-4.7,3.7-6.9,5.7c-5,4.4-7.4,9.7-7.4,16.6c0,8.7-1.2,17.4-2.1,26.1
		c-0.4,3.6-0.1,4.1,3.4,4.3c8,0.4,16,0.9,24,1.4c0.8,0.1,1.6,0.6,2.4,0.9c-0.1,0.3-0.2,0.7-0.3,1
		C436.3,483.3,426.4,482.5,416.5,481.7z M419.7,430.9c4.1-3.1,8.2-6.1,12.2-9.3c2.7-2.1,5.8-2.4,9-2.3c2.4,0.1,4.9-0.2,5.9,2.8
		c0.1,0.3,0.8,0.4,1.2,0.6c8.1,5,9.5,15.1,2.9,21.9c-1.4,1.5-2.9,2.9-4.3,4.4c-3.6,3.7-3.3,6.7,1,9.6c2.5,1.7,4.3,3.9,4.1,6.9
		c-0.3,6.4-0.4,12.9-1.5,19.1c-1.3,7.2-7.6,12.6-14.5,13.1c-5.8,0.4-11.1,2-16.1,4.9c-1.3,0.7-2.8,1-4.2,1.5
		c6.8-5.1,14.4-7.5,22.7-8.5c3.2-0.4,5.4-2.3,7.1-4.9c-1.8,0.6-3.4,1.4-5,2.2c-5.2,2.4-10.7,3-16.3,3.3c-9.9,0.6-15.2,5.9-15.8,16.1
		c7.4-7.9,16.9-9.5,26.5-11.2c6.8-1.2,12.8-4.1,17.3-10.2c3-4,5.3-7.9,6.4-12.6c1.5-6.1,2.1-12.2-3.4-17c-0.2-0.2-0.3-0.6-0.6-1.3
		c2.8,0.3,5.3,0.7,8.1,1c-0.4-1.3-0.5-1.9-0.8-2.8c1.1,0.2,2,0.6,2.5,0.3c0.9-0.4,2.2-1.1,2.3-1.9c0.2-1.1-0.4-2.5-1.1-3.4
		c-0.2-0.3-2.1,0.1-2.7,0.7c-2,1.8-4.1,2.5-6.6,1.3c-2.5-1.2-2.8-3.7-2.1-5.8c1-2.9,2.8-5.5,4.4-8.2c2.3-3.7,5.4-7,7-10.9
		c4.4-10.7-4.3-21.9-15.9-20.8c-4.2,0.4-8.6,0.9-12.6,2.3C423.2,416.5,420.2,420.4,419.7,430.9z M324.4,337c1.2,0.4,2.5,1.4,3.7,1.2
		c1.9-0.2,3.7-1.1,5.7-1.6c6.9-1.6,11.2-6.3,15.1-11.7c2.4-3.4,3.3-7.7,2.6-10.5c-1.2,0.7-2.4,1.6-3.8,2.2
		c-3.7,1.7-8.6,0.7-10.5-1.9c-2.1-2.9-1.6-7,1.1-10.3c1-1.3,2.1-2.5,3.2-3.9c-12.7,1.7-25.1,3.3-37.8,4.9c1.6,2.4,3.1,4.4,4.4,6.6
		c5.4,9,3.1,16.8-6.2,21.3c-2.9,1.4-6,2.7-9,4c12.1,1.8,23.8-1.1,35.7-1.4C327.3,336.4,325.9,336.7,324.4,337z M156.2,31.5
		c-1.8,1.5-3.8,2.9-5.4,4.6c-7.9,8.1-11.8,17.7-10.8,29.1c0.5,5.3,2.7,9.6,7.5,12.4c3.8,2.3,8,4.2,11.4,6.9
		c4.9,3.8,10.3,5.9,16.2,6.9c3.9,0.7,7,2.6,9.2,5.8c4.3,6.1,8.8,12.1,11.4,19.3c-0.4-4.6-0.8-9.2-1.9-13.6
		c-2.1-8.3-7-14.3-15.8-16.1c-1.7-0.3-3.7-0.2-5.2-1c-6-3.4-12.2-6.2-14.1-14.3c-2.4-10.1-2-19.3,3.6-28.1c6-9.4,17.5-11.6,26.7-5.2
		c0.9,0.6,1.9,1,3.4,1.7c-0.4-2.1-0.4-3.8-1-5.1c-0.4-0.8-1.6-1.5-2.6-1.8c-2.4-0.8-5-1.2-7.3-2c-2.1-0.8-4-2.7-6.2-2.9
		c-3.8-0.5-7.8-0.6-11.7-0.1c-3.1,0.4-6.2,1.9-9.2,2.9c0.1,0.2,0.2,0.5,0.3,0.7C155.4,31.4,156,31.4,156.2,31.5z M186.6,365.2
		c-0.1-1.2-0.2-2.3-0.4-3.4c-1.1-5.9-2.2-11.7-3.3-17.5c-1.6-8.3-3.3-16.6-5.1-24.8c-0.2-0.8-1.4-2.1-2.1-2.1
		c-4.2-0.2-8.6-0.6-12.7,0c-4.4,0.6-8.7,5.7-8.8,9.7c-0.1,5,0.1,10.1,0.2,15.1c0.1,3.6,2,6.4,4.3,9.2c3.1,3.8,8.1,4.1,11.9,6.8
		C175.1,361.4,181,362.8,186.6,365.2z M379.7,291.9c-0.1-0.2-0.2-0.4-0.3-0.6c-9.3,2.3-18.6,4.5-28,6.8c2.8,2,5.8,3.2,8.3,5
		c1.7,1.2,3.8,2.9,4.2,4.7c1.1,6.3-0.1,12.2-4.7,17.1c-1.6,1.8-3.1,3.7-5.1,6.1c1.8-0.3,2.9-0.4,3.8-0.7c3.4-1,6.7-2.6,10.1-3.1
		c6.1-0.8,11.6-2.9,17-5.8c1.9-1,3.5-2.5,5.3-3.7c-0.1-0.1-0.1-0.1-0.2-0.2c-5.2,2.3-10.3,4.5-15.5,6.8c-0.2-0.3-0.4-0.7-0.6-1
		c0.9-0.7,1.7-1.5,2.6-2.1c3.3-1.9,6.9-3.4,9.9-5.7c3.8-2.9,8.5-5.1,10-11.2c0,2.1,0,3.4,0,4.7c0.2,0.1,0.4,0.2,0.7,0.3
		c0.8-1.2,1.8-2.2,2.3-3.5c1.7-5,0.3-9.7-3.9-12.9c-0.9-0.7-2.5-0.9-3.6-0.7c-4.3,1.1-8.6,2.4-12.9,3.7c-0.7,0.2-1.7,0.8-1.9,1.4
		c-0.7,2.3-0.5,4.6,1.4,6.5c2.1,2,4.5,2.2,7,1.1c2.2-1,3.5-2.7,3.1-5.3c0-0.1-0.3-0.2-0.6-0.4c-0.6,0.2-1.4,0.5-2.1,0.8
		c-0.3-2.3,0-2.9,1.7-3c2.6-0.1,3.8,2.5,2.6,5.6c-1.3,3.1-4.9,5.3-8,4.8c-4-0.6-6.7-3.2-7.2-7c-0.2-1.3-0.7-2.5-1-3.7
		C375.7,295.3,377.7,293.6,379.7,291.9z M242.2,305.5c-5-0.3-9.9-0.7-15.2-1c1.5,3.8,5.7,0.5,7.5,3.8c-1.7,0-3,0-4.2,0
		c-2.4-0.1-5,0.1-5.3-3.4c0-0.4-0.7-0.9-1.2-0.9c-2.2-0.3-4.5-0.5-6.9-0.8c1.2,2,2.6,3.6,3,5.3c1.2,6.1,0.1,11.7-4.7,16.1
		c-2.5,2.3-5.3,4.2-8.4,6.5c2.1,0.3,3.7,0.6,5.5,0.9c-0.3-1.1-0.4-1.9-0.7-3.1c4,3.5,4,3.5,8.5,0.5c-0.9,1.3-1.7,2.6-2.7,3.9
		c0.6,0.2,1.2,0.5,1.8,0.6c3,0.6,6,1.2,9.1,1.5c3.3,0.3,7,1.2,9.8,0c4.9-2.1,9.3-5.4,13.6-8.6c2.2-1.6,3.7-4.1,5.5-6.2
		c-5.4,1.9-11.3,0.9-15.4-2.8c-2.8-2.6-3.7-5.2-2.5-8.1C240,308.4,241.1,307.2,242.2,305.5z M213.2,354.8c-0.2-0.2-0.3-0.3-0.5-0.5
		c3.9-4.5,7.8-9,11.9-13.6c-4.9-0.5-9.6-0.8-14.2-1.6c-4.8-0.8-9.4-2-14.5-3c0.2,3.6,0.5,6.9,0.7,10.3c-0.3,0-0.6,0.1-0.9,0.1
		c-0.2-2.6-0.3-5.2-0.7-7.8c-0.2-1.5-0.9-3-1.6-5c5.4,0,10.7,3.3,16.7,3.2c-7.2-2.6-14.4-5.2-21.6-7.9c2.2,9.8,4.4,20,6.7,30.2
		c0.8-0.9,1.3-2,1.4-3c0.1-1.1-0.3-2.2-0.4-3.3c-0.1-1,0-2,0-3c0.2,0,0.4,0,0.7,0c0.3,1.6,0.6,3.2,1,5.3c2.5-3.1,4.7-5.8,6.8-8.5
		c-1.6,3.2-3.4,6.1-5.4,9c-1.9,2.7-1.2,8.6,0.6,9.1c0.2,2.3,0.3,4.4,0.4,6.5c0.3,0,0.6,0.1,1,0.1c0.5-1.4,0.8-2.8,1.5-4
		c0.7-1.3,1.9-2.3,2.8-3.4c0.8-1,1.5-2.1,2.3-3.2c0.1,0.1,0.1,0.2,0.2,0.3c-1.5,3.1-3,6.1-4.4,9.1c-0.6,0.6-1.6,1.1-2.1,2
		c-1.1,1.9-0.7,3,0.7,4.7c4.7-8.4,9.5-17,14.3-25.5C215.4,352.4,214.3,353.6,213.2,354.8z M214.1,323.6c1.3-2,2.8-4,3.9-6.2
		c2.2-4.2-0.6-13.6-5-14.3c-4.6-0.8-9.2-1.8-13.6,0.6c-0.8,0.4-1.5,1.4-1.7,2.2c-1.3,5.5,2.9,9.7,9.1,9.2c3-0.2,4.7-1.9,4.5-4.9
		c-0.1-0.9-0.9-2.2-1.6-2.4c-1.1-0.3-2.4,0.3-3.7,0.5c0.1,0.4,0.1,0.7,0.2,1.1c1.3,0.1,2.6,0.1,4.6,0.2c-1.8,2.1-3.5,2.2-5.2,1.6
		c-0.7-0.3-1.6-1.7-1.4-2c0.7-1.3,1.6-2.7,2.9-3.3c2.3-1.1,5.3,0.6,6,3c0.8,2.8-1.4,7.3-4,7.6c-2.3,0.3-4.7,0.3-6.9-0.2
		c-4.2-0.9-6.2-3.8-6.2-8.1c0-1.4,0-2.8,0-4.1c-2.9-1.9-6.5,1.2-9.1-1.6c0-0.1-0.5,0.2-1.4,0.7c0.4,5.1,0.8,10.5,1.3,15.9
		c0.2,1.9,0.7,3.4,2.9,3.8c0.7,0.1,1.3,0.6,1.9,1.1c3,2.3,6.4,3.1,10.2,3.2c3.9,0.2,7.2-0.8,9.7-3.9c2.4-3.1,4.9-6.3,2.7-10.8
		C216.6,313.3,216.6,313.3,214.1,323.6z M348.2,331.6c0.7,0.1,0.9,0.1,1.2,0.1c0.3,0,0.6-0.1,0.8-0.3c6.1-4.6,11.3-9.7,12.5-17.7
		c0.9-5.9,0-7.5-5.2-10.3c-1.1-0.6-2.4-1.1-3.5-1.7c-6.6-3.1-11.2-1.6-14.9,4.7c-1.4,2.4-1.9,4.9-0.1,7.3c1.9,2.5,4.6,2.5,7.4,1.8
		c2.9-0.7,4.9-2.9,5.2-5.6c0.2-1.9,0.1-3.5-2.6-2.7c-0.5,0.1-1.2-0.7-1.8-1c0.5-0.4,0.9-1.2,1.4-1.3c2.8-0.6,4.7,0.9,4.7,3.9
		c0,2.5,0,5-0.1,7.5c-0.1,4.5-1.7,8.3-4.8,11.6c-0.4,0.4-0.7,0.9-1,1.4c5.5-4,9.5-8.9,10.1-15.9C358.8,321.6,353,326.2,348.2,331.6z
		 M226.5,534.9c-4.3-3.3-6.9-7.6-8.9-12.5c-1-2.6-2.9-4.9-4.4-7.3c-0.2-0.3-0.3-0.7-0.6-1.4c1.2,0.5,2,0.9,2.9,1.3
		c0.1-3.2-0.8-5.8-3-7.8c-0.3-0.2-1.1,0.2-1.1,0.2c-1.7-4.1-3.4-8.2-5.1-12.3c-0.3,0.1-0.6,0.2-0.9,0.3c0,3.9,0.1,7.8,0,11.7
		c-0.1,2.5-0.7,5-0.7,7.6c0,1.2,0.5,2.6,1,3.8c0.3,0.7,1,1.3,1.4,2C211.4,528,217.6,533.2,226.5,534.9z M253.2,332.6
		c4.6-1.4,7.8-4.3,8.2-9.3c0.2-2.6-0.6-5.4-0.5-8c0.4-8.1-11.7-12.1-18.3-7c-2.3,1.8-2.8,5-0.8,7.1c3,3.1,6.7,4.6,11.1,4.1
		c2.2-0.2,3.2-2.1,2.9-4.8c-0.3-2.2-1.9-2.9-3.8-2.9c-2.4,0-3,1.1-2.2,3.2c0.4-0.4,0.9-0.8,1.4-1.3c0.4,0.5,1.2,1.1,1.2,1.6
		c-0.1,0.8-0.6,1.8-1.2,2.2c-1.8,0.9-3.9-0.8-3.8-3.1c0.1-2.1,0.9-3.8,3.3-4.2c2.6-0.5,5.9,0.7,6.4,2.8c0.7,2.9,1.1,6,1.4,9
		c0.1,1.1-0.6,2.2-1,3.3c-0.1,0-0.2-0.1-0.3-0.1c0.1-0.7,0.1-1.4,0.2-1.5c-4.9,4-10,8.2-15.2,12.4c5.4,0.2,9.7-1.5,12.4-6.8
		c0.2,0.2,0.3,0.5,0.5,0.7C254.5,330.7,253.9,331.7,253.2,332.6z M423.5,149.3c-3.6,1.3-7.4,2.9-8.4,6.8c-1.1,4.4-1.4,8.9-2,13.4
		c5.4-7.1,13-8.6,21.1-9.2c8.4-0.7,15.8,1.1,21.9,7.7c0.1-1.2,0-2.3-0.6-3c-3.5-4.5-7.9-7.9-13.7-8.9c-7.8-1.4-14.7,0.9-21,5.3
		c-0.8,0.6-1.7,1.1-2.1,1.4c0.3-2.2,0.9-4.3,0.9-6.4c0-2.3,0.6-4,2.3-5.4C422.3,150.4,422.9,149.9,423.5,149.3z M199.8,71
		c3.5-0.9,4.4-1.6,4.5-3.9c0.1-3.2-0.2-6.5-0.2-9.7c0-0.7,0.3-1.5,0.4-2.3c0.2,0,0.4,0.1,0.6,0.1c0.2,3.6,0.3,7.2,0.5,10.8
		c0.3,0.1,0.6,0.1,0.9,0.2c1.5-3.6,3.9-7.2,4.4-11c0.7-5.9,0.2-12,0.2-18.2C203.9,44.7,198.4,61.3,199.8,71z M443.5,488.7
		c-7.1-1.1-13.6-2.2-20.1-3.2c-1.9-0.3-3.9-0.5-5.8-0.5c-0.7,0-1.9,0.5-2,1c-0.8,3.5-1.3,7-1.9,10.2c6.5-1,12.6-1.9,18.7-2.8
		C436.4,492.8,439.9,491.2,443.5,488.7z M342.6,605.4c1,0.3,1.1,0.4,1.3,0.4c3.6,0,7.3-0.1,10.9,0c18.2,0.4,35-5,51.4-11.9
		c1.8-0.8,3.2-2.4,4.8-3.7c-0.1-0.2-0.3-0.4-0.4-0.6c-4.5,1.7-9,3.3-13.5,5c-4.1,1.5-8.1,3.5-12.3,4.3c-6.7,1.2-13.7,1.3-20.5,2.4
		C357.2,602.3,350.2,603.9,342.6,605.4z M202.9,288.1c0-0.3,0.1-0.6,0.1-0.9c-6-3.4-11.8-2.7-17.4,1.1c-1,0.6-1.7,1.6-2.5,2.4
		c0.9,0.8,1.8,1.8,2.8,2.4c6.5,3.9,14.1,4.1,21.2,6.4c1,0.3,2.3,0,3.5,0c-0.5-4.9-1.7-5.7-5.9-4.7c-2.3,0.6-4.7,0.8-7.1,1.1
		c-0.5,0.1-1.1-0.6-1.6-0.9c0.1-0.2,0.2-0.4,0.3-0.5c3.2-0.4,6.4-0.7,9.5-1.1c0-0.3,0-0.7,0-1c-2.7-1.2-5.4-2.4-8.1-3.6
		c0-0.3,0.1-0.5,0.1-0.8C199.3,288.1,201.1,288.1,202.9,288.1z M420.3,393c-1,0-1.8,0.2-1.9,0c-1.8-2.5-3.5-1.1-5.2,0.1
		c-0.5,0.4-1.1,1.1-1.6,1.1c-2.8-0.1-2.9,2-3.5,3.8c-0.4,1.2-1.2,2.3-1.8,3.5c-0.2-0.1-0.4-0.2-0.6-0.4c0.6-1.9,1.3-3.7,1.9-5.6
		c-0.3-0.1-0.6-0.3-0.8-0.4c-1.1,2.8-6,3.3-3.8,8.6c2.1-0.6,4.8-0.7,6.5-2c3.9-2.9,7.8-4.1,12.5-2.3c2,0.7,3.8,0.3,4.9-1.5
		c1-1.7,2.6-4.3,1.9-5.4c-0.8-1.5-3.5-2.1-5.4-2.7c-1.3-0.4-2.8-0.1-4.7-0.1C419.3,391.1,419.6,391.8,420.3,393z M224.1,408
		c-7.3-1.7-12.2-6.2-16-13.2c-0.9,3.4-1.7,6.1-2.5,8.9c-0.2-0.1-0.5-0.1-0.7-0.2c0.4-2.2,0.3-4.7,1.2-6.7c2.3-4.7-1.4-7.2-3-10.7
		c-2.5,4.1-3.1,8-1.2,12.2c1.1,2.3,0.9,4.8-0.9,7.2c-0.5-2-1.1-3.9-1.6-5.9c-0.2,0-0.5,0.1-0.7,0.1c-0.2,2.9-0.5,5.9-0.7,9.6
		C207,404.9,215.5,405.3,224.1,408z M348.8,18C341.3,14.2,249,5.2,241.1,7.3c1.4,0.5,2.4,1.1,3.4,1.2c8.6,0.9,17.2,2.2,25.9,2.3
		c22.5,0.3,44.8,2.4,67.1,5.5C341.2,16.8,345,17.4,348.8,18z M198.3,519.1c0.1-0.8,0.2-1,0.2-1.1c-0.2-0.4-0.4-0.8-0.7-1.2
		c-6.2-9.7-9.2-20.6-11.5-31.8c-0.5-2.6-0.2-5.4-0.7-8c-0.8-4.2-2.2-8.3-3.1-12.4c-1-4.6-1.7-9.2-2.5-13.9c-0.4,1.3-0.6,2.5-0.4,3.6
		c0.8,6.7,1.8,13.5,2.4,20.2c1.1,14.6,5,28.2,13.2,40.4C196.1,516.3,197.1,517.5,198.3,519.1z M199.5,114.4c1.3,1.1,2,1.6,2.7,2.2
		c-0.8,0.4-1.6,0.8-2.4,1.2c-0.4,0.2-0.9,0.4-1.7,0.8c9.8,0.2,8.5,0.9,9.5-7.3c-1,1.5-1.8,2.6-2.6,3.7c-0.2-0.1-0.5-0.3-0.7-0.4
		c0.7-3.2,1.8-6.2,4.4-8.7c2.5,2.6,0.3,5.2,0.3,8.2c1-1.5,1.7-2.6,2.9-4.3c1.5,3.7-0.5,6.8,0.3,9.8c1.5-2.5,2.9-5,3.9-7.7
		c0.3-0.9-0.3-2.6-1-3.3c-3-2.7-6.2-5.2-9.6-7.9c-1.7,2.1-3.6,4.3-5.4,6.6c1,0.3,1.7,0,2.4,0c0.8,0,1.7,0.1,2.5,0.2
		c-0.4,0.7-0.6,1.4-1.1,2C202.3,111.1,200.9,112.8,199.5,114.4z M438.2,139.5c0.1,0.4,0.2,0.9,0.3,1.3c13.9-4.5,26.2-1.1,37.3,7.5
		c12.1,9.5,12,22.6,9.6,36.6c2.5-2.8,3.3-5.5,2.9-8.7c-0.4-3.6-0.6-7.2-1.1-10.8c-0.9-7.7-3.5-14.7-10.1-19.1
		c-9.5-6.4-20.1-9.6-31.6-9.2C443.1,137.2,440.7,138.7,438.2,139.5z M143.8,527.3c-0.1-0.3-0.3-0.7-0.4-1c-7.8,2.1-15.3,5-22.3,9
		c-3.1,1.8-3.3,5.4-0.6,7.7c1.6,1.3,3.5,2.1,5.8,3.4c-0.4-4.5-0.4-8.2,3.6-10.9c-1.4-0.2-2.2-0.3-2.4-0.4
		C132.6,532.7,138.2,530,143.8,527.3z M207.2,287.3c-1.2-3.4-1.7-6.4-3.3-8.8c-0.6-0.8-3.6,0-5.5,0.1c-0.1,0-0.2,0-0.3,0
		c-5.7,0.8-10.9,3-15.1,7.1c-0.5,0.5-0.5,1.5-0.8,2.3c0.7-0.2,1.5-0.3,2.1-0.7c6.1-4.2,12.3-5.4,19.1-1.6
		C204.4,286.2,205.4,286.5,207.2,287.3z M183.4,98.8c-2.4-4-4.2-5.4-7.9-6c-7.1-1.3-13.6-3.7-19-8.6c-0.9-0.8-1.8-1.7-2.9-2.1
		c-4.7-1.7-8.9-4.1-12-8.1c1.6,4.7,4.5,8.3,9,10.4c6.3,3,12.7,5.7,19,8.5C173.9,94.8,178.3,96.7,183.4,98.8z M397.9,531.7
		c7.2-0.5,14.1-1,21.5-1.6c-0.8-0.7-1-0.9-1.3-1c-7.1-2.5-14.3-2.5-21.6-0.6c-0.6,0.1-0.9,1.2-1.4,2c-0.9,0.4-2.3,0.8-3.3,1.6
		c-0.6,0.5-0.8,1.6-1.2,2.5c0.9,0.2,1.8,0.6,2.5,0.4c2.7-0.6,5.4-1.4,8.5-2.3C400.3,532.3,399.3,532.1,397.9,531.7z M331.9,115.1
		c-8.9-1.5-17.2-2.9-25.4-4.2c0.7,1.2,1.4,2.7,2.5,4c1,1.2,2.2,2.7,3.6,3.1C319.4,119.9,325.3,116.2,331.9,115.1z M203.1,485.9
		c-3.9,12.5-5.7,23.5,0.7,28.7C203.3,505,205.8,495.8,203.1,485.9z M144.9,82.7c2.6,4.5,6.3,8.3,11.1,10.1
		c8.8,3.2,17.7,5.6,26.6,8.4c-3.6-2.2-7.4-3.9-11.2-5.5C162.2,92,153,88.6,144.9,82.7z M426.7,431.5c2.8-2.2,4.9-4.2,7.4-5.5
		c6-3.1,13.5-2.7,15.2,6.2c0.7,3.7,1.9,7.4,0.3,11.3c1.5-2.4,3.1-4.9,3.4-7.5c0.9-6.6-2.8-11.4-9.2-12.9
		C437.6,421.7,429.1,425.5,426.7,431.5z M460,213.9c-17.1,1.9-28.7,7.5-31.2,11.3C439,221,450.7,221.4,460,213.9z M200.2,238.9
		c0.3-4.2,0.3-8.2,0.8-12.2c0.5-4,1.4-8,2-12.1c0.2-1.3,0-2.6,0-4.5C196.2,218.3,195,231.8,200.2,238.9z M395,276.4c0,0,0.1,0,0.1,0
		c-0.1,1.4-0.2,2.8-0.3,4.1c-0.1,1.9,1,2.4,2.4,1.5c1.7-1,3.2-2.2,4.7-3.4c1.9-1.5,2-3.8,0.5-5.1c-1.7-1.5-4.2-2.1-6.4-3.1
		c-0.4,1.4-0.8,2.8-1.1,4.2C394.9,275.3,395,275.8,395,276.4z M189.8,397.5c0-0.3-0.1-0.6-0.1-0.9c-2,0.2-4.1,0.4-6.1,0.5
		c-4.2,0.2-8.4,0.1-12.5,0.6c-4,0.5-7.6,2.1-9.4,6.1c-0.4,0.9-0.1,2.2-0.1,3c4.7-2.6,8.8-5.7,13.4-7.2
		C179.7,398.2,184.8,398.2,189.8,397.5z M338.5,338.8c12.5-1.8,24.4-5.6,35.8-11C362.1,330.8,349.8,333.2,338.5,338.8z M402.5,302.6
		c2.5-3.9,1.7-12.5-1.2-15.6c-1.3-1.3-2.8-1.6-4.2-0.3c-1,0.9-1.6,2.2-2.5,3.3C398.6,293.5,402.7,296.7,402.5,302.6z M189.3,406.4
		c0-0.3,0-0.6,0-0.9c-1.8-0.1-3.6-0.2-5.5-0.4c-1.6-0.2-3.5-0.2-4.8-1c-3.8-2.2-7.1-0.1-10.5,1.1c-0.6,0.2-0.9,1.7-1,2.6
		c0,0.2,1.3,0.8,2,0.8C176.1,407.9,182.7,407.1,189.3,406.4z M194.4,30.2c0.4-0.1,0.8-0.2,1.2-0.2c-0.2-11.3,1.3-21.8,11.9-28.6
		c-2.3,0.6-4.5,1.3-6,2.8c-6.3,6.5-8.3,14.7-8.3,23.5C193.2,28.5,194,29.3,194.4,30.2z M127.4,309.5c0.1-0.3,0.2-0.6,0.4-0.9
		c-0.8-0.7-1.7-1.4-2.5-2.2c-2.4-2.5-3.6-5.7-2.2-8.7c2.7-5.7,4.5-12.5,12.5-13.4c0.2,0,0.3-0.3,0.6-0.5c-2.8-0.5-5.1,0.2-7.4,1.8
		c-4.5,3.1-6.8,7.4-7.9,12.6c-0.8,3.9,0.3,7.2,3.1,9.8C124.8,308.9,126.2,309,127.4,309.5z M7.4,530.3c-0.3-2.3-0.2-4.4-0.9-6.1
		C5.3,521,5.2,518,6.4,515c0.9-2.3,2-4.6,3-6.9C-0.8,515,0.2,526.8,7.4,530.3z M474.1,201.7c-3.5,1.9-6.9,3.6-10.2,5.4
		c-3.4,1.8-6.7,3.7-10.6,5.9C462.4,212.4,470.4,211.1,474.1,201.7z M254.3,412.7c-8.9-1.3-17.4-2.5-26.1-3.7
		C231.7,413.4,250.2,416.2,254.3,412.7z M378,110.3c-4.4-0.4-8.9-0.4-13.2-1.2c-4.2-0.8-8.2-2.6-12.3-3.9c3.9,2.6,7.8,5,11.8,7.3
		C367.9,114.5,374.1,113.9,378,110.3z M208.1,390.8c4.5-5.3,3.9-10.6-1.3-13.7C203.2,382.7,203.4,385.5,208.1,390.8z M182.4,314.1
		c0.3-1.3,0.7-2,0.7-2.7c0.2-4,0.1-8,0.5-11.9c0.3-2.9-1.2-4-3.6-4.7C178.3,301.5,179.6,307.6,182.4,314.1z M191.3,472.1
		c-1.3,8.7,1.1,16.9,3.2,25.1c1.2-4.5,2.3-9,0-13.9c-0.5,1.7-1,3.1-1.4,4.5c-0.3,0-0.6-0.1-0.8-0.1
		C194.6,482.3,193.9,477.1,191.3,472.1z M380.6,288.5c5.2-0.5,7.8-2.4,8.5-7.2c1-7.1,2.9-14.2,4.3-21.3c0.2-0.9,0.3-1.7,0.5-2.6
		c-0.8,1.2-1.2,2.5-1.6,3.9c-1.4,5.3-2.7,10.6-4.3,15.8c-0.9,3-2.1,5.9-4.8,7.9C382.2,285.8,381.6,287.1,380.6,288.5z M126,304.5
		c-0.1-1.1-0.4-2-0.3-2.9c0.5-2.4,0.3-5.7,1.9-7c3.7-3.3,6.6-8.1,12.4-8.4c-4.7-1.8-9.9,0.4-12.6,5
		C123.1,298.6,122.7,301.6,126,304.5z M221.7,411c4.8,3.9,8.3,9.5,15.3,11.5C235.1,416.7,226.7,410.4,221.7,411z M295.9,416.3
		c9.2,5.4,16.2,5.7,21.2,1.3C310.2,417.2,303,416.7,295.9,416.3z M192.8,500c0.5,7.1,11.3,25.8,15.1,26.9
		C203,518.2,197.9,509.2,192.8,500z M125.6,332c-2.1,7,1.7,17.6,6.5,19.5C130.1,345.3,128,339,125.6,332z M248.7,416.7
		c-5.2-0.8-10.4-1.7-15.5-2.5C236.2,419.9,245.3,421.4,248.7,416.7z M515.3,504.2c6.5,6,8.1,12.9,3.7,20.9
		C525.9,516.5,525.8,508.3,515.3,504.2z M187.7,334.8c1.4,10.2,2.9,20.5,4.3,30.7c0.3,0,0.6-0.1,1-0.1
		C193.3,354.9,190,345,187.7,334.8z M181.6,415.2c-0.2,0.4-0.5,0.8-0.7,1.1c2.8,2,5.7,4,8.5,6c-0.4,0.3-0.8,0.7-1.2,1
		c1.5-0.9,2.9-1.7,5-3C189.1,418.6,185.3,416.9,181.6,415.2z M221.2,539.7c3.4,3.9,8,3.2,12.2,4.1c1.9-1.8,0.3-3.6-1-3.6
		c-2.1,0.1-3.8-1.3-5.9-0.9C224.8,539.7,223.2,539.6,221.2,539.7z M402.8,395.7c3.7-1.7,7.6-3.4,11.5-5.1c-0.1-0.2-0.1-0.5-0.2-0.7
		c-1.5,0-3.1,0-4.6,0c-6,0-6,0-6.6,6.1C402.9,396.1,402.9,396.3,402.8,395.7z M60.7,486.6c-0.1-0.4-0.1-0.8-0.2-1.2
		c-6.7,0.8-13.4,1.7-19.6,4.7c0.1,0.3,0.2,0.7,0.2,1C47.7,489.7,54.2,488.1,60.7,486.6z M183.7,204.8c2.4,8.2,4.9,16.5,7.3,24.7
		C189.6,221,188.9,212.2,183.7,204.8z M180.6,437.6c0.4-4.5,0.8-8.4,1.1-12.3c0-0.6-0.2-1.7-0.6-1.9c-0.8-0.3-1.8-0.2-2.7,0
		c-0.3,0.1-0.5,1.2-0.4,1.8C178.7,429.2,179.6,433.1,180.6,437.6z M63,482.3c0.1,0.3,0.1,0.7,0.2,1c8.7-1.5,17.4-3,26.1-4.4
		c-0.1-0.4-0.1-0.8-0.2-1.2C80.4,479.2,71.7,480.8,63,482.3z M410,222.8c-3.1,4.2-3.8,8.3-3.2,12.7
		C410.4,235.1,409.9,232.4,410,222.8z M386.5,262.4c3.2-8.2,7-16.3,6.9-25.4C391.1,245.5,388.8,254,386.5,262.4z M152.1,341.2
		c0-5.1,0-9.8,0-14.8C148.8,331.7,148.8,336.6,152.1,341.2z M186.4,204.3c0.4-0.1,0.7-0.2,1.1-0.4c-2.4-7.2-4.7-14.4-7.1-21.6
		c-0.4,0.1-0.8,0.3-1.2,0.4C181.6,189.9,184,197.1,186.4,204.3z M184.3,524.8c0,0.2,0.1,0.4,0.1,0.5c5,0,10.1,0,15.3,0
		c-1.8-3.5-3.2-4-6.1-2.7c-0.9,0.4-1.7,1.2-2.7,1.4C188.7,524.5,186.5,524.6,184.3,524.8z M228.9,301.6c-0.1,0.3-0.1,0.6-0.2,0.9
		c9.7,0.8,19.4,1.6,29.1,2.4c0-0.3,0.1-0.7,0.1-1C248.2,303.1,238.6,302.4,228.9,301.6z M151.1,346.5c-0.2,0.2-0.4,0.5-0.6,0.7
		c1.6,4.7,6.4,8.6,11.2,9.2C158.3,353.3,154.7,349.9,151.1,346.5z M414,478.2c0.5-7.1,0.9-14.2,1.4-21.4
		C412.9,466.2,412.2,476,414,478.2z M161.4,144.2c-2.2,8.6,4.3,12.9,8.6,18.3C167,156.5,160.9,152,161.4,144.2z M182.1,402.4
		c0.1,0.3,0.1,0.6,0.2,0.9c3,0.2,6.1,0.4,9.1,0.4c0.6,0,1.1-1,1.7-1.5c-0.6-0.5-1.2-1.6-1.7-1.5
		C188.3,401.1,185.2,401.8,182.1,402.4z M423.1,145.1c0.2,0.3,0.4,0.6,0.6,0.8c4.8-2.2,9.9-3.8,13.7-7.7c-0.1-0.3-0.3-0.5-0.4-0.8
		C432.3,140,427.7,142.6,423.1,145.1z M468.9,454.8c0.2,0,0.4,0,0.6-0.1c-0.4-2.4-0.6-4.8-1.3-7.1c-0.2-0.7-1.8-0.9-2.8-1.3
		c-0.2,0.9-0.8,2.1-0.5,2.7C466,451.1,467.5,452.9,468.9,454.8z M392.3,100c0.5,0.1,1,0.1,1.5,0.2c0.8-6.3,1.5-12.5,2.3-18.8
		c-0.3,0-0.6-0.1-0.9-0.1C394.2,87.6,393.3,93.8,392.3,100z M342.7,406c-5.5,0.4-12.2-0.9-16.6,4.9
		C331.7,409.2,337.5,407.5,342.7,406z M207.5,6.3c-0.2-0.4-0.4-0.8-0.8-1.5c-1,1.5-4,1.4-2.6,4c-1.2,1.6-2.3,3.2-3.5,4.8
		c0.1,0.1,0.3,0.1,0.4,0.2c3.2-2.8,6.4-5.6,9.7-8.3c-0.1-0.2-0.1-0.3-0.2-0.5C209.5,5.3,208.6,5.8,207.5,6.3z M199.8,376.6
		c-2.3,3-2.6,7.2-0.6,10.3C200.6,383.5,202.1,380.3,199.8,376.6z M123.4,347.5c-0.8-5.8-1.6-11.3-2.3-16.4
		C120.4,336.5,118.7,342.3,123.4,347.5z M518.9,512.3c-0.1-2.3-1.2-3.3-3.1-2.7c-2.5,0.8-4.9,1.8-8,3c3.7,0,6.6,0,9.5,0
		C517.8,512.6,518.2,512.5,518.9,512.3z M204,83.9c-0.3-0.2-0.6-0.4-0.9-0.6c-1.2,1.4-2.6,2.7-3.6,4.2c-0.4,0.5-0.2,1.7,0.2,2.3
		c0.2,0.3,1.3,0.3,1.9,0.1C205.4,89,203.4,86,204,83.9z M183,438.9c-0.6,6.4,1.4,14.6,3.9,17.1C185.6,450.2,184.3,444.5,183,438.9z
		 M395.5,285.7c-3.7,1.3-7.1,2.5-11.1,4C392.1,291,392.7,290.7,395.5,285.7z M213.8,299.6c3.5,0.5,3.6,0.4,3.9-2.4
		c0.2-2.3,0.3-4.7,0.5-7c-0.1,0-0.2-0.1-0.3-0.1C216.5,293.1,215.2,296.2,213.8,299.6z M205.3,120.8c-4.4-0.3-8.7-0.6-11.1,4.4
		C197.9,123.7,201.6,122.2,205.3,120.8z M214.3,290.6c0.3,0,0.5,0,0.8,0.1c2.7-6.1,3.4-8.3-0.1-9.3
		C214.8,284.5,214.6,287.6,214.3,290.6z M189.9,90.4c2,3.5,4.1,7,5.9,10.2C196.6,96.5,193.6,90.7,189.9,90.4z M393.8,270.5
		c-0.2,0-0.5-0.1-0.7-0.1c-0.9,4.4-1.8,8.8-2.7,13.2c0.3,0.1,0.5,0.1,0.8,0.2C394,279.7,393,274.9,393.8,270.5z M401.6,519
		c-0.2-0.2-0.3-0.4-0.5-0.6c-2.5,2.6-5.1,5.3-7.6,7.9c0.2,0.2,0.4,0.4,0.7,0.6C397.7,525.3,400.1,522.5,401.6,519z M367.8,549.7
		c-0.3-0.4-0.5-0.7-0.8-1.1c-3.7,1-5.5,4.6-8.5,6.6c0.2,0.3,0.4,0.6,0.6,0.8C362.1,553.9,365,551.8,367.8,549.7z M204.4,92.7
		c-0.3-0.1-0.6-0.2-0.9-0.3c-1.2,1.1-2.5,2.1-3.6,3.3c-0.3,0.3-0.5,1-0.4,1.4c0.1,0.3,0.8,0.7,1.1,0.6c1.3-0.4,2.9-0.7,3.7-1.6
		C204.8,95.4,204.4,93.9,204.4,92.7z M176.2,298.3c-1.8-2.2-11-2.9-14.5-0.7C166.6,297.8,171.4,298.1,176.2,298.3z M140.8,470.1
		c0,0.4,0.1,0.7,0.1,1.1c5.1-0.6,10.1-1.2,15.2-1.9c0-0.3-0.1-0.6-0.1-0.8C150.9,469,145.8,469.6,140.8,470.1z M206.7,333.7
		c0,0.3-0.1,0.5-0.1,0.8c3.7,0.1,6.9,3.5,10.9,1.5c0-0.3,0.1-0.7,0.1-1C214,334.5,210.4,334.1,206.7,333.7z M182.2,123.9
		c0,0.3,0.1,0.6,0.1,0.9c3.3,0,6.8,0.9,9.8-1.2c-0.1-0.4-0.1-0.7-0.2-1.1C188.6,122.9,185.4,123.4,182.2,123.9z M448.9,468.8
		c0.1-4-0.7-5.9-3-7.4C445.2,465.1,446,467.2,448.9,468.8z M397.7,252.9c-0.3,0.2-0.6,0.4-0.9,0.5c-0.6,3.7,0.9,5.8,4.3,5.4
		C400,256.8,398.8,254.9,397.7,252.9z M415.7,468.3c0.3,0,0.5,0.1,0.8,0.1c0.3-5.1,0.6-10.2,0.9-15.2c-0.3,0-0.6,0-0.9-0.1
		C416.3,458.1,416,463.2,415.7,468.3z M162.2,140.7c0.8-3.2,1.5-6.1,2.1-9C161.2,134.4,160.7,137.3,162.2,140.7z M399,234.5
		c-0.3-0.1-0.7-0.1-1-0.2c-0.9,4-1.7,8-2.6,11.9c0.3,0.1,0.7,0.1,1,0.2C397.3,242.4,398.2,238.5,399,234.5z M196.7,370.3
		c2-3.7,0.3-6.6-0.4-9.9C194.3,363.9,195.9,366.8,196.7,370.3z M404.1,280.8c-1.5,1.2-2.6,2-4,3.2c1.5,1.1,2.8,2.1,4.7,3.5
		C404.5,284.9,404.3,283.1,404.1,280.8z M455.8,450.1c-0.2,0.1-0.4,0.3-0.7,0.4c0.8,1.1,1.4,2.5,2.5,3.2c1.4,0.9,2.8,0.2,3.4-1.4
		C459.1,451.5,457.5,450.8,455.8,450.1z M188.1,478.2c0.3,0,0.5,0,0.8-0.1c-0.4-4.9-0.8-9.8-1.3-14.7c-0.3,0-0.6,0.1-0.8,0.1
		C187.2,468.5,187.6,473.3,188.1,478.2z M149.3,325.9c-0.3-0.2-0.5-0.5-0.8-0.7c3.1-2.6,6.2-5.2,9.7-8.1
		C153.9,319,151,321.9,149.3,325.9z M167.1,155.2c0.3-0.1,0.5-0.2,0.8-0.2c-0.1-2.9-1-5.4-3.6-7c-0.2,0.1-0.5,0.2-0.7,0.4
		C164.8,150.6,166,152.9,167.1,155.2z M441.7,454c1.3-2.4,2.5-4.9,3.7-7.2C440.7,449.7,439.8,451.6,441.7,454z M189.7,298.3
		c3.5,3.6,5.5,4.2,7.5,2.6C194.7,300,192.2,299.1,189.7,298.3z M204.1,99.2c-4.7,0.4-5.6,1.5-3.9,4.8
		C201.4,102.5,202.5,101.1,204.1,99.2z M212.6,282.5c1.3-2.9,1-5.4-1.8-7.3C211.4,277.6,212,280.1,212.6,282.5z M424.1,430.8
		c-3.4,2.4-4.5,4.6-4.2,7.7C421.5,435.8,422.8,433.3,424.1,430.8z M519.6,514.7c-3.1,0.6-5.6,1.1-8.1,1.6
		C518.4,517.2,518.5,517.2,519.6,514.7z M450.8,469.5c0-3.5,0-6.9-3.3-9.3C448.6,463.3,449.7,466.3,450.8,469.5z M388.7,102.7
		c2.1,1.1,4,2.2,6.2,3.3C393.6,102.4,391.8,101.5,388.7,102.7z M178,417.9c0.8,1.5,1.3,2.6,2,3.7c0,0.1,1.6-0.6,1.6-0.8
		C181.5,419.1,181,417.7,178,417.9z M202.7,74.7c-3.5,2.8-4,4-2.6,6.9C201,79.3,201.7,77.3,202.7,74.7z M201.6,80.3
		c2.5,0,3.1-1.5,2.3-6C203,76.5,202.3,78.2,201.6,80.3z M129.4,473.7c0-0.2,0-0.4,0.1-0.6c-3.7,0.4-7.4,0.8-11.1,1.2
		c0,0.3,0.1,0.5,0.1,0.8C122.1,474.6,125.7,474.1,129.4,473.7z M185.9,335.9c-0.2,0-0.5,0.1-0.7,0.1c0.6,3.9,1.2,7.7,1.9,11.6
		c0.2,0,0.4-0.1,0.6-0.1C187,343.6,186.5,339.8,185.9,335.9z M198.3,371.3c-0.3,0-0.6,0-0.8,0c0,2,0,3.9,0,5.9c0.3,0,0.6,0,0.8,0
		C198.3,375.2,198.3,373.2,198.3,371.3z M236.6,113.7c-0.2-0.3-0.4-0.6-0.6-0.9c-2,1.3-4,2.6-6.1,4c0.2,0.3,0.4,0.6,0.6,0.9
		C232.6,116.4,234.6,115.1,236.6,113.7z M165.1,24c0,0.2,0,0.4,0,0.6c3.6,0.4,7.2,0.7,10.8,1.1c0-0.3,0-0.6,0.1-0.9
		C172.3,24.5,168.7,24.3,165.1,24z M410.8,388.6c0.1-0.4,0.1-0.8,0.2-1.2c-2.1-0.2-4.2-0.3-6.3-0.5c0,0.4-0.1,0.8-0.1,1.2
		C406.6,388.3,408.7,388.5,410.8,388.6z M244.7,558.1c0.2-0.4,0.4-0.8,0.5-1.1c-2-0.9-4.1-1.8-6.1-2.7c-0.2,0.3-0.3,0.6-0.5,1
		C240.7,556.1,242.7,557.1,244.7,558.1z M504.4,537c-0.1-0.2-0.3-0.4-0.4-0.7c-2.6,1.5-5.1,3.1-7.7,4.6c0.2,0.3,0.3,0.5,0.5,0.8
		C499.4,540.2,501.9,538.6,504.4,537z M193.3,221.3c-0.3,0.1-0.6,0.1-0.9,0.2c0.4,2.3,0.7,4.6,1.1,6.9c0.3-0.1,0.6-0.1,1-0.2
		C194.1,225.9,193.7,223.6,193.3,221.3z"/>
	<g>
		<path fill="#E6E6E6" d="M172.2,591.9c0,0.2-0.1,0.5-0.1,0.7c5,0.9,10,1.8,15,2.7c0-0.2,0.1-0.4,0.1-0.6
			C182.1,593.9,177.2,592.9,172.2,591.9z"/>
		<path fill="#E6E6E6" d="M423.5,149.3c-0.6,0.5-1.1,1.1-1.7,1.6c-1.6,1.4-2.3,3.2-2.3,5.4c0,2.1-0.6,4.2-0.9,6.4
			c0.4-0.3,1.3-0.8,2.1-1.4c6.4-4.4,13.2-6.7,21-5.3c5.8,1,10.2,4.3,13.7,8.9c0.6,0.7,0.7,1.8,0.6,3c-6-6.6-13.5-8.4-21.9-7.7
			c-8.1,0.7-15.7,2.1-21.1,9.2c0.6-4.5,0.9-9.1,2-13.4C416.1,152.2,419.8,150.7,423.5,149.3z"/>
		<path fill="#E6E6E6" d="M342.6,605.4c7.7-1.5,14.6-3.1,21.6-4.2c6.8-1,13.7-1.2,20.5-2.4c4.2-0.8,8.2-2.8,12.3-4.3
			c4.5-1.6,9-3.3,13.5-5c0.1,0.2,0.3,0.4,0.4,0.6c-1.6,1.3-3,2.9-4.8,3.7c-16.4,6.9-33.3,12.3-51.4,11.9c-3.6-0.1-7.3,0-10.9,0
			C343.7,605.8,343.5,605.7,342.6,605.4z"/>
		<path fill="#E6E6E6" d="M420.3,393c-0.7-1.2-1.1-1.9-1.8-3.2c1.9,0,3.4-0.3,4.7,0.1c2,0.6,4.6,1.2,5.4,2.7c0.6,1.1-1,3.7-1.9,5.4
			c-1,1.8-2.9,2.2-4.9,1.5c-4.6-1.7-8.6-0.5-12.5,2.3c-1.7,1.3-4.4,1.4-6.5,2c-2.2-5.3,2.8-5.8,3.8-8.6c0.3,0.1,0.6,0.3,0.8,0.4
			c-0.6,1.9-1.3,3.7-1.9,5.6c0.2,0.1,0.4,0.2,0.6,0.4c0.6-1.2,1.4-2.3,1.8-3.5c0.6-1.9,0.8-3.9,3.5-3.8c0.5,0,1-0.7,1.6-1.1
			c1.7-1.2,3.4-2.6,5.2-0.1C418.5,393.2,419.3,393,420.3,393z"/>
		<path fill="#E6E6E6" d="M224.1,408c-8.7-2.8-17.2-3.1-26.1,1.4c0.3-3.7,0.5-6.6,0.7-9.6c0.2,0,0.5-0.1,0.7-0.1
			c0.5,2,1.1,3.9,1.6,5.9c1.9-2.4,2-4.9,0.9-7.2c-2-4.2-1.4-8.1,1.2-12.2c1.7,3.5,5.4,5.9,3,10.7c-1,1.9-0.9,4.4-1.2,6.7
			c0.2,0.1,0.5,0.1,0.7,0.2c0.8-2.7,1.5-5.5,2.5-8.9C211.9,401.9,216.8,406.3,224.1,408z"/>
		<path fill="#E6E6E6" d="M198.3,519.1c-1.2-1.6-2.2-2.8-3.1-4.1c-8.2-12.2-12.1-25.8-13.2-40.4c-0.5-6.8-1.6-13.5-2.4-20.2
			c-0.1-1.2,0-2.4,0.4-3.6c0.8,4.6,1.5,9.3,2.5,13.9c0.9,4.2,2.2,8.2,3.1,12.4c0.5,2.6,0.2,5.4,0.7,8c2.3,11.1,5.3,22,11.5,31.8
			c0.3,0.4,0.5,0.8,0.7,1.2C198.6,518.1,198.5,518.3,198.3,519.1z"/>
		<path fill="#E6E6E6" d="M199.5,114.4c1.4-1.7,2.9-3.3,4.2-5c0.5-0.6,0.7-1.3,1.1-2c-0.8-0.1-1.7-0.2-2.5-0.2c-0.7,0-1.4,0.3-2.4,0
			c1.8-2.2,3.7-4.5,5.4-6.6c3.4,2.8,6.6,5.2,9.6,7.9c0.8,0.7,1.3,2.4,1,3.3c-0.9,2.7-2.3,5.2-3.9,7.7c-0.8-3,1.2-6.1-0.3-9.8
			c-1.2,1.7-1.9,2.9-2.9,4.3c0-2.9,2.2-5.5-0.3-8.2c-2.5,2.5-3.7,5.5-4.4,8.7c0.2,0.1,0.5,0.3,0.7,0.4c0.8-1.1,1.6-2.3,2.6-3.7
			c-1,8.2,0.4,7.5-9.5,7.3c0.9-0.4,1.3-0.6,1.7-0.8c0.8-0.4,1.6-0.8,2.4-1.2C201.5,116,200.8,115.5,199.5,114.4z"/>
		<path fill="#E6E6E6" d="M438.2,139.5c2.5-0.8,4.9-2.3,7.4-2.4c11.5-0.3,22.1,2.8,31.6,9.2c6.6,4.5,9.2,11.5,10.1,19.1
			c0.4,3.6,0.7,7.2,1.1,10.8c0.4,3.1-0.4,5.8-2.9,8.7c2.4-14,2.5-27.1-9.6-36.6c-11-8.7-23.3-12.1-37.3-7.5
			C438.4,140.4,438.3,139.9,438.2,139.5z"/>
		<path fill="#E6E6E6" d="M285.1,309.5c-1.2,1.5-2.5,3-3.6,4.5c-1.8,2.6-1,5.6,1.8,7.1c4.2,2.2,12.3,1.1,15.3-2.4
			c0.9-1,1.6-3.8,1.1-4.3c-1.2-1.1-3.3-1.7-4.9-1.5c-1.4,0.2-2.6,1.7-3.9,2.6c-0.1,0.1,0.1,0.9,0.4,1.1c0.3,0.2,0.9,0,1.2-0.2
			c0.4-0.2,0.8-0.7,1.1-1c0.2,0.1,0.5,0.3,0.7,0.4c-0.3,0.8-0.5,1.8-1.1,2.2c-0.8,0.5-2,0.8-2.8,0.4c-0.7-0.3-1.4-1.6-1.4-2.4
			c-0.1-2.3,2.3-4.7,4.7-5.2c2.9-0.5,6.7,0.7,7.5,2.5c1,2,0.2,5.3-1.9,7.1c-5.2,4.4-11.1,4.4-17,2.2c-4-1.5-4.8-7.3-1.8-10.9
			c1-1.2,2.4-2,3.6-3C284.5,309,284.8,309.2,285.1,309.5z"/>
		<path fill="#E6E6E6" d="M183.4,98.8c-5-2.2-9.5-4-13.9-5.9c-6.4-2.8-12.8-5.5-19-8.5c-4.4-2.1-7.3-5.8-9-10.4
			c3.2,4,7.3,6.4,12,8.1c1.1,0.4,2,1.3,2.9,2.1c5.4,4.9,11.9,7.4,19,8.6C179.2,93.5,181,94.8,183.4,98.8z"/>
		<path fill="#E6E6E6" d="M397.9,531.7c1.3,0.3,2.3,0.6,3.9,1c-3.2,0.9-5.8,1.7-8.5,2.3c-0.8,0.2-1.7-0.3-2.5-0.4
			c0.4-0.8,0.5-2,1.2-2.5c1.1-0.8,2.4-1.2,3.3-1.6c0.5-0.8,0.8-1.9,1.4-2c7.2-1.9,14.4-1.9,21.6,0.6c0.2,0.1,0.4,0.3,1.3,1
			C412,530.7,405.1,531.2,397.9,531.7z"/>
		<path fill="#E6E6E6" d="M331.9,115.1c-6.6,1.1-12.5,4.8-19.3,2.8c-1.4-0.4-2.6-1.9-3.6-3.1c-1.1-1.3-1.8-2.8-2.5-4
			C314.7,112.2,323.1,113.6,331.9,115.1z"/>
		<path fill="#E6E6E6" d="M203.1,485.9c2.8,9.9,0.3,19.1,0.7,28.7C197.4,509.4,199.2,498.4,203.1,485.9z"/>
		<path fill="#E6E6E6" d="M144.9,82.7c8.1,5.9,17.4,9.3,26.5,13c3.9,1.5,7.6,3.3,11.2,5.5c-8.9-2.8-17.9-5.2-26.6-8.4
			C151.1,91,147.5,87.2,144.9,82.7z"/>
		<path fill="#E6E6E6" d="M426.7,431.5c2.4-6,10.9-9.8,17.2-8.4c6.4,1.5,10.1,6.2,9.2,12.9c-0.3,2.6-1.9,5.1-3.4,7.5
			c1.5-3.9,0.4-7.6-0.3-11.3c-1.7-8.9-9.2-9.3-15.2-6.2C431.6,427.3,429.5,429.3,426.7,431.5z"/>
		<path fill="#E6E6E6" d="M460,213.9c-9.3,7.4-21,7.1-31.2,11.3C431.4,221.4,442.9,215.8,460,213.9z"/>
		<path fill="#E6E6E6" d="M200.2,238.9c-5.2-7-4-20.6,2.8-28.8c0,1.9,0.2,3.3,0,4.5c-0.6,4-1.5,8-2,12.1
			C200.5,230.6,200.5,234.6,200.2,238.9z"/>
		<path fill="#E6E6E6" d="M200.4,201.5c0.2,1,0.5,2,0.7,2.9c1.1,2.8,0.6,5.4-0.7,8c-1.9,3.4-3.7,6.9-5.4,10.2
			c-2.3-3.8-1.9-10.5,1.4-15.6c0.1,1.7,0.2,3,0.3,4.3c0.2,0,0.4,0,0.5,0.1c0.1-1.3,0.2-2.5,0.3-3.8
			C197.7,205.1,197.6,202.6,200.4,201.5z"/>
		<path fill="#E6E6E6" d="M395,276.4c0-0.6-0.2-1.1-0.1-1.7c0.3-1.4,0.7-2.8,1.1-4.2c2.2,1,4.7,1.6,6.4,3.1c1.5,1.3,1.4,3.6-0.5,5.1
			c-1.5,1.2-3.1,2.4-4.7,3.4c-1.5,0.8-2.5,0.4-2.4-1.5c0.1-1.4,0.2-2.8,0.3-4.1C395.1,276.4,395.1,276.4,395,276.4z"/>
		<path fill="#E6E6E6" d="M189.8,397.5c-5,0.7-10.1,0.7-14.8,2.2c-4.6,1.5-8.7,4.6-13.4,7.2c0-0.8-0.4-2.1,0.1-3
			c1.8-3.9,5.5-5.6,9.4-6.1c4.1-0.5,8.3-0.4,12.5-0.6c2-0.1,4.1-0.3,6.1-0.5C189.7,396.9,189.7,397.2,189.8,397.5z"/>
		<path fill="#E6E6E6" d="M338.5,338.8c11.4-5.6,23.7-8,35.8-11C362.9,333.2,350.9,337,338.5,338.8z"/>
		<path fill="#E6E6E6" d="M402.5,302.6c0.2-5.9-3.9-9.1-7.9-12.6c0.9-1.2,1.5-2.4,2.5-3.3c1.4-1.3,3-1,4.2,0.3
			C404.2,290,405.1,298.7,402.5,302.6z"/>
		<path fill="#E6E6E6" d="M189.3,406.4c-6.6,0.7-13.1,1.5-19.7,2.1c-0.7,0.1-2-0.6-2-0.8c0.1-0.9,0.4-2.4,1-2.6
			c3.4-1.2,6.6-3.3,10.5-1.1c1.3,0.8,3.2,0.8,4.8,1c1.8,0.2,3.6,0.3,5.5,0.4C189.2,405.8,189.2,406.1,189.3,406.4z"/>
		<path fill="#E6E6E6" d="M194.4,30.2c-0.4-0.8-1.2-1.7-1.2-2.5c0-8.8,2-17,8.3-23.5c1.4-1.5,3.6-2.2,6-2.8
			c-10.6,6.8-12.1,17.3-11.9,28.6C195.2,30,194.8,30.1,194.4,30.2z"/>
		<path fill="#E6E6E6" d="M474.1,201.7c-3.7,9.4-11.7,10.7-20.8,11.3c3.9-2.2,7.2-4.1,10.6-5.9C467.2,205.3,470.6,203.6,474.1,201.7
			z"/>
		<path fill="#E6E6E6" d="M254.3,412.7c-4.1,3.5-22.6,0.7-26.1-3.7C236.9,410.2,245.4,411.4,254.3,412.7z"/>
		<path fill="#E6E6E6" d="M378,110.3c-3.9,3.6-10.1,4.2-13.8,2.1c-4-2.3-7.9-4.7-11.8-7.3c4.1,1.4,8.1,3.1,12.3,3.9
			C369.1,109.9,373.6,109.9,378,110.3z"/>
		<path fill="#E6E6E6" d="M208.1,390.8c-4.6-5.3-4.9-8.1-1.3-13.7C212,380.2,212.5,385.5,208.1,390.8z"/>
		<path fill="#E6E6E6" d="M182.4,314.1c-2.7-6.6-4-12.6-2.5-19.4c2.5,0.8,3.9,1.9,3.6,4.7c-0.4,4-0.3,8-0.5,11.9
			C183,312.1,182.7,312.8,182.4,314.1z"/>
		<path fill="#E6E6E6" d="M191.3,472.1c2.6,5,3.2,10.2,1,15.6c0.3,0,0.6,0.1,0.8,0.1c0.4-1.4,0.9-2.8,1.4-4.5
			c2.2,4.8,1.2,9.3,0,13.9C192.4,489,190,480.8,191.3,472.1z"/>
		<path fill="#E6E6E6" d="M380.6,288.5c1.1-1.4,1.7-2.7,2.6-3.4c2.7-2,3.9-4.9,4.8-7.9c1.5-5.2,2.9-10.6,4.3-15.8
			c0.4-1.3,0.8-2.6,1.6-3.9c-0.2,0.9-0.3,1.7-0.5,2.6c-1.5,7.1-3.3,14.1-4.3,21.3C388.3,286.1,385.7,288,380.6,288.5z"/>
		<path fill="#E6E6E6" d="M221.7,411c5-0.6,13.4,5.7,15.3,11.5C230,420.6,226.5,415,221.7,411z"/>
		<path fill="#E6E6E6" d="M295.9,416.3c7.1,0.4,14.3,0.9,21.2,1.3C312.2,422,305.1,421.7,295.9,416.3z"/>
		<path fill="#E6E6E6" d="M192.8,500c5.1,9.2,10.2,18.2,15.1,26.9C204.1,525.8,193.3,507.1,192.8,500z"/>
		<path fill="#E6E6E6" d="M248.7,416.7c-3.4,4.7-12.5,3.2-15.5-2.5C238.3,415.1,243.5,415.9,248.7,416.7z"/>
		<path fill="#E6E6E6" d="M515.3,504.2c10.5,4.1,10.5,12.3,3.7,20.9C523.4,517.1,521.9,510.2,515.3,504.2z"/>
		<path fill="#E6E6E6" d="M187.7,334.8c2.3,10.2,5.6,20.1,5.3,30.6c-0.3,0-0.6,0.1-1,0.1C190.5,355.3,189.1,345,187.7,334.8z"/>
		<path fill="#E6E6E6" d="M405.6,48.8c-2.1,8.7-4.2,17.4-6.3,26.1c-0.1,0-0.2,0-0.4,0c0.2-1.6,0.4-3.1,0.6-4.7
			c0.5-4,0.7-8.2,1.7-12.1C402.1,54.9,404.1,52,405.6,48.8C405.6,48.9,405.6,48.8,405.6,48.8z"/>
		<path fill="#E6E6E6" d="M181.6,415.2c3.8,1.7,7.6,3.4,11.6,5.2c-2.1,1.2-3.6,2.1-5,3c0.4-0.3,0.8-0.7,1.2-1c-2.8-2-5.7-4-8.5-6
			C181.1,415.9,181.3,415.5,181.6,415.2z"/>
		<path fill="#E6E6E6" d="M221.2,539.7c2-0.1,3.7,0,5.3-0.3c2.1-0.4,3.8,1,5.9,0.9c1.3,0,2.9,1.8,1,3.6
			C229.2,542.9,224.5,543.7,221.2,539.7z"/>
		<path fill="#E6E6E6" d="M402.8,395.7c0.1,0.6,0,0.4,0,0.2c0.6-6.1,0.6-6.1,6.6-6.1c1.5,0,3.1,0,4.6,0c0.1,0.2,0.1,0.5,0.2,0.7
			C410.4,392.3,406.5,394.1,402.8,395.7z"/>
		<path fill="#E6E6E6" d="M183.7,204.8c5.2,7.4,5.9,16.2,7.3,24.7C188.6,221.3,186.1,213.1,183.7,204.8z"/>
		<path fill="#E6E6E6" d="M180.6,437.6c-1-4.5-1.8-8.4-2.6-12.3c-0.1-0.6,0.1-1.7,0.4-1.8c0.8-0.3,1.9-0.3,2.7,0
			c0.4,0.1,0.7,1.2,0.6,1.9C181.4,429.2,181,433.1,180.6,437.6z"/>
		<path fill="#E6E6E6" d="M410,222.8c-0.1,9.6,0.4,12.4-3.2,12.7C406.2,231,406.9,227,410,222.8z"/>
		<path fill="#E6E6E6" d="M350.3,410c6,1.3,12.1,2.6,18.1,4C361.7,415.3,355.6,414.5,350.3,410C350.3,409.9,350.3,410,350.3,410z"/>
		<path fill="#E6E6E6" d="M386.5,262.4c2.3-8.5,4.6-16.9,6.9-25.4C393.5,246.1,389.7,254.2,386.5,262.4z"/>
		<path fill="#E6E6E6" d="M186.4,204.3c-2.4-7.2-4.8-14.4-7.2-21.6c0.4-0.1,0.8-0.3,1.2-0.4c2.4,7.2,4.7,14.4,7.1,21.6
			C187.1,204.1,186.7,204.2,186.4,204.3z"/>
		<path fill="#E6E6E6" d="M184.3,524.8c2.2-0.2,4.4-0.3,6.6-0.7c0.9-0.2,1.8-1,2.7-1.4c3-1.4,4.3-0.8,6.1,2.7c-5.2,0-10.3,0-15.3,0
			C184.3,525.1,184.3,525,184.3,524.8z"/>
		<path fill="#E6E6E6" d="M228.9,301.6c9.7,0.8,19.3,1.5,29,2.3c0,0.3-0.1,0.7-0.1,1c-9.7-0.8-19.4-1.6-29.1-2.4
			C228.8,302.2,228.9,301.9,228.9,301.6z"/>
		<path fill="#E6E6E6" d="M414,478.2c-1.7-2.2-1-12.1,1.4-21.4C414.9,464,414.4,471.1,414,478.2z"/>
		<path fill="#E6E6E6" d="M182.1,402.4c3.1-0.6,6.2-1.3,9.3-1.8c0.5-0.1,1.1,1,1.7,1.5c-0.6,0.5-1.1,1.5-1.7,1.5
			c-3,0-6.1-0.2-9.1-0.4C182.3,403,182.2,402.7,182.1,402.4z"/>
		<path fill="#E6E6E6" d="M423.1,145.1c4.6-2.6,9.2-5.1,13.8-7.7c0.1,0.3,0.3,0.5,0.4,0.8c-3.8,3.9-8.9,5.5-13.7,7.7
			C423.5,145.7,423.3,145.4,423.1,145.1z"/>
		<path fill="#E6E6E6" d="M468.9,454.8c-1.3-1.9-2.8-3.7-3.9-5.7c-0.3-0.6,0.3-1.8,0.5-2.7c1,0.4,2.5,0.7,2.8,1.3
			c0.7,2.3,0.9,4.7,1.3,7.1C469.3,454.7,469.1,454.8,468.9,454.8z"/>
		<path fill="#E6E6E6" d="M392.3,100c1-6.2,1.9-12.5,2.9-18.7c0.3,0,0.6,0.1,0.9,0.1c-0.8,6.3-1.5,12.5-2.3,18.8
			C393.3,100.2,392.8,100.1,392.3,100z"/>
		<path fill="#E6E6E6" d="M342.7,406c-5.2,1.5-11,3.2-16.6,4.9C330.5,405.2,337.1,406.4,342.7,406z"/>
		<path fill="#E6E6E6" d="M207.5,6.3c1.2-0.6,2.1-1,2.9-1.4c0.1,0.2,0.1,0.3,0.2,0.5c-3.2,2.8-6.4,5.6-9.7,8.3
			c-0.1-0.1-0.3-0.1-0.4-0.2c1.2-1.6,2.4-3.2,3.5-4.8c-1.3-2.5,1.6-2.5,2.6-4C207.1,5.5,207.3,5.9,207.5,6.3z"/>
		<path fill="#E6E6E6" d="M199.8,376.6c2.3,3.7,0.8,6.9-0.6,10.3C197.2,383.8,197.5,379.6,199.8,376.6z"/>
		<path fill="#E6E6E6" d="M518.9,512.3c-0.7,0.1-1.1,0.2-1.6,0.2c-2.9,0-5.9,0-9.5,0c3.1-1.2,5.5-2.2,8-3
			C517.7,509,518.8,510,518.9,512.3z"/>
		<path fill="#E6E6E6" d="M204,83.9c-0.5,2.1,1.4,5.1-2.4,6c-0.6,0.2-1.8,0.2-1.9-0.1c-0.4-0.6-0.6-1.8-0.2-2.3
			c1.1-1.5,2.4-2.8,3.6-4.2C203.4,83.5,203.7,83.7,204,83.9z"/>
		<path fill="#E6E6E6" d="M183,438.9c1.3,5.6,2.6,11.3,3.9,17.1C184.4,453.5,182.4,445.3,183,438.9z"/>
		<path fill="#E6E6E6" d="M395.5,285.7c-2.8,5-3.5,5.3-11.1,4C388.5,288.2,391.8,287,395.5,285.7z"/>
		<path fill="#E6E6E6" d="M213.8,299.6c1.4-3.4,2.7-6.5,4-9.6c0.1,0,0.2,0.1,0.3,0.1c-0.2,2.3-0.3,4.7-0.5,7
			C217.4,300,217.3,300,213.8,299.6z"/>
		<path fill="#E6E6E6" d="M205.3,120.8c-3.7,1.5-7.4,2.9-11.1,4.4C196.6,120.2,201,120.5,205.3,120.8z"/>
		<path fill="#E6E6E6" d="M214.3,290.6c0.2-3,0.5-6.1,0.7-9.3c3.5,1.1,2.8,3.2,0.1,9.3C214.9,290.6,214.6,290.6,214.3,290.6z"/>
		<path fill="#E6E6E6" d="M189.9,90.4c3.7,0.3,6.6,6.1,5.9,10.2C194,97.4,191.9,93.9,189.9,90.4z"/>
		<path fill="#E6E6E6" d="M393.8,270.5c-0.8,4.4,0.2,9.2-2.6,13.3c-0.3-0.1-0.5-0.1-0.8-0.2c0.9-4.4,1.8-8.8,2.7-13.2
			C393.3,270.4,393.5,270.4,393.8,270.5z"/>
		<path fill="#E6E6E6" d="M401.6,519c-1.5,3.6-3.9,6.3-7.4,8c-0.2-0.2-0.4-0.4-0.7-0.6c2.5-2.6,5.1-5.3,7.6-7.9
			C401.3,518.6,401.5,518.8,401.6,519z"/>
		<path fill="#E6E6E6" d="M367.8,549.7c-2.9,2.1-5.8,4.2-8.7,6.3c-0.2-0.3-0.4-0.6-0.6-0.8c3-1.9,4.8-5.6,8.5-6.6
			C367.3,549,367.6,549.3,367.8,549.7z"/>
		<path fill="#E6E6E6" d="M204.4,92.7c0,1.2,0.5,2.8-0.1,3.4c-0.8,0.9-2.4,1.2-3.7,1.6c-0.3,0.1-1-0.3-1.1-0.6
			c-0.1-0.4,0-1.1,0.4-1.4c1.1-1.1,2.4-2.2,3.6-3.3C203.8,92.5,204.1,92.6,204.4,92.7z"/>
		<path fill="#E6E6E6" d="M206.7,333.7c3.6,0.4,7.3,0.8,10.9,1.2c0,0.3-0.1,0.7-0.1,1c-3.9,2-7.2-1.4-10.9-1.5
			C206.7,334.2,206.7,334,206.7,333.7z"/>
		<path fill="#E6E6E6" d="M182.2,123.9c3.2-0.5,6.5-1,9.7-1.5c0.1,0.4,0.1,0.7,0.2,1.1c-2.9,2.2-6.4,1.2-9.8,1.2
			C182.2,124.5,182.2,124.2,182.2,123.9z"/>
		<path fill="#E6E6E6" d="M448.9,468.8c-2.8-1.6-3.7-3.7-3-7.4C448.2,463,449,464.9,448.9,468.8z"/>
		<path fill="#E6E6E6" d="M397.7,252.9c1.1,1.9,2.2,3.9,3.5,6c-3.5,0.4-5-1.7-4.3-5.4C397.1,253.3,397.4,253.1,397.7,252.9z"/>
		<path fill="#E6E6E6" d="M415.7,468.3c0.3-5.1,0.6-10.1,0.8-15.2c0.3,0,0.6,0,0.9,0.1c-0.3,5.1-0.6,10.2-0.9,15.2
			C416.2,468.3,416,468.3,415.7,468.3z"/>
		<path fill="#E6E6E6" d="M399,234.5c-0.9,4-1.7,8-2.6,11.9c-0.3-0.1-0.7-0.1-1-0.2c0.9-4,1.7-8,2.6-11.9
			C398.3,234.3,398.7,234.4,399,234.5z"/>
		<path fill="#E6E6E6" d="M196.7,370.3c-0.8-3.5-2.4-6.5-0.4-9.9C197,363.7,198.7,366.6,196.7,370.3z"/>
		<path fill="#E6E6E6" d="M404.1,280.8c0.3,2.3,0.5,4.1,0.8,6.7c-1.9-1.4-3.2-2.4-4.7-3.5C401.5,282.9,402.6,282,404.1,280.8z"/>
		<path fill="#E6E6E6" d="M455.8,450.1c1.7,0.7,3.4,1.4,5.2,2.2c-0.7,1.6-2,2.3-3.4,1.4c-1.1-0.7-1.7-2.1-2.5-3.2
			C455.3,450.4,455.5,450.2,455.8,450.1z"/>
		<path fill="#E6E6E6" d="M188.1,478.2c-0.4-4.9-0.9-9.8-1.3-14.6c0.3,0,0.6-0.1,0.8-0.1c0.4,4.9,0.8,9.8,1.3,14.7
			C188.6,478.2,188.3,478.2,188.1,478.2z"/>
		<path fill="#E6E6E6" d="M441.7,454c-1.9-2.4-0.9-4.2,3.7-7.2C444.2,449.1,442.9,451.6,441.7,454z"/>
		<path fill="#E6E6E6" d="M303.7,328.4c1.5-1.2,3.1-2.4,4.9-3.8c-0.5,3.7-3,5.3-6.1,6.6C303,330.1,303.4,329.2,303.7,328.4
			C303.8,328.3,303.7,328.4,303.7,328.4z"/>
		<path fill="#E6E6E6" d="M189.7,298.3c2.5,0.9,5,1.7,7.5,2.6C195.3,302.5,193.3,301.9,189.7,298.3z"/>
		<path fill="#E6E6E6" d="M204.1,99.2c-1.6,1.9-2.7,3.3-3.9,4.8C198.5,100.7,199.3,99.6,204.1,99.2z"/>
		<path fill="#E6E6E6" d="M212.6,282.5c-0.6-2.4-1.2-4.9-1.8-7.3C213.6,277.1,213.9,279.6,212.6,282.5z"/>
		<path fill="#E6E6E6" d="M424.1,430.8c-1.3,2.5-2.7,5-4.2,7.7C419.6,435.4,420.7,433.3,424.1,430.8z"/>
		<path fill="#E6E6E6" d="M519.6,514.7c-1.1,2.5-1.2,2.6-8.1,1.6C514,515.8,516.5,515.3,519.6,514.7z"/>
		<path fill="#E6E6E6" d="M450.8,469.5c-1.1-3.1-2.1-6.1-3.3-9.3C450.8,462.6,450.8,465.9,450.8,469.5z"/>
		<path fill="#E6E6E6" d="M388.7,102.7c3.1-1.2,4.9-0.3,6.2,3.3C392.7,104.9,390.8,103.8,388.7,102.7z"/>
		<path fill="#E6E6E6" d="M178,417.9c3-0.2,3.5,1.3,3.6,2.9c0,0.3-1.6,0.9-1.6,0.8C179.3,420.5,178.8,419.4,178,417.9z"/>
		<path fill="#E6E6E6" d="M202.7,74.7c-1,2.6-1.7,4.7-2.6,6.9C198.7,78.7,199.2,77.4,202.7,74.7z"/>
		<path fill="#E6E6E6" d="M201.6,80.3c0.8-2,1.5-3.8,2.3-6C204.7,78.8,204.1,80.3,201.6,80.3z"/>
		<path fill="#E6E6E6" d="M185.9,335.9c0.6,3.9,1.1,7.7,1.7,11.6c-0.2,0-0.4,0.1-0.6,0.1c-0.6-3.9-1.2-7.7-1.9-11.6
			C185.4,336,185.7,335.9,185.9,335.9z"/>
		<path fill="#E6E6E6" d="M198.3,371.3c0,2,0,3.9,0,5.9c-0.3,0-0.6,0-0.8,0c0-2,0-3.9,0-5.9C197.7,371.3,198,371.3,198.3,371.3z"/>
		<path fill="#E6E6E6" d="M236.6,113.7c-2,1.3-4,2.7-6.1,4c-0.2-0.3-0.4-0.6-0.6-0.9c2-1.3,4-2.6,6.1-4
			C236.2,113.2,236.4,113.5,236.6,113.7z"/>
		<path fill="#E6E6E6" d="M410.8,388.6c-2.1-0.2-4.1-0.3-6.2-0.5c0-0.4,0.1-0.8,0.1-1.2c2.1,0.2,4.2,0.3,6.3,0.5
			C410.9,387.8,410.8,388.2,410.8,388.6z"/>
		<path fill="#E6E6E6" d="M244.7,558.1c-2-1-4-1.9-6-2.9c0.2-0.3,0.3-0.6,0.5-1c2,0.9,4.1,1.8,6.1,2.7
			C245.1,557.3,244.9,557.7,244.7,558.1z"/>
		<path fill="#E6E6E6" d="M504.4,537c-2.5,1.6-5.1,3.1-7.6,4.7c-0.2-0.3-0.3-0.5-0.5-0.8c2.6-1.5,5.1-3.1,7.7-4.6
			C504.2,536.6,504.3,536.8,504.4,537z"/>
		<path fill="#E6E6E6" d="M193.3,221.3c0.4,2.3,0.8,4.6,1.2,6.9c-0.3,0.1-0.6,0.1-1,0.2c-0.4-2.3-0.7-4.6-1.1-6.9
			C192.8,221.4,193,221.3,193.3,221.3z"/>
		<path fill="#E6E6E6" d="M349.7,277c3.2-2.4,6.5-4.9,9.7-7.3c2.5-1.9,4.6-4.1,5.4-7.2c0.2-0.9,0.7-1.9,1.4-2.3
			c6.7-4.6,8.6-12.1,11.3-19.1c4.5-11.8,5.8-24.4,7.4-36.8c0.6-4.5,1.2-9,2.3-13.5c-0.4,4.1-0.8,8.3-1.2,12.4
			c-1.3,12.8-3,25.5-7.3,37.7c-1.7,4.8-4.1,9.4-6.3,14c-0.7,1.5-1.1,2.5,0.1,4.2c0.8,1.1,0.3,3.5-0.3,5c-0.6,1.5-2.3,2.5-5,1.7
			c1.4-0.9,2.5-1.3,3-2.1c0.6-0.9,1.3-2.7,0.9-3.3c-1.3-1.5-2,0.2-2.7,1c-2.1,2.5-3.9,5.3-3.8,8.8c0,0.4-0.1,0.9-0.3,1.3
			c0,0.1-0.3,0.2-0.6,0.6c-0.3-1.2-0.6-2.2-0.8-3.1C358.5,271.5,354.1,274.3,349.7,277L349.7,277z"/>
		<path fill="#E6E6E6" d="M362.6,283.1c4-5.4,9-10.4,11.9-16.4c4.1-8.3,6.8-17.2,9.8-26c1.5-4.5,2.4-9.2,4.2-13.7
			c-1.4,5.8-2.5,11.6-4.2,17.2c-2.1,7.1-4.2,14.3-7.1,21.1c-3,7-8.2,12.6-13.9,17.6C363.1,283.1,362.8,283,362.6,283.1L362.6,283.1z
			"/>
		<path fill="#E6E6E6" d="M189.7,141.4c-0.6,2.7-1.2,5-1.7,7.3c-0.2,0-0.4-0.1-0.6-0.1c0.2-1.3,0.4-2.5,0.6-3.8
			c-2.1-0.5-2.1-0.5-4,3.7c-1.1-2.8-3.1-4-5.7-4.7c-2-0.5-4-1.4-5.8-2.5c-0.8-0.5-1.6-1.9-1.6-2.9c0-0.5,1.5-1.4,2.5-1.6
			c2.7-0.5,4.9,0.7,6.8,2.5C184.2,142.9,184.2,142.9,189.7,141.4z M179.2,142.3c-1.7-3.6-3.1-4.1-6-2.6
			C175.4,140.7,177.3,141.5,179.2,142.3z"/>
		<path fill="#E6E6E6" d="M398.6,120.3c-1.6,3-3,5.8-4.5,8.6c-0.4-0.2-0.8-0.4-1.1-0.5c0.8-2,1.4-4.1,2.5-5.9
			c1.9-3.2,4.1-6.1,6.2-9.2c0.4-0.6,1.1-1,1.8-1.3c2.1-0.9,4.6-2.1,6.2-0.1c1.7,2-0.6,3.7-1.8,5.2c-1.3,1.6-2.9,2.9-4.5,4.2
			C401.6,122.7,399.8,122.9,398.6,120.3z M407.9,112.9c-4.3,0.2-7.8,3.2-8.2,6.8C403,120.1,406.9,116.9,407.9,112.9z"/>
		<path fill="#E6E6E6" d="M371.3,134.7c0.8-0.7,1.5-1.5,2.3-2.2c1.8-1.5,3.2-3.2,2-5.7c-0.4-0.8-1.4-1.7-2.1-1.7
			c-0.8,0-2,0.9-2.2,1.6c-0.5,1.5-0.7,3.2-0.7,4.9c-0.1,3,0,5.9,0,8.9c-0.3,0-0.6,0.1-0.9,0.1c-0.1-0.3-0.4-0.5-0.4-0.8
			c-0.1-4-0.2-8-0.1-12c0.1-3,2.2-4.8,4.8-4.6c2.3,0.2,3.8,2.1,3.9,5c0.1,3.8-2.1,6.5-5.8,7.2C371.7,135.1,371.5,134.9,371.3,134.7z
			"/>
		<path fill="#E6E6E6" d="M325.6,275.6c-0.2-5.3-0.4-10.7,2.2-15.6c1-2,4.6-2.4,5.6-0.4c1.1,2.2,1.6,4.9,1.7,7.3
			c0.1,1.6-1.4,2.1-2.1,1.7c0.1-2.5,0.4-4.4,0.1-6.1c-0.2-0.9-1.5-2.1-2.4-2.1c-0.7,0-2,1.4-2.2,2.3c-0.6,3.5-0.9,7-1.3,10.5
			c-0.1,0.9-0.3,1.8-0.5,2.7C326.3,275.7,326,275.7,325.6,275.6z"/>
		<path fill="#E6E6E6" d="M243.9,135.5c-0.5-4.5-1-9-1.4-13.6c0-0.6,1.2-1.7,2-1.8c0.7-0.1,2.3,0.7,2.3,1.2c0.1,2.2,0.6,5.1-0.5,6.5
			c-1.3,1.7-1.1,3-1,4.7c0.1,1,0,2,0,2.9C244.8,135.5,244.3,135.5,243.9,135.5z"/>
		<path fill="#E6E6E6" d="M225.7,153.3c-2.9-2.1-4.3-5.2-5.7-8.4c-0.4-1-0.6-2.1-0.9-3.2c-0.7-3,0.7-4.8,3.6-3.8
			c1.8,0.6,3.5,2.5,4.6,4.2c0.8,1.3,1.1,3.3-0.9,4.9c-0.5-2-0.8-3.7-1.5-5.4c-0.3-0.8-1.2-1.8-2-2c-1.6-0.5-3,0.1-2.2,2.1
			c1.3,3.1,2.9,6,4.3,9c0.4,0.7,0.8,1.5,1.1,2.2C226.2,153,225.9,153.2,225.7,153.3z"/>
		<path fill="#E6E6E6" d="M291.6,275.6c-0.3-1.4-0.4-2.2-0.6-3.1c-0.2-1.3-0.3-2.6-0.8-3.8c-0.2-0.6-1.3-1.2-1.9-1.1
			c-0.5,0.1-1.3,1.2-1.2,1.8c0.4,2.4,1,4.8,1.6,7.2c0.3,1,0.8,1.9,1.3,2.8c-0.2,0.2-0.5,0.3-0.7,0.5c-0.6-0.7-1.6-1.3-1.8-2.1
			c-0.9-3-2-6-2.3-9c-0.3-2.6,3-4.1,5.2-2.7C292.8,267.7,293.7,272.3,291.6,275.6z"/>
		<path fill="#E6E6E6" d="M252.8,274.7c-1.3-1.4-2.1-2.6-3.2-3.3c-1.8-1.2-3-0.5-3.2,1.6c-0.2,2.4,0.6,4.2,2.9,5.1
			c2.1,0.9,4.2,1.8,6.2,3c-3,0.9-5.7,0-7.9-2.1c-2.2-2.1-3.7-4.5-2.8-7.7c0.6-2.1,2.4-2.7,4.4-2.3
			C251.6,269.6,253,271.5,252.8,274.7z"/>
		<path fill="#E6E6E6" d="M362.5,283.1c-2.6,1.5-5.1,3.1-7.7,4.5c-2.4,1.3-4.9,2.5-7.4,3.4c-2.2,0.8-4.4,1.3-6.7,1.8
			c-5.8,1.3-11.6,2.5-17.4,3.8c-0.1-0.2-0.2-0.5-0.2-0.7c1.5-0.5,2.9-1.2,4.4-1.5c5.4-1.2,10.9-2.2,16.4-3.4
			c1.3-0.3,2.5-1.1,3.7-1.6c1.5-0.7,3-1.6,4.5-2.2C355.5,285.7,359.1,284.5,362.5,283.1C362.6,283.1,362.5,283.1,362.5,283.1z"/>
		<path fill="#E6E6E6" d="M207.6,142.3c-1.4-0.2-2.3-0.1-3-0.5c-3-1.9-5-4.7-5.7-8.2c-0.2-0.7,0.9-2.4,1.5-2.5
			c1.6-0.1,4.1,0,4.7,0.9c1,1.5,0.8,3.8,1,5.8c-0.4,0.1-0.9,0.1-1.3,0.2c-0.2-1-0.2-2-0.6-2.9c-0.3-0.9-0.9-1.7-1.5-2.4
			c-0.3-0.2-1.6,0.2-1.6,0.3c0,0.9-0.1,2.1,0.4,2.8C203.2,138,205.1,139.8,207.6,142.3z"/>
		<path fill="#E6E6E6" d="M265.7,142.6c-0.7-2.7-1.6-5.5-2.1-8.2c-0.3-2,0.6-3.7,2.9-3.9c2.3-0.2,3.6,1,3.7,3.1
			c0.2,1.8,0.1,3.7-0.3,5.4c-0.1,0.7-1.3,1.2-2.2,2c0.3-2.6,0.7-4.6,0.7-6.6c0-0.7-1-1.4-1.5-2.2c-0.6,0.8-1.6,1.6-1.6,2.4
			c0,1.5,0.5,3,0.8,4.6c0.2,1.1,0.3,2.2,0.5,3.3C266.4,142.5,266,142.5,265.7,142.6z"/>
		<path fill="#E6E6E6" d="M292.2,128.5c-2.7-1.9-3.7-8.3-2-10.2c0.7-0.7,2.1-1.1,3.2-1c0.8,0.1,1.9,0.9,2.3,1.7
			c1.1,2.2-0.2,4.9-3.3,6.2c0.6-1.3,1.1-2.2,1.3-3.2c0.2-0.7,0-1.6-0.2-2.3c-0.1-0.2-1.3-0.4-1.4-0.2c-0.5,0.6-0.9,1.4-0.9,2.1
			C291.4,123.8,291.8,126.1,292.2,128.5z"/>
		<path fill="#E6E6E6" d="M222.8,276.7c6.6,5.5,13.4,11.1,20.1,16.8C234.3,289.9,228,283.7,222.8,276.7z"/>
		<path fill="#E6E6E6" d="M347.1,125.4c-2.3-2.4-3.3-7.2-1.4-9.2c1-1.1,3-1.5,4.5-1.4c0.8,0.1,2,1.9,2.1,2.9
			c0.1,0.9-1.3,1.8-2.2,2.7c-0.1,0.1-0.6-0.1-0.9-0.2c0-0.3,0-0.5,0-0.7c0.3-0.9,0.6-1.7,0.9-2.6c-0.6-0.1-1.5-0.6-1.8-0.3
			c-0.7,0.6-1.4,1.4-1.5,2.2C346.7,120.9,347,123,347.1,125.4z"/>
		<path fill="#E6E6E6" d="M321.7,134.9c-0.2-1.2-0.2-2.5-0.6-3.7c-0.3-0.9-1-1.7-1.5-2.6c-0.9,0.8-2.5,1.4-2.5,2.3
			c-0.2,2,0.4,4,0.7,6.2c-1.2,0-2.4-0.9-2.6-2.5c-0.4-2.5-0.7-5.3,2-6.7c1.2-0.7,3.3-0.7,4.6-0.1
			C323.3,128.4,323.4,132.5,321.7,134.9z"/>
		<path fill="#E6E6E6" d="M228.2,255.7c4,5.8,8,11.7,12.1,17.5c-5.4-4.8-8.6-11.2-12.6-17C227.8,256,228,255.9,228.2,255.7z"/>
		<path fill="#E6E6E6" d="M223.1,274.3c-2.2,0.9-4.8,0.3-5.7-1.5c-0.3-0.6,0.1-1.6,0.1-2.5c1.2,0.3,2.5,0.4,3.5,1
			C221.9,271.9,222.4,273.2,223.1,274.3z"/>
		<path fill="#E6E6E6" d="M269.4,280.1c-1.6-5.4-3.2-10.8-5-16.9c2.2,1.7,3,2.6,2.5,5c-0.4,1.8,1.1,3.8,1.6,5.8
			c0.5,1.9,0.9,3.9,1.4,5.9C269.7,280,269.5,280,269.4,280.1z"/>
		<path fill="#E6E6E6" d="M349.7,277c-2.9,1.6-5.8,3.3-8.7,4.9c-0.2-0.3-0.3-0.6-0.5-0.9C343.6,279.6,346.6,278.3,349.7,277
			C349.7,277,349.7,277,349.7,277z"/>
		<path fill="#E6E6E6" d="M209,155.8c0.4,3.4,0.9,6.7,1.3,10.1c-0.2,0-0.5,0.1-0.7,0.1c-0.4-3.4-0.8-6.8-1.1-10.1
			C208.7,155.8,208.9,155.8,209,155.8z"/>
		<path fill="#E6E6E6" d="M371.8,525.9c0.6-0.7,1.2-1.4,1.9-2c-0.1-0.1-0.2-0.3-0.3-0.4c-4.5,3.5-9,7-13.4,10.4
			c-0.2-0.3-0.4-0.5-0.7-0.8c2-1.6,4-3.2,5.9-4.9c6.2-5.5,12.9-10.6,18.3-16.7c5.9-6.7,11.3-14.2,15.6-22c5.4-9.6,6.7-20.6,7.5-31.5
			c0.1-0.9,0.1-1.8,0.3-2.7c0.7,7.2-0.2,14.2-1.7,21.2c-2.9,14.1-10.7,25.4-20.1,35.8c-3.6,4-7.1,8.1-10.7,12.1
			c-0.7,0.8-1.6,1.4-2.4,2C372.1,526.3,372,526.1,371.8,525.9z"/>
		<path fill="#E6E6E6" d="M290.5,551.5c3.4,0.3,6.8,0.2,10.1,1c7,1.6,14,0.7,21.1,0.9c9,0.2,17.2-2.2,25.2-6
			c1.4-0.7,2.8-1.5,4.2-2.1c0.5-0.2,1.2,0.1,1.9,0.1c-0.3,0.6-0.4,1.5-0.8,1.7c-6,2.5-11.8,5.5-18,7.3c-4.5,1.2-9.4,0.8-14.1,0.9
			c-6.9,0.1-13.9,0.8-20.7-1.5c-2.7-0.9-5.8-0.8-8.7-1.2C290.4,552.3,290.5,551.9,290.5,551.5z"/>
		<path fill="#E6E6E6" d="M360.1,422.9c-1.4,1.5-2.6,2.8-4.1,4.4c-0.4-0.2-1.2-0.7-2-1.2c-3.7-2.6-7.4-5.3-11.2-7.7
			c-3.8-2.4-6.9,0.2-9.9,2.1c-1.4,0.9-2.6,2-3.9,3c-0.2-0.2-0.4-0.4-0.6-0.6c2.1-1.7,4.1-3.5,6.2-5.2c-5.6,0.9-9.7,4.2-13.9,7.9
			c0.3-0.6,0.6-1.2,1-1.7c5.5-6.1,12.3-9.3,20.6-8.2c2.7,0.4,5.3,2,7.6,3.5c2.6,1.7,4.9,3.9,8.5,3.4
			C359,422.4,359.7,422.8,360.1,422.9z"/>
		<path fill="#E6E6E6" d="M253.9,429c2.6-6.4,7.4-9.6,14.2-10.7c8.9-1.5,16.3,1.9,23.2,6.7c4.8,3.3,9.6,5.7,15.5,2.3
			c-2.7,3-8.3,3.6-12.5,1.3c-3.2-1.7-6.1-3.9-9.4-5.5c-7.5-3.8-15.2-5.2-23-1.3c-2.6,1.3-4.6,3.7-6.8,5.6
			C254.6,427.9,254.3,428.5,253.9,429z"/>
		<path fill="#E6E6E6" d="M286.6,520.8c-3.1,1.4-3.9,3.9-3.6,6.9c0.1,1.1,0.6,3,1.2,3.2c1.4,0.4,3-0.1,4.5-0.4
			c0.7-0.2,1.2-1.1,1.8-1.7c0.8,2.5,0.3,3.5-1.8,4.2c-4.8,1.5-8-0.8-7.6-5.8c0.2-1.9,0.8-3.9,1.7-5.5c0.5-0.9,2.1-1.2,3.2-1.8
			C286.2,520.2,286.4,520.5,286.6,520.8z"/>
		<path fill="#E6E6E6" d="M319.8,467c0.6,2.6-1,2.8-2.6,2.9c-5.3,0.3-9-2.1-9-6c-0.1-4.5,2.7-7.6,7.4-7.3c-4.2,2.2-7.2,4.9-4.9,9.5
			C311.7,468.3,316.3,468.6,319.8,467z"/>
		<path fill="#E6E6E6" d="M386.4,419.3c4-5.3,10.2-7.5,15.9-5.9c0.7,1.2,1.5,2.2,1.9,3.3c0.2,0.6,0,1.3-0.1,2
			c-0.6-0.1-1.3,0-1.8-0.3c-6.5-4.6-7.4-4.6-13.7-0.5C388.1,418.4,387.5,418.7,386.4,419.3z"/>
		<path fill="#E6E6E6" d="M253.5,472c-1.1,1.4-2.2,2.7-3.2,4.2c-1,1.5-0.9,2.8,0.8,3.7c2.3,1.3,6.8,0.5,8.5-1.4
			c1.3,2.4,0.8,3.5-1.7,3.6c-1.9,0.1-3.9,0.1-5.8-0.2c-3.8-0.6-5.1-3.1-3.1-6.4c1-1.6,2.6-2.8,3.9-4.2
			C253.1,471.5,253.3,471.7,253.5,472z"/>
		<path fill="#E6E6E6" d="M220.2,453.1c-1,2.3-2.8,2-4.4,1.9c-2.4-0.2-4.1-1.6-4.5-3.9c-0.3-1.8-0.1-3.9,0.5-5.7
			c0.3-0.8,1.9-1.4,3.1-1.7c0.6-0.2,1.4,0.6,2,1.2c-3.6,0.4-4.6,1.5-4.4,4.9C212.8,453,214.5,453.7,220.2,453.1z"/>
		<path fill="#E6E6E6" d="M389.1,453.2c0.4,2.8-0.5,4-2.5,4.3c-3,0.5-5.2-1.1-5.6-3.6c-0.4-3.2,1.7-6.6,4.5-6.8
			c-1.9,2.5-4.4,5.1-1.8,8.1C385.4,457.2,387.5,455.5,389.1,453.2z"/>
		<path fill="#E6E6E6" d="M358.4,515c-0.6,2.1-1.9,1.9-3.3,1.5c-3.3-0.8-5.3-3.2-5.2-6.3c0.1-3.2,1.6-4.9,5.7-5.8
			c-2.9,2.1-5.1,3.9-3.8,7.4C353,515,355.6,514.9,358.4,515z"/>
		<path fill="#E6E6E6" d="M383.9,445c-0.2-2.6,1.8-2.6,3.1-2.8c2.6-0.5,4,1.2,4.9,3.3c0.9,2,1.6,4.1-1,6.6
			C390.4,447.6,391.6,441.6,383.9,445z"/>
		<path fill="#E6E6E6" d="M206.1,422.8c1,0,2.1-0.1,3.1,0.1c1.3,0.3,2.6,0.6,3.8,1.2c0.7,0.3,0.9,1.3,1.6,1.8
			c0.6,0.5,1.5,0.8,2.5,1.3c-2.5,2.2-4.3,2-4.8,0.2C211.4,424,208.8,423.5,206.1,422.8C206.1,422.8,206.1,422.8,206.1,422.8z"/>
		<path fill="#E6E6E6" d="M221.5,450.5c1.6-4.1,0.7-6.7-3.4-7.9c2.4-1.3,3.8-0.6,5.2,2.2C224.6,447.5,224.2,449.2,221.5,450.5z"/>
		<path fill="#E6E6E6" d="M360,506c1-0.5,2.3-1.7,3-1.4c1,0.4,2.1,1.7,2.4,2.9c0.4,1.4-0.1,2.9-2.2,3c0.6-4.5,0.3-4.8-2.8-3.7
			C360.3,506.5,360.2,506.2,360,506z"/>
		<path fill="#E6E6E6" d="M256.5,472.4c2.7-1.3,3.9-1.1,5.1,0.6c1,1.5,1.5,3.1-0.7,5.3C261.1,474.8,260.6,472.1,256.5,472.4z"/>
		<path fill="#E6E6E6" d="M198.3,463.5c-0.7,3.5-1.3,7-2,10.5c-0.4-0.1-0.7-0.2-1.1-0.2c0.8-3.5,1.6-7,2.4-10.4
			C197.8,463.4,198,463.5,198.3,463.5z"/>
		<path fill="#E6E6E6" d="M319,454.8c2.3,0.2,2.9,1.9,3.5,3.5c0.3,0.8-0.1,1.8-0.8,2.5C320.8,458.8,319.9,456.9,319,454.8z"/>
		<path fill="#E6E6E6" d="M216.7,484.9c0.1,2.5,0.3,5.1,0.4,7.6c-0.3,0-0.6,0-1,0.1c-0.2-2.5-0.3-5.1-0.5-7.6
			C216,485,216.4,484.9,216.7,484.9z"/>
		<path fill="#E6E6E6" d="M292.3,528.4c-0.7-2.6-1.2-4.8-1.8-7C293.2,523.6,293.8,525.5,292.3,528.4z"/>
		<path fill="#E6E6E6" d="M226.1,510.6c-0.3-3.1-0.6-6.2-0.9-9.3c0.3,0,0.6,0,0.9-0.1c0.3,3.1,0.5,6.2,0.8,9.3
			C226.6,510.6,226.4,510.6,226.1,510.6z"/>
		<path fill="#E6E6E6" d="M145.9,514.7c4.6,0,9.2,0,13.8,0c0,0.4,0.1,0.7,0.1,1.1c-15.4-1.2-29.4,4.1-43.5,9.3
			c-0.1-0.4-0.2-0.7-0.4-1.1c1.8-1,3.5-2.1,5.4-3c3.7-1.8,7.6-3.2,11.2-5.1c4-2.1,8.6-1.2,12.7-3.1c4.1-1.9,8.5-3.3,12.8-4.8
			c0.8-0.3,1.9,0.1,2.9,0.6c-5.1,1.7-10.1,3.4-15.2,5.2C145.7,514.2,145.8,514.4,145.9,514.7z"/>
		<path fill="#E6E6E6" d="M144.1,477.8c-1.4,0.2-2.7,0.3-4.1,0.5c0-0.2-0.1-0.3-0.1-0.5c1-0.2,2-0.3,2.9-0.7c0.9-0.4,3,1,2.8-1.6
			c0-0.1,1.9-0.4,2.9-0.3c1.3,0.1,2.7,0.7,4,0.7c5.6,0.1,11.2,0,16.7,0.1c0.9,0,1.8,0.5,2.5,0.9c-6.9-1-13.7-0.8-20.5,0
			c-1.2,0.2-2.4,0.1-3.6,0.4c-1,0.3-1.8,0.9-3.2,1.6c8.3,0.9,15.8,1.8,23.3,2.6c0,0.3-0.1,0.6-0.1,1c-1.2,0-2.4,0.2-3.5,0
			c-9.8-2.2-19.6-2.2-29.6-1.3c-11,1.1-21.2,4.3-31.1,8.9c-2.1,0.9-4,2.1-6.1,3c4.4-4,9.6-6.4,15.1-8.2c5.6-1.8,11.2-3.5,16.9-4.8
			c2.8-0.6,5.8-0.2,8.7-0.5c2.1-0.2,4.3-0.7,6.4-1C144.3,478.4,144.2,478.1,144.1,477.8z"/>
		<path fill="#E6E6E6" d="M88,534.7c-3.8-8.6-2.6-13.5,4.5-20.3c6.7-6.4,15.1-9.6,23.3-13.3c11.4-5.1,23.6-5.4,35.7-7
			c0.5-0.1,1,0.3,1.5,0.5c0,0.3,0,0.5-0.1,0.8c-0.8,0.1-1.7,0.2-2.5,0.3c-10.4,1-20.8,1.7-30.7,5.3c-9.5,3.4-19,7.1-26.7,14.1
			c-5.1,4.7-8.4,9.9-5.7,17.2C87.8,533.1,87.9,533.9,88,534.7z"/>
		<path fill="#E6E6E6" d="M448.4,511.5c-4.1-0.3-8.2-0.5-12.4-0.8c0,0.3,0,0.6-0.1,0.8c4.9,1.8,10,1.9,15.1,1.3
			c-6.7,0.7-13.6,3.2-20.1-3.2c6.3,0.4,11.9,0.7,17.5,1.1C448.5,511,448.5,511.2,448.4,511.5z"/>
		<path fill="#E6E6E6" d="M166.2,506.3c2.3-0.9,4.7-1.7,6.9-2.7c2.4-1,4.7-2.2,7.1-3.3c0.5-0.2,1-0.2,1.6-0.3
			c0.1,0.2,0.2,0.5,0.3,0.7c-5.1,2.1-10.3,4.2-15.4,6.3C166.4,506.9,166.3,506.6,166.2,506.3z"/>
		<path fill="#E6E6E6" d="M181.3,507c-4.2,1.3-8.3,2.6-12.5,3.9c-0.1-0.3-0.2-0.7-0.3-1c4.2-1.2,8.4-2.4,12.6-3.6
			C181.2,506.5,181.2,506.7,181.3,507z"/>
		<path fill="#E6E6E6" d="M500.3,502.1c2.5,2.2,4.8,4.2,7.1,6.2c-0.1,0.1-0.2,0.2-0.3,0.3c-2.2-1.3-4.5-2.6-6.6-4
			C499.2,503.8,499.4,502.8,500.3,502.1z"/>
		<path fill="#E6E6E6" d="M461.1,508.9c-6.2,0-12.3,0-18.5,0c0-0.1,0-0.3,0-0.4c6.2,0,12.3,0,18.5,0
			C461.1,508.6,461.1,508.8,461.1,508.9z"/>
		<path fill="#E6E6E6" d="M391,36.7c1.1,11.6,3.3,23.4-0.8,35.1C393.1,60.1,391,48.4,391,36.7z"/>
		<path fill="#E6E6E6" d="M220.1,38.4c1.9-5.1,1.8-10.8,6.1-15c1.9-1.9,2.9-4.7,4.3-7.1c0.2,0.1,0.4,0.2,0.7,0.3
			c-1.1,2.1-2.3,4.2-3.3,6.4c-2,4.3-4,8.6-6,12.8C221.4,36.8,220.6,37.5,220.1,38.4C220,38.4,220.1,38.4,220.1,38.4z"/>
		<path fill="#E6E6E6" d="M384.1,79.1c1.5-7.2,3-14.4,4.5-21.7c0.2,0,0.4,0.1,0.6,0.1c-1.5,7.2-3,14.4-4.5,21.7
			C384.6,79.2,384.4,79.2,384.1,79.1z"/>
		<path fill="#E6E6E6" d="M391.4,363.7c0,1.3,0.3,2.6,0,3.8c-2.8,10.1-5.5,20.3-11.2,29.2c-2.5,3.9-6,7.3-9.2,10.8
			c-0.7,0.7-2.1,0.7-3.1,1c0.4-0.9,0.7-2,1.3-2.7c3.7-4.6,7.6-8.9,11.1-13.6c5.1-6.9,7.1-15,9-23.2c0.4-1.8,0.9-3.6,1.3-5.4
			C390.8,363.7,391.1,363.7,391.4,363.7z"/>
		<path fill="#E6E6E6" d="M382.6,358.4c1-3.2,2-6.5,3-9.7c0.2,0.1,0.4,0.1,0.5,0.2c-1,3.2-1.9,6.5-2.9,9.7
			C383,358.5,382.8,358.5,382.6,358.4z"/>
		<path fill="#E6E6E6" d="M474.3,156.3c10.3,14.8,9.3,34-7.7,45.5c-3.2,2.1-7,3.4-10.4,5.1c-2.8,1.4-5.6,2.8-8.3,4.5
			c-1.9,1.2-3.6,2.3-6.7,1.1c1.6-1.1,2.6-2.2,3.9-2.7c4-1.7,8.1-3.4,12.2-4.6c14.5-4.2,28.9-21.9,19.8-41.4
			C476.1,161.3,475.3,158.7,474.3,156.3z"/>
		<path fill="#E6E6E6" d="M172.2,591.9c5,1,10,1.9,15,2.9c0,0.2-0.1,0.4-0.1,0.6c-5-0.9-10-1.8-15-2.7
			C172.1,592.4,172.1,592.2,172.2,591.9z"/>
		<path fill="#E6E6E6" d="M407.9,112.9c-1,4-4.9,7.2-8.2,6.8C400.1,116.1,403.6,113.1,407.9,112.9z"/>
	</g>
</g>
</svg>
